G04 Layer_Color=8388736*
%FSLAX44Y44*%
%MOMM*%
G71*
G01*
G75*
%ADD57R,1.9032X1.2032*%
%ADD58R,1.3032X1.2032*%
%ADD59R,1.2032X1.3032*%
%ADD60R,3.7032X1.8032*%
%ADD61R,1.8032X3.7032*%
%ADD62R,4.5032X2.7032*%
%ADD63R,2.7032X4.5032*%
%ADD64R,3.4432X1.5132*%
%ADD65R,1.1332X1.5132*%
%ADD66R,1.6032X1.4032*%
%ADD67R,5.2832X1.9812*%
%ADD68R,1.0032X1.0032*%
%ADD69R,1.0032X1.0032*%
%ADD70R,2.5032X0.7032*%
%ADD71R,2.7032X2.2032*%
%ADD72R,0.9032X1.8032*%
%ADD73R,1.6032X1.8032*%
%ADD74R,1.6032X2.4032*%
%ADD75R,2.0032X1.6032*%
%ADD76C,1.7032*%
%ADD77R,1.7032X1.7032*%
%ADD78R,1.7032X1.7032*%
%ADD79R,1.3332X1.3332*%
%ADD80C,1.3332*%
%ADD81C,4.2032*%
%ADD82R,1.8032X1.8032*%
%ADD83C,1.8032*%
%ADD84O,1.5112X2.8192*%
%ADD85O,2.8192X1.5112*%
%ADD86C,1.4032*%
%ADD87C,1.1032*%
%ADD88C,1.7012*%
%ADD89C,2.1532*%
%ADD90C,1.0032*%
D57*
X1056390Y459790D02*
D03*
Y497790D02*
D03*
X993390Y459790D02*
D03*
Y497790D02*
D03*
D58*
X761120Y426720D02*
D03*
X778120D02*
D03*
X719210D02*
D03*
X736210D02*
D03*
X416170Y383540D02*
D03*
X399170D02*
D03*
X400440Y367030D02*
D03*
X417440D02*
D03*
X615170Y570230D02*
D03*
X598170D02*
D03*
X677690D02*
D03*
X694690D02*
D03*
X881770Y469900D02*
D03*
X898770D02*
D03*
Y485140D02*
D03*
X881770D02*
D03*
Y518160D02*
D03*
X898770D02*
D03*
D59*
X773430Y491100D02*
D03*
Y474100D02*
D03*
X721360D02*
D03*
Y491100D02*
D03*
X449580Y367420D02*
D03*
Y384420D02*
D03*
X433070Y367420D02*
D03*
Y384420D02*
D03*
X313690Y214240D02*
D03*
Y197240D02*
D03*
X297180Y180730D02*
D03*
Y197730D02*
D03*
X843280Y626990D02*
D03*
Y609990D02*
D03*
X383540Y400440D02*
D03*
Y417440D02*
D03*
D60*
X938200Y119380D02*
D03*
X992200D02*
D03*
X836600D02*
D03*
X890600D02*
D03*
D61*
X777240Y100000D02*
D03*
Y154000D02*
D03*
X595630Y154000D02*
D03*
Y100000D02*
D03*
D62*
X416970Y453390D02*
D03*
X499970D02*
D03*
X632050D02*
D03*
X549050D02*
D03*
D63*
X394970Y185010D02*
D03*
Y102010D02*
D03*
D64*
X984250Y618920D02*
D03*
X902970D02*
D03*
D65*
X1007150Y552020D02*
D03*
X984250D02*
D03*
X961350D02*
D03*
X880070D02*
D03*
X902970D02*
D03*
X925870D02*
D03*
D66*
X767080Y619330D02*
D03*
X792480D02*
D03*
Y597330D02*
D03*
X767080D02*
D03*
D67*
X694690Y612140D02*
D03*
X598170D02*
D03*
D68*
X928370Y523120D02*
D03*
Y508120D02*
D03*
X963930Y523120D02*
D03*
Y508120D02*
D03*
X946150Y523120D02*
D03*
Y508120D02*
D03*
X858520Y193040D02*
D03*
Y178040D02*
D03*
X845820Y193040D02*
D03*
Y178040D02*
D03*
X871220Y193040D02*
D03*
Y178040D02*
D03*
X883920Y193040D02*
D03*
Y178040D02*
D03*
X896620Y193040D02*
D03*
Y178040D02*
D03*
X909320Y193040D02*
D03*
Y178040D02*
D03*
X922020Y193040D02*
D03*
Y178040D02*
D03*
X934720Y193040D02*
D03*
Y178040D02*
D03*
X985520Y193040D02*
D03*
Y178040D02*
D03*
X972820Y193040D02*
D03*
Y178040D02*
D03*
X998220Y193040D02*
D03*
Y178040D02*
D03*
X1010920Y193040D02*
D03*
Y178040D02*
D03*
X1023620Y193040D02*
D03*
Y178040D02*
D03*
X1036320Y193040D02*
D03*
Y178040D02*
D03*
D69*
X1022470Y335280D02*
D03*
X1037470D02*
D03*
X1022470Y398780D02*
D03*
X1037470D02*
D03*
X1022470Y386080D02*
D03*
X1037470D02*
D03*
X1022470Y373380D02*
D03*
X1037470D02*
D03*
X1022470Y360680D02*
D03*
X1037470D02*
D03*
X1022470Y347980D02*
D03*
X1037470D02*
D03*
X1022470Y309880D02*
D03*
X1037470D02*
D03*
X1022470Y322580D02*
D03*
X1037470D02*
D03*
X1022470Y278130D02*
D03*
X1037470D02*
D03*
X1022470Y290830D02*
D03*
X1037470D02*
D03*
D70*
X354930Y449070D02*
D03*
Y441070D02*
D03*
Y433070D02*
D03*
Y425070D02*
D03*
Y417070D02*
D03*
D71*
X298930Y388570D02*
D03*
X353930D02*
D03*
X298930Y477570D02*
D03*
X353930D02*
D03*
D72*
X416920Y523280D02*
D03*
X427920D02*
D03*
X438920D02*
D03*
X449920D02*
D03*
X460920D02*
D03*
X471920D02*
D03*
X482920D02*
D03*
X493920D02*
D03*
X504920D02*
D03*
D73*
X517920Y529280D02*
D03*
D74*
Y624280D02*
D03*
X360920D02*
D03*
D75*
X369920Y528280D02*
D03*
D76*
X1056640Y537210D02*
D03*
X857250Y491490D02*
D03*
Y466090D02*
D03*
Y440690D02*
D03*
X975160Y244240D02*
D03*
Y269240D02*
D03*
Y294240D02*
D03*
Y319240D02*
D03*
Y344240D02*
D03*
Y369240D02*
D03*
Y394240D02*
D03*
Y419240D02*
D03*
X899160Y244240D02*
D03*
Y269240D02*
D03*
Y294240D02*
D03*
Y319240D02*
D03*
Y344240D02*
D03*
Y369240D02*
D03*
Y394240D02*
D03*
X635000Y543560D02*
D03*
X609600D02*
D03*
X829310Y271780D02*
D03*
Y297180D02*
D03*
Y322580D02*
D03*
X783590Y561340D02*
D03*
X758190D02*
D03*
D77*
X1056640Y562610D02*
D03*
X857250Y516890D02*
D03*
X829310Y246380D02*
D03*
D78*
X899160Y419240D02*
D03*
X584200Y543560D02*
D03*
X732790Y561340D02*
D03*
D79*
X646100Y171450D02*
D03*
X463220D02*
D03*
D80*
X646100Y146050D02*
D03*
Y120650D02*
D03*
Y95250D02*
D03*
X725500D02*
D03*
Y120650D02*
D03*
Y146050D02*
D03*
Y171450D02*
D03*
X463220Y146050D02*
D03*
Y120650D02*
D03*
Y95250D02*
D03*
X542620D02*
D03*
Y120650D02*
D03*
Y146050D02*
D03*
Y171450D02*
D03*
D81*
X316230Y615950D02*
D03*
X1051560D02*
D03*
X316230Y104140D02*
D03*
X1051560Y105410D02*
D03*
D82*
X502380Y211220D02*
D03*
D83*
X527380D02*
D03*
X552380D02*
D03*
X577380D02*
D03*
X602380D02*
D03*
X627380D02*
D03*
X652380D02*
D03*
X677380D02*
D03*
X702380D02*
D03*
X727380D02*
D03*
X752380D02*
D03*
X777380D02*
D03*
X502380Y363220D02*
D03*
X527380D02*
D03*
X552380D02*
D03*
X577380D02*
D03*
X602380D02*
D03*
X627380D02*
D03*
X652380D02*
D03*
X677380D02*
D03*
X702380D02*
D03*
X727380D02*
D03*
X752380D02*
D03*
X777380D02*
D03*
D84*
X330200Y283210D02*
D03*
D85*
X380200Y233210D02*
D03*
Y258210D02*
D03*
Y308210D02*
D03*
Y333210D02*
D03*
D86*
X305200D02*
D03*
X330200D02*
D03*
X380200Y283210D02*
D03*
X305200Y233210D02*
D03*
X330200D02*
D03*
D87*
X328930Y455070D02*
D03*
Y411070D02*
D03*
X488920Y628280D02*
D03*
X408920D02*
D03*
D88*
X302260Y564790D02*
D03*
Y519790D02*
D03*
D89*
X327160Y577340D02*
D03*
Y507240D02*
D03*
D90*
X1037590Y398780D02*
D03*
Y386080D02*
D03*
Y373380D02*
D03*
Y360680D02*
D03*
Y347980D02*
D03*
Y335280D02*
D03*
Y322580D02*
D03*
Y309880D02*
D03*
Y290830D02*
D03*
Y278130D02*
D03*
X934720Y177800D02*
D03*
X922020D02*
D03*
X909320D02*
D03*
X896620D02*
D03*
X883920D02*
D03*
X871220D02*
D03*
X858520D02*
D03*
X845820D02*
D03*
X972820D02*
D03*
X985520D02*
D03*
X998220D02*
D03*
X1010920D02*
D03*
X1023620D02*
D03*
X1036320D02*
D03*
M02*
