G04 Layer_Physical_Order=1*
G04 Layer_Color=255*
%FSLAX44Y44*%
%MOMM*%
G71*
G01*
G75*
%ADD10R,1.7000X1.0000*%
%ADD11R,1.1000X1.0000*%
%ADD12R,1.0000X1.1000*%
%ADD13R,3.5000X1.6000*%
%ADD14R,1.6000X3.5000*%
%ADD15R,4.3000X2.5000*%
%ADD16R,2.5000X4.3000*%
%ADD17R,3.2400X1.3100*%
%ADD18R,0.9300X1.3100*%
%ADD19R,1.4000X1.2000*%
%ADD20R,5.0800X1.7780*%
%ADD21R,0.8000X0.8000*%
%ADD22R,0.8000X0.8000*%
%ADD23R,2.3000X0.5000*%
%ADD24R,2.5000X2.0000*%
%ADD25R,0.7000X1.6000*%
%ADD26R,1.4000X1.6000*%
%ADD27R,1.4000X2.2000*%
%ADD28R,1.8000X1.4000*%
%ADD29C,0.2000*%
%ADD30C,1.5000*%
%ADD31R,1.5000X1.5000*%
%ADD32R,1.5000X1.5000*%
%ADD33R,1.1300X1.1300*%
%ADD34C,1.1300*%
%ADD35C,4.0000*%
%ADD36R,1.6000X1.6000*%
%ADD37C,1.6000*%
%ADD38O,1.3080X2.6160*%
%ADD39O,2.6160X1.3080*%
%ADD40C,1.2000*%
%ADD41C,0.9000*%
%ADD42C,1.4980*%
%ADD43C,1.9500*%
%ADD44C,0.8000*%
G36*
X497067Y434848D02*
X497067Y434848D01*
X497300Y433677D01*
X497963Y432685D01*
X535421Y395227D01*
Y371124D01*
X534151Y370629D01*
X532423Y371955D01*
X529991Y372963D01*
X527380Y373306D01*
X524770Y372963D01*
X523759Y372544D01*
X522489Y373392D01*
Y393446D01*
X522256Y394617D01*
X521593Y395609D01*
X479485Y437717D01*
X479971Y438890D01*
X497067D01*
Y434848D01*
D02*
G37*
G36*
X820052Y371913D02*
Y369464D01*
X818782Y369151D01*
X816919Y370396D01*
X814578Y370862D01*
X812237Y370396D01*
X810252Y369070D01*
X808926Y367085D01*
X808460Y364744D01*
X808926Y362403D01*
X809797Y361099D01*
X776379Y327681D01*
X775161Y328259D01*
X774764Y330255D01*
X773438Y332240D01*
X771453Y333566D01*
X769112Y334031D01*
X769089Y334027D01*
X768107Y334833D01*
Y356792D01*
X769377Y357224D01*
X770248Y356088D01*
X772337Y354485D01*
X774770Y353477D01*
X777380Y353134D01*
X779991Y353477D01*
X782423Y354485D01*
X784512Y356088D01*
X786115Y358177D01*
X787123Y360610D01*
X787467Y363220D01*
X787123Y365830D01*
X786115Y368263D01*
X784512Y370352D01*
X782897Y371591D01*
X783328Y372861D01*
X819104D01*
X820052Y371913D01*
D02*
G37*
G36*
X1016470Y362354D02*
Y354680D01*
X1016470D01*
Y353980D01*
X1016363Y353647D01*
X1016216Y353526D01*
X1014522Y353774D01*
X1013976Y354592D01*
X1011991Y355918D01*
X1009650Y356384D01*
X1008156Y356086D01*
X1003431Y360811D01*
X1002439Y361474D01*
X1001268Y361707D01*
X1001268Y361707D01*
X982955D01*
X982328Y362977D01*
X983458Y364449D01*
X984415Y366760D01*
X984553Y367804D01*
X985710Y368328D01*
X986227Y367982D01*
X988568Y367517D01*
X990909Y367982D01*
X992894Y369308D01*
X993740Y370575D01*
X1008249D01*
X1016470Y362354D01*
D02*
G37*
G36*
X892025Y400547D02*
X890862Y399031D01*
X889904Y396720D01*
X889578Y394240D01*
X889904Y391760D01*
X890862Y389449D01*
X892269Y387615D01*
X891977Y386345D01*
X841499D01*
X839555Y388289D01*
X840041Y389462D01*
X855563D01*
X855563Y389462D01*
X856733Y389695D01*
X857726Y390358D01*
X869185Y401817D01*
X891427D01*
X892025Y400547D01*
D02*
G37*
G36*
X962529Y381377D02*
X962529Y381377D01*
X963521Y380714D01*
X964692Y380481D01*
X964692Y380481D01*
X985290D01*
X985437Y380273D01*
X985121Y378547D01*
X984242Y377960D01*
X983219Y376428D01*
X982648Y376245D01*
X981919Y376170D01*
X981670Y376219D01*
X979951Y377538D01*
X977640Y378495D01*
X975160Y378822D01*
X972680Y378495D01*
X970369Y377538D01*
X968384Y376015D01*
X966862Y374031D01*
X965904Y371720D01*
X965578Y369240D01*
X965904Y366760D01*
X966862Y364449D01*
X967991Y362977D01*
X967365Y361707D01*
X959101D01*
X935359Y385449D01*
X934367Y386112D01*
X933196Y386345D01*
X933196Y386345D01*
X906343D01*
X906051Y387615D01*
X907458Y389449D01*
X908176Y391181D01*
X952725D01*
X962529Y381377D01*
D02*
G37*
G36*
X649321Y424538D02*
Y372777D01*
X647337Y371955D01*
X645679Y370682D01*
X644409Y371245D01*
Y421422D01*
X648051Y425064D01*
X649321Y424538D01*
D02*
G37*
G36*
X628991Y414115D02*
X625217Y410341D01*
X624554Y409348D01*
X624321Y408178D01*
X624321Y408178D01*
Y373361D01*
X622065Y372427D01*
X619863Y370737D01*
X618173Y368535D01*
X617739Y367486D01*
X616469Y367739D01*
Y392176D01*
X616236Y393346D01*
X615573Y394339D01*
X615573Y394339D01*
X610373Y399539D01*
Y438350D01*
X628991D01*
Y414115D01*
D02*
G37*
G36*
X654547Y337807D02*
Y325117D01*
X625217Y295787D01*
X624554Y294795D01*
X624321Y293624D01*
X624321Y293624D01*
Y220777D01*
X622337Y219955D01*
X620248Y218352D01*
X618645Y216263D01*
X617637Y213830D01*
X617294Y211220D01*
X617637Y208609D01*
X618645Y206177D01*
X620248Y204088D01*
X622337Y202485D01*
X624770Y201477D01*
X627380Y201133D01*
X629991Y201477D01*
X632423Y202485D01*
X634512Y204088D01*
X635751Y205703D01*
X637021Y205271D01*
Y204470D01*
X637021Y204470D01*
X637254Y203300D01*
X637917Y202307D01*
X644126Y196099D01*
X643599Y194829D01*
X623097D01*
X611300Y206625D01*
X612122Y208609D01*
X612466Y211220D01*
X612122Y213830D01*
X611115Y216263D01*
X611027Y216377D01*
X611135Y216916D01*
X611135Y216916D01*
Y299977D01*
X648999Y337842D01*
X650494Y337545D01*
X652835Y338010D01*
X653427Y338406D01*
X654547Y337807D01*
D02*
G37*
G36*
X743645Y358177D02*
X745248Y356088D01*
X747337Y354485D01*
X749770Y353477D01*
X752380Y353134D01*
X754990Y353477D01*
X757423Y354485D01*
X759512Y356088D01*
X760719Y357661D01*
X761989Y357230D01*
Y331978D01*
X761989Y331978D01*
X762222Y330807D01*
X762885Y329815D01*
X763292Y329408D01*
X762995Y327914D01*
X763046Y327656D01*
X761875Y327030D01*
X751191Y337715D01*
X752412Y339543D01*
X752878Y341884D01*
X752412Y344225D01*
X751086Y346210D01*
X749101Y347536D01*
X746760Y348002D01*
X744419Y347536D01*
X742434Y346210D01*
X741108Y344225D01*
X740861Y342983D01*
X739483Y342565D01*
X738356Y343691D01*
X738653Y345186D01*
X738188Y347527D01*
X736862Y349512D01*
X736481Y349766D01*
X736356Y351030D01*
X740795Y355469D01*
X740795Y355469D01*
X741458Y356461D01*
X741691Y357632D01*
X741691Y357632D01*
Y359576D01*
X742961Y359829D01*
X743645Y358177D01*
D02*
G37*
G36*
X1016470Y331323D02*
X1016470Y328930D01*
X1016470Y328010D01*
Y325639D01*
X995937D01*
X993957Y326962D01*
X991616Y327427D01*
X989275Y326962D01*
X988457Y326416D01*
X987648Y327402D01*
X992467Y332221D01*
X1015572D01*
X1016470Y331323D01*
D02*
G37*
G36*
X651512Y437177D02*
X639187Y424851D01*
X638524Y423859D01*
X638291Y422688D01*
X638291Y422688D01*
Y367739D01*
X637021Y367486D01*
X636587Y368535D01*
X634897Y370737D01*
X632696Y372427D01*
X630439Y373361D01*
Y406911D01*
X634213Y410685D01*
X634213Y410685D01*
X634876Y411678D01*
X635109Y412848D01*
Y438350D01*
X651026D01*
X651512Y437177D01*
D02*
G37*
G36*
X628650Y352756D02*
X630131Y352951D01*
X632696Y354013D01*
X634897Y355703D01*
X636587Y357905D01*
X637021Y358954D01*
X638291Y358701D01*
Y356362D01*
X638291Y356362D01*
X638524Y355191D01*
X639187Y354199D01*
X644013Y349373D01*
X644013Y349373D01*
X645005Y348710D01*
X645110Y348689D01*
X645694Y347278D01*
X644842Y346003D01*
X644377Y343662D01*
X644674Y342168D01*
X607228Y304722D01*
X606055Y305208D01*
Y330965D01*
X615573Y340483D01*
X615573Y340483D01*
X616236Y341475D01*
X616469Y342646D01*
X616469Y342646D01*
Y358701D01*
X617739Y358954D01*
X618173Y357905D01*
X619863Y355703D01*
X622065Y354013D01*
X624628Y352951D01*
X626110Y352756D01*
Y363220D01*
X628650D01*
Y352756D01*
D02*
G37*
G36*
X838069Y381123D02*
X838069Y381123D01*
X839061Y380460D01*
X840232Y380227D01*
X931929D01*
X955671Y356485D01*
X956664Y355822D01*
X957834Y355589D01*
X1000001D01*
X1003830Y351760D01*
X1003532Y350266D01*
X1003915Y348342D01*
X1003213Y347419D01*
X1002938Y347242D01*
X1002650Y347299D01*
X1002650Y347299D01*
X984176D01*
X983458Y349031D01*
X981935Y351016D01*
X979951Y352538D01*
X977640Y353496D01*
X975160Y353822D01*
X972680Y353496D01*
X970369Y352538D01*
X968384Y351016D01*
X966862Y349031D01*
X965904Y346720D01*
X965578Y344240D01*
X965904Y341760D01*
X966862Y339449D01*
X968384Y337465D01*
X970369Y335942D01*
X972680Y334985D01*
X975160Y334658D01*
X977640Y334985D01*
X979951Y335942D01*
X981935Y337465D01*
X983458Y339449D01*
X984176Y341181D01*
X1001383D01*
X1001461Y341103D01*
X1001461Y341103D01*
X1002454Y340440D01*
X1003624Y340207D01*
X1016470D01*
Y338339D01*
X991200D01*
X991200Y338339D01*
X990029Y338106D01*
X989037Y337443D01*
X979372Y327778D01*
X977640Y328495D01*
X975160Y328822D01*
X972680Y328495D01*
X970948Y327778D01*
X939693Y359033D01*
X938700Y359696D01*
X937530Y359929D01*
X937530Y359929D01*
X904705D01*
X904286Y361199D01*
X905935Y362464D01*
X907458Y364449D01*
X908416Y366760D01*
X908742Y369240D01*
X908416Y371720D01*
X907458Y374031D01*
X905935Y376015D01*
X903951Y377538D01*
X901640Y378495D01*
X899160Y378822D01*
X896680Y378495D01*
X894369Y377538D01*
X892385Y376015D01*
X890862Y374031D01*
X889904Y371720D01*
X889578Y369240D01*
X889904Y366760D01*
X890862Y364449D01*
X892385Y362464D01*
X894034Y361199D01*
X893615Y359929D01*
X848608D01*
X824248Y384289D01*
X824734Y385462D01*
X833730D01*
X838069Y381123D01*
D02*
G37*
G36*
X746241Y451104D02*
X746241Y451104D01*
X746474Y449934D01*
X747137Y448941D01*
X754910Y441169D01*
X754613Y439674D01*
X755078Y437333D01*
X756404Y435348D01*
X756940Y434990D01*
X756555Y433720D01*
X753620D01*
Y429779D01*
X743710D01*
Y433720D01*
X728710D01*
Y419720D01*
X728949D01*
X729435Y418547D01*
X709138Y398250D01*
X707644Y398548D01*
X705303Y398082D01*
X704823Y397761D01*
X703702Y398360D01*
Y412747D01*
X704973Y413373D01*
X705616Y412879D01*
X707207Y412220D01*
X707644Y412163D01*
Y418592D01*
X710184D01*
Y412163D01*
X710621Y412220D01*
X712212Y412879D01*
X713578Y413928D01*
X714627Y415294D01*
X714726Y415533D01*
X717178D01*
X717178Y415533D01*
X718349Y415766D01*
X719341Y416429D01*
X721373Y418461D01*
X721853Y419180D01*
X727250D01*
Y425450D01*
X719210D01*
Y427990D01*
X727250D01*
Y434260D01*
X727250D01*
X726864Y435192D01*
X741811Y450138D01*
X741811Y450139D01*
X742474Y451131D01*
X742707Y452301D01*
X742707Y452301D01*
Y464142D01*
X742707Y464142D01*
X742474Y465312D01*
X741811Y466305D01*
X741811Y466305D01*
X731853Y476263D01*
X730860Y476926D01*
X729690Y477159D01*
X728900Y478042D01*
Y480303D01*
X746241D01*
Y451104D01*
D02*
G37*
G36*
X835223Y463341D02*
X835596Y461463D01*
X836922Y459478D01*
X838907Y458152D01*
X841248Y457687D01*
X842742Y457984D01*
X849499Y451227D01*
X849499Y451227D01*
X850491Y450564D01*
X851324Y450398D01*
X851665Y449509D01*
X851667Y449061D01*
X850089Y447851D01*
X848480Y445753D01*
X847650Y443749D01*
X833882D01*
X832711Y443516D01*
X831719Y442853D01*
X831719Y442853D01*
X818645Y429779D01*
X800862D01*
X800862Y429779D01*
X800862Y429779D01*
X786160D01*
Y432297D01*
X801116D01*
X801116Y432297D01*
X802287Y432530D01*
X803279Y433193D01*
X833945Y463859D01*
X835223Y463341D01*
D02*
G37*
G36*
X924549Y441552D02*
Y415287D01*
X917197Y407935D01*
X867918D01*
X867918Y407935D01*
X866748Y407702D01*
X865755Y407039D01*
X865755Y407039D01*
X854296Y395580D01*
X821764D01*
X821165Y396700D01*
X821500Y397201D01*
X821913Y399277D01*
X848360D01*
X848360Y399277D01*
X849530Y399510D01*
X850523Y400173D01*
X865121Y414771D01*
X876554D01*
X876554Y414771D01*
X877725Y415004D01*
X878717Y415667D01*
X888487Y425437D01*
X889660Y424951D01*
Y409740D01*
X908660D01*
Y428740D01*
X894701D01*
X894022Y430010D01*
X894192Y430265D01*
X910336D01*
X910336Y430265D01*
X911507Y430498D01*
X912499Y431161D01*
X923376Y442038D01*
X924549Y441552D01*
D02*
G37*
G36*
X765890Y477159D02*
X764032D01*
X762861Y476926D01*
X761869Y476263D01*
X761869Y476263D01*
X756393Y470787D01*
X755730Y469794D01*
X755497Y468624D01*
X755497Y468624D01*
Y455336D01*
X755497Y455336D01*
X755730Y454165D01*
X756393Y453173D01*
X762914Y446652D01*
X762288Y445482D01*
X760730Y445792D01*
X759236Y445494D01*
X752359Y452371D01*
Y480303D01*
X765890D01*
Y477159D01*
D02*
G37*
G36*
X393470Y445252D02*
X392200Y444867D01*
X391422Y446032D01*
X389437Y447358D01*
X387096Y447823D01*
X384755Y447358D01*
X382770Y446032D01*
X381444Y444047D01*
X380979Y441706D01*
X381444Y439365D01*
X382770Y437380D01*
X384755Y436054D01*
X387096Y435588D01*
X387319Y435633D01*
X388609Y434343D01*
Y425480D01*
X384810D01*
Y417440D01*
Y409400D01*
X388609D01*
Y407940D01*
X376540D01*
Y394009D01*
X371162Y388631D01*
X370499Y387639D01*
X370266Y386468D01*
X370266Y386468D01*
Y341048D01*
X369353Y340670D01*
X367569Y339301D01*
X366200Y337517D01*
X365340Y335439D01*
X365046Y333210D01*
X365340Y330980D01*
X366200Y328903D01*
X366951Y327925D01*
X366325Y326655D01*
X336781D01*
X336228Y327925D01*
X337188Y329175D01*
X337994Y331121D01*
X338269Y333210D01*
X337994Y335298D01*
X337188Y337244D01*
X335906Y338916D01*
X334235Y340198D01*
X332288Y341004D01*
X330200Y341279D01*
X328112Y341004D01*
X326166Y340198D01*
X324877Y339209D01*
X323607Y339725D01*
Y348999D01*
X340491Y365883D01*
X340491Y365883D01*
X341154Y366875D01*
X341387Y368046D01*
Y376570D01*
X368430D01*
Y400570D01*
X341387D01*
Y412030D01*
X353660D01*
Y417070D01*
X356200D01*
Y412030D01*
X368970D01*
Y414043D01*
X369978Y414244D01*
X370184Y414381D01*
X376000D01*
Y409400D01*
X382270D01*
Y417440D01*
Y425480D01*
X376000D01*
Y420499D01*
X369178D01*
X369178Y420499D01*
X368970Y420669D01*
Y423800D01*
X354930D01*
Y426340D01*
X368970D01*
Y427443D01*
X370240Y428122D01*
X371293Y427418D01*
X373634Y426953D01*
X375975Y427418D01*
X377960Y428744D01*
X379286Y430729D01*
X379752Y433070D01*
X379286Y435411D01*
X377960Y437396D01*
X375975Y438722D01*
X373634Y439188D01*
X371293Y438722D01*
X369700Y437658D01*
X368482Y438171D01*
X368430Y438220D01*
Y444851D01*
X368806Y446011D01*
X369977Y446244D01*
X370969Y446907D01*
X391411Y467349D01*
X393470D01*
Y445252D01*
D02*
G37*
G36*
X906261Y458213D02*
X876533Y428485D01*
X839689D01*
X838518Y428252D01*
X837526Y427589D01*
X837526Y427589D01*
X821256Y411319D01*
X820179Y412038D01*
X820188Y412059D01*
X820245Y412496D01*
X807387D01*
X807414Y412289D01*
X806870Y411852D01*
X806271Y411636D01*
X804915Y412993D01*
X803922Y413656D01*
X802752Y413889D01*
X802752Y413889D01*
X773197D01*
X768253Y418833D01*
X768620Y419720D01*
X768620D01*
Y433720D01*
X764905D01*
X764520Y434990D01*
X765056Y435348D01*
X766382Y437333D01*
X766848Y439674D01*
X766538Y441232D01*
X767708Y441857D01*
X774036Y435530D01*
X773510Y434260D01*
X770080D01*
Y427990D01*
X778120D01*
Y426720D01*
X779390D01*
Y419180D01*
X786160D01*
Y423661D01*
X799595D01*
X807543Y415713D01*
X807444Y415473D01*
X807387Y415036D01*
X812546D01*
Y420195D01*
X812109Y420138D01*
X811869Y420038D01*
X809420Y422488D01*
X809906Y423661D01*
X819912D01*
X819912Y423661D01*
X821083Y423894D01*
X822075Y424557D01*
X835149Y437631D01*
X847650D01*
X848480Y435627D01*
X850089Y433529D01*
X852187Y431920D01*
X854629Y430908D01*
X855980Y430731D01*
Y440690D01*
X858520D01*
Y430731D01*
X859871Y430908D01*
X862313Y431920D01*
X864411Y433529D01*
X866020Y435627D01*
X866850Y437631D01*
X879025D01*
X879025Y437631D01*
X880195Y437864D01*
X881188Y438527D01*
X900933Y458272D01*
X901596Y459264D01*
X901829Y460435D01*
Y462360D01*
X906261D01*
Y458213D01*
D02*
G37*
G36*
X1016470Y400454D02*
Y392780D01*
X1016470D01*
Y392080D01*
X1016470D01*
Y389139D01*
X1014342D01*
X1013171Y388906D01*
X1012179Y388243D01*
X1012179Y388243D01*
X1010535Y386599D01*
X982782D01*
X982245Y387869D01*
X983458Y389449D01*
X984415Y391760D01*
X984742Y394240D01*
X984415Y396720D01*
X983458Y399031D01*
X981935Y401016D01*
X979951Y402538D01*
X977640Y403495D01*
X975160Y403822D01*
X972680Y403495D01*
X970948Y402778D01*
X945634Y428091D01*
X945644Y428115D01*
X946383Y429139D01*
X948436Y428731D01*
X950777Y429196D01*
X952762Y430522D01*
X953608Y431789D01*
X985135D01*
X1016470Y400454D01*
D02*
G37*
G36*
X1026911Y424691D02*
Y404780D01*
X1020796D01*
X988565Y437011D01*
X987572Y437674D01*
X986402Y437907D01*
X986402Y437907D01*
X954053D01*
X953521Y438746D01*
X954142Y439917D01*
X1011685D01*
X1026911Y424691D01*
D02*
G37*
G36*
X932887Y426148D02*
X935228Y425682D01*
X937569Y426148D01*
X938382Y426692D01*
X966622Y398452D01*
X965904Y396720D01*
X965578Y394240D01*
X965904Y391760D01*
X966862Y389449D01*
X968074Y387869D01*
X967537Y386599D01*
X965959D01*
X956155Y396403D01*
X955163Y397066D01*
X953992Y397299D01*
X953992Y397299D01*
X908176D01*
X907458Y399031D01*
X906295Y400547D01*
X906893Y401817D01*
X918464D01*
X918464Y401817D01*
X919634Y402050D01*
X920627Y402713D01*
X929771Y411857D01*
X930434Y412850D01*
X930667Y414020D01*
X930667Y414020D01*
Y426104D01*
X931937Y426783D01*
X932887Y426148D01*
D02*
G37*
G36*
X693939Y451735D02*
X694932Y451072D01*
X696102Y450839D01*
X696102Y450839D01*
X703857D01*
X704005Y450631D01*
X703689Y448905D01*
X702810Y448318D01*
X701484Y446333D01*
X701019Y443992D01*
X701316Y442497D01*
X694481Y435663D01*
X693818Y434670D01*
X693585Y433500D01*
X693585Y433500D01*
Y380802D01*
X688971Y376188D01*
X688308Y375196D01*
X688075Y374025D01*
X688075Y374025D01*
Y366849D01*
X686805Y366596D01*
X686115Y368263D01*
X684512Y370352D01*
X682423Y371955D01*
X679990Y372963D01*
X677380Y373306D01*
X674769Y372963D01*
X672337Y371955D01*
X670571Y370600D01*
X669301Y371058D01*
Y381765D01*
X683543Y396008D01*
X685038Y395710D01*
X687379Y396176D01*
X689364Y397502D01*
X690690Y399487D01*
X691155Y401828D01*
X690690Y404169D01*
X689364Y406154D01*
X687379Y407480D01*
X685038Y407946D01*
X682697Y407480D01*
X680712Y406154D01*
X679386Y404169D01*
X678921Y401828D01*
X679218Y400334D01*
X664079Y385195D01*
X663416Y384202D01*
X663183Y383032D01*
X663183Y383032D01*
Y366589D01*
X661913Y366336D01*
X661115Y368263D01*
X659512Y370352D01*
X657423Y371955D01*
X655439Y372777D01*
Y424452D01*
X666413Y435426D01*
X666413Y435426D01*
X667076Y436418D01*
X667309Y437589D01*
Y462552D01*
X668576Y463399D01*
X669902Y465384D01*
X670368Y467725D01*
X669902Y470066D01*
X668662Y471921D01*
X668981Y473191D01*
X672483D01*
X693939Y451735D01*
D02*
G37*
G36*
X741331Y418738D02*
X741151Y417830D01*
X741616Y415489D01*
X742942Y413504D01*
X744927Y412178D01*
X747268Y411712D01*
X748763Y412010D01*
X754049Y406723D01*
X753563Y405550D01*
X740311D01*
X740311Y405550D01*
X739140Y405317D01*
X738148Y404654D01*
X738148Y404654D01*
X730220Y396726D01*
X728726Y397024D01*
X726385Y396558D01*
X724400Y395232D01*
X723074Y393247D01*
X722608Y390906D01*
X723074Y388565D01*
X724400Y386580D01*
X726385Y385254D01*
X728726Y384789D01*
X731067Y385254D01*
X731673Y385659D01*
X732846Y385173D01*
X732980Y384501D01*
X734306Y382516D01*
X736291Y381190D01*
X738632Y380724D01*
X740973Y381190D01*
X742958Y382516D01*
X744284Y384501D01*
X744750Y386842D01*
X744452Y388336D01*
X746341Y390225D01*
X747719Y389807D01*
X747966Y388565D01*
X749292Y386580D01*
X751277Y385254D01*
X752060Y385098D01*
X752429Y383883D01*
X737290Y368744D01*
X737143Y368684D01*
X735637Y368886D01*
X734512Y370352D01*
X732423Y371955D01*
X729990Y372963D01*
X727380Y373306D01*
X724769Y372963D01*
X722337Y371955D01*
X720248Y370352D01*
X718645Y368263D01*
X717815Y366259D01*
X716545Y366512D01*
Y374904D01*
X716312Y376075D01*
X715649Y377067D01*
X715649Y377067D01*
X707589Y385127D01*
X708107Y386405D01*
X709985Y386778D01*
X711970Y388104D01*
X713296Y390089D01*
X713762Y392430D01*
X713464Y393924D01*
X738373Y418833D01*
X738965Y419720D01*
X740525D01*
X741331Y418738D01*
D02*
G37*
G36*
X874483Y421097D02*
X874344Y420889D01*
X863854D01*
X862683Y420656D01*
X861691Y419993D01*
X861691Y419993D01*
X847093Y405395D01*
X825643D01*
X825157Y406568D01*
X840956Y422367D01*
X873805D01*
X874483Y421097D01*
D02*
G37*
G36*
X1041643Y437645D02*
Y404780D01*
X1038181D01*
X1037590Y404897D01*
X1036999Y404780D01*
X1033029D01*
Y425958D01*
X1032796Y427128D01*
X1032133Y428121D01*
X1015115Y445139D01*
X1014186Y445759D01*
X1014170Y445854D01*
X1014677Y447029D01*
X1032259D01*
X1041643Y437645D01*
D02*
G37*
G36*
X688075Y359591D02*
Y350358D01*
X686808Y349512D01*
X685482Y347527D01*
X685016Y345186D01*
X685482Y342845D01*
X686808Y340860D01*
X688793Y339534D01*
X691134Y339068D01*
X693475Y339534D01*
X695187Y340678D01*
X696457Y340241D01*
Y321627D01*
X695337Y321028D01*
X694745Y321424D01*
X692404Y321889D01*
X690910Y321592D01*
X680439Y332063D01*
Y353663D01*
X682423Y354485D01*
X684512Y356088D01*
X686115Y358177D01*
X686805Y359844D01*
X688075Y359591D01*
D02*
G37*
G36*
X824473Y202695D02*
Y188976D01*
X824473Y188976D01*
X824706Y187806D01*
X825369Y186813D01*
X828417Y183765D01*
X828417Y183765D01*
X829409Y183102D01*
X830580Y182869D01*
X830580Y182869D01*
X839820D01*
Y178391D01*
X839703Y177800D01*
X839820Y177209D01*
Y172040D01*
X844024D01*
X845820Y171682D01*
X847617Y172040D01*
X851820D01*
Y172040D01*
X852520D01*
Y172040D01*
X856723D01*
X858520Y171682D01*
X860316Y172040D01*
X864520D01*
Y172040D01*
X865220D01*
Y172040D01*
X869424D01*
X871220Y171682D01*
X873017Y172040D01*
X877220D01*
Y172040D01*
X877920D01*
Y172040D01*
X882123D01*
X883920Y171682D01*
X885716Y172040D01*
X890270Y172040D01*
X891190Y172040D01*
X894824D01*
X896620Y171682D01*
X898417Y172040D01*
X902970Y172040D01*
X903890Y172040D01*
X907523D01*
X909320Y171682D01*
X911116Y172040D01*
X915670Y172040D01*
X916590Y172040D01*
X920223D01*
X922020Y171682D01*
X923817Y172040D01*
X928370Y172040D01*
X929290Y172040D01*
X932924D01*
X934720Y171682D01*
X936516Y172040D01*
X937199D01*
X937685Y170867D01*
X916181Y149363D01*
X878078D01*
X876908Y149130D01*
X875915Y148467D01*
X862707Y135259D01*
X862044Y134267D01*
X861811Y133096D01*
X861811Y133096D01*
Y97787D01*
X845823Y81799D01*
X787240D01*
Y119500D01*
X767240D01*
Y102881D01*
X743709D01*
X740287Y106303D01*
X739295Y106966D01*
X738124Y107199D01*
X738124Y107199D01*
X716880D01*
X716034Y108466D01*
X714049Y109792D01*
X711708Y110258D01*
X709367Y109792D01*
X707382Y108466D01*
X706709Y107458D01*
X705439Y107843D01*
Y201663D01*
X707423Y202485D01*
X709512Y204088D01*
X711115Y206177D01*
X712123Y208609D01*
X712466Y211220D01*
X712123Y213830D01*
X711115Y216263D01*
X709512Y218352D01*
X707423Y219955D01*
X704991Y220962D01*
X702380Y221306D01*
X700949Y221118D01*
X700356Y222321D01*
X701799Y223763D01*
X758938D01*
X759424Y222590D01*
X756975Y220140D01*
X754990Y220962D01*
X752380Y221306D01*
X749770Y220962D01*
X747337Y219955D01*
X745248Y218352D01*
X743645Y216263D01*
X742637Y213830D01*
X742294Y211220D01*
X742637Y208609D01*
X743645Y206177D01*
X745248Y204088D01*
X747337Y202485D01*
X749770Y201477D01*
X752380Y201133D01*
X754990Y201477D01*
X757423Y202485D01*
X759512Y204088D01*
X761115Y206177D01*
X762123Y208609D01*
X762466Y211220D01*
X762123Y213830D01*
X761301Y215815D01*
X764931Y219445D01*
X768806D01*
X769432Y218175D01*
X768174Y216535D01*
X767112Y213971D01*
X766916Y212490D01*
X777380D01*
X787844D01*
X787649Y213971D01*
X786587Y216535D01*
X785329Y218175D01*
X785955Y219445D01*
X788673D01*
X799073Y209045D01*
Y145380D01*
X797806Y144534D01*
X796480Y142549D01*
X796014Y140208D01*
X796480Y137867D01*
X797806Y135882D01*
X799791Y134556D01*
X802132Y134090D01*
X804473Y134556D01*
X806458Y135882D01*
X807784Y137867D01*
X808250Y140208D01*
X807784Y142549D01*
X806458Y144534D01*
X805191Y145380D01*
Y210312D01*
X805191Y210312D01*
X804958Y211483D01*
X804295Y212475D01*
X804295Y212475D01*
X794180Y222590D01*
X794666Y223763D01*
X803405D01*
X824473Y202695D01*
D02*
G37*
G36*
X696038Y226654D02*
X686818Y217433D01*
X685285Y217345D01*
X684512Y218352D01*
X682423Y219955D01*
X679990Y220962D01*
X677380Y221306D01*
X674769Y220962D01*
X672337Y219955D01*
X670248Y218352D01*
X668645Y216263D01*
X667637Y213830D01*
X667294Y211220D01*
X667637Y208609D01*
X668459Y206625D01*
X661997Y200163D01*
X654736D01*
X654653Y201433D01*
X654991Y201477D01*
X657423Y202485D01*
X659512Y204088D01*
X661115Y206177D01*
X662123Y208609D01*
X662467Y211220D01*
X662123Y213830D01*
X661301Y215815D01*
X673313Y227827D01*
X695552D01*
X696038Y226654D01*
D02*
G37*
G36*
X576315Y305494D02*
Y239481D01*
X556975Y220140D01*
X554990Y220962D01*
X552380Y221306D01*
X549769Y220962D01*
X547337Y219955D01*
X545248Y218352D01*
X543645Y216263D01*
X542637Y213830D01*
X542294Y211220D01*
X542637Y208609D01*
X543645Y206177D01*
X545248Y204088D01*
X547337Y202485D01*
X549769Y201477D01*
X552380Y201133D01*
X554990Y201477D01*
X557423Y202485D01*
X559512Y204088D01*
X561115Y206177D01*
X562122Y208609D01*
X562466Y211220D01*
X562122Y213830D01*
X561301Y215815D01*
X573051Y227565D01*
X574321Y227039D01*
Y220777D01*
X572337Y219955D01*
X570248Y218352D01*
X568645Y216263D01*
X567637Y213830D01*
X567294Y211220D01*
X567637Y208609D01*
X568645Y206177D01*
X570248Y204088D01*
X572337Y202485D01*
X574770Y201477D01*
X577380Y201133D01*
X579991Y201477D01*
X582423Y202485D01*
X584512Y204088D01*
X586115Y206177D01*
X586983Y208273D01*
X588253Y208020D01*
Y202184D01*
X588253Y202184D01*
X588486Y201014D01*
X589149Y200021D01*
X596978Y192192D01*
X596492Y191019D01*
X523237D01*
X519187Y195069D01*
Y203579D01*
X520457Y203928D01*
X522337Y202485D01*
X524770Y201477D01*
X527380Y201133D01*
X529991Y201477D01*
X532423Y202485D01*
X534512Y204088D01*
X536115Y206177D01*
X537123Y208609D01*
X537467Y211220D01*
X537123Y213830D01*
X536301Y215815D01*
X572901Y252415D01*
X572901Y252415D01*
X573564Y253407D01*
X573797Y254578D01*
X573797Y254578D01*
Y304962D01*
X575064Y305808D01*
X575100Y305862D01*
X576315Y305494D01*
D02*
G37*
G36*
X584697Y315603D02*
Y239265D01*
X583703Y238270D01*
X582433Y238797D01*
Y315353D01*
X583428Y316040D01*
X584697Y315603D01*
D02*
G37*
G36*
X717628Y254647D02*
X717232Y254055D01*
X716767Y251714D01*
X717232Y249373D01*
X718558Y247388D01*
X720543Y246062D01*
X722884Y245597D01*
X725225Y246062D01*
X727210Y247388D01*
X728056Y248655D01*
X795509D01*
X809202Y234961D01*
X808577Y233791D01*
X807803Y233945D01*
X807803Y233945D01*
X672047D01*
X672046Y233945D01*
X670876Y233712D01*
X669883Y233049D01*
X656975Y220140D01*
X654991Y220962D01*
X652380Y221306D01*
X651198Y221150D01*
X650605Y222353D01*
X684019Y255767D01*
X717029D01*
X717628Y254647D01*
D02*
G37*
G36*
X597337Y354485D02*
X599769Y353477D01*
X602380Y353134D01*
X604990Y353477D01*
X607423Y354485D01*
X609081Y355757D01*
X610351Y355195D01*
Y343913D01*
X600833Y334395D01*
X600170Y333402D01*
X599937Y332232D01*
X599937Y332232D01*
Y229105D01*
X598596Y227764D01*
X597610Y228574D01*
X597694Y228699D01*
X597927Y229870D01*
X597927Y229870D01*
Y348742D01*
X597927Y348742D01*
X597694Y349912D01*
X597031Y350905D01*
X594371Y353565D01*
Y355260D01*
X595641Y355786D01*
X597337Y354485D01*
D02*
G37*
G36*
X897912Y216632D02*
X897615Y215138D01*
X898080Y212797D01*
X899406Y210812D01*
X901391Y209486D01*
X903732Y209021D01*
X906073Y209486D01*
X908058Y210812D01*
X909384Y212797D01*
X909849Y215138D01*
X909384Y217479D01*
X908058Y219464D01*
X908004Y219500D01*
X908372Y220715D01*
X910847D01*
X918961Y212601D01*
Y199040D01*
X916020D01*
Y199040D01*
X915320D01*
Y199040D01*
X907646D01*
X879038Y227648D01*
X879524Y228821D01*
X885723D01*
X897912Y216632D01*
D02*
G37*
G36*
X1056519Y647260D02*
X1061356Y646099D01*
X1065952Y644196D01*
X1070193Y641596D01*
X1073976Y638366D01*
X1077206Y634583D01*
X1079806Y630342D01*
X1081709Y625746D01*
X1082870Y620909D01*
X1083251Y616075D01*
X1083226Y615950D01*
Y105410D01*
X1083251Y105285D01*
X1082870Y100451D01*
X1081709Y95614D01*
X1079806Y91018D01*
X1077206Y86777D01*
X1073976Y82994D01*
X1070193Y79764D01*
X1065952Y77164D01*
X1061356Y75261D01*
X1056519Y74100D01*
X1051685Y73719D01*
X1051560Y73744D01*
X991589D01*
X991103Y74917D01*
X1018163Y101977D01*
X1018826Y102970D01*
X1019059Y104140D01*
X1019059Y104140D01*
Y153416D01*
X1019059Y153416D01*
X1018826Y154586D01*
X1018163Y155579D01*
X1018163Y155579D01*
X1007749Y165993D01*
X1006757Y166656D01*
X1005586Y166889D01*
X1005586Y166889D01*
X970897D01*
X967016Y170770D01*
X967542Y172040D01*
X971023D01*
X972820Y171682D01*
X974616Y172040D01*
X978820D01*
Y172040D01*
X979520D01*
Y172040D01*
X983724D01*
X985520Y171682D01*
X987317Y172040D01*
X991520D01*
Y172040D01*
X992220D01*
Y172040D01*
X996423D01*
X998220Y171682D01*
X1000016Y172040D01*
X1004220D01*
Y172040D01*
X1004920D01*
Y172040D01*
X1009124D01*
X1010920Y171682D01*
X1012717Y172040D01*
X1016920D01*
Y172040D01*
X1017620D01*
Y172040D01*
X1021824D01*
X1023620Y171682D01*
X1025416Y172040D01*
X1029620D01*
Y172040D01*
X1030320D01*
Y172040D01*
X1034523D01*
X1036320Y171682D01*
X1038117Y172040D01*
X1042320D01*
Y177209D01*
X1042438Y177800D01*
X1042320Y178391D01*
Y184040D01*
X1033305D01*
X1032819Y185213D01*
X1034646Y187040D01*
X1042320D01*
Y199040D01*
X1039379D01*
Y201168D01*
X1039146Y202339D01*
X1038483Y203331D01*
X1038483Y203331D01*
X1015470Y226343D01*
X1015768Y227838D01*
X1015302Y230179D01*
X1013976Y232164D01*
X1011991Y233490D01*
X1010113Y233863D01*
X1009595Y235141D01*
X1023363Y248909D01*
X1046480D01*
X1046480Y248909D01*
X1047651Y249142D01*
X1048643Y249805D01*
X1056771Y257933D01*
X1056771Y257933D01*
X1057434Y258925D01*
X1057667Y260096D01*
Y437062D01*
X1072631Y452027D01*
X1073214Y451935D01*
X1073901Y451571D01*
Y190243D01*
X1028924Y145266D01*
X1027430Y145563D01*
X1025089Y145098D01*
X1023104Y143772D01*
X1021778Y141787D01*
X1021312Y139446D01*
X1021778Y137105D01*
X1023104Y135120D01*
X1025089Y133794D01*
X1027430Y133329D01*
X1029771Y133794D01*
X1031756Y135120D01*
X1033082Y137105D01*
X1033548Y139446D01*
X1033250Y140941D01*
X1079123Y186813D01*
X1079123Y186813D01*
X1079786Y187805D01*
X1080019Y188976D01*
Y542290D01*
X1080019Y542290D01*
X1079786Y543461D01*
X1079123Y544453D01*
X1066140Y557436D01*
Y572110D01*
X1047140D01*
Y565669D01*
X1017740D01*
X1017740Y565669D01*
X1016569Y565436D01*
X1015577Y564773D01*
X1011374Y560570D01*
X1000500D01*
Y557465D01*
X999230Y556786D01*
X998021Y557594D01*
X995680Y558060D01*
X993339Y557594D01*
X992170Y556813D01*
X990900Y557492D01*
Y560570D01*
X977600D01*
Y543470D01*
X979773D01*
X980158Y542200D01*
X979924Y542044D01*
X978598Y540059D01*
X978132Y537718D01*
X978598Y535377D01*
X979924Y533392D01*
X981909Y532066D01*
X984250Y531600D01*
X986591Y532066D01*
X988576Y533392D01*
X989902Y535377D01*
X990368Y537718D01*
X989902Y540059D01*
X988576Y542044D01*
X988342Y542200D01*
X988727Y543470D01*
X990900D01*
Y546392D01*
X992170Y547071D01*
X993339Y546290D01*
X995680Y545825D01*
X998021Y546290D01*
X999230Y547098D01*
X1000500Y546419D01*
Y543470D01*
X1013800D01*
Y554344D01*
X1019007Y559551D01*
X1047140D01*
Y553110D01*
X1061814D01*
X1073901Y541023D01*
Y468850D01*
X1073214Y468486D01*
X1072631Y468395D01*
X1067693Y473333D01*
X1066701Y473996D01*
X1065530Y474229D01*
X1065530Y474229D01*
X938022D01*
X936852Y473996D01*
X935859Y473333D01*
X935859Y473333D01*
X920365Y457839D01*
X919702Y456847D01*
X919469Y455676D01*
X919469Y455676D01*
Y452239D01*
X918200Y451802D01*
X917205Y452489D01*
Y470157D01*
X937645Y490597D01*
X937645Y490597D01*
X938308Y491589D01*
X938541Y492760D01*
Y526470D01*
X939811Y527210D01*
X940150Y527018D01*
Y517120D01*
X950853D01*
X951353Y516371D01*
X952465Y515260D01*
X951808Y514120D01*
X940150D01*
Y502120D01*
X947824D01*
X956299Y493645D01*
X956299Y493645D01*
X957291Y492982D01*
X958462Y492749D01*
X958462Y492749D01*
X972820D01*
X972820Y492749D01*
X973990Y492982D01*
X974983Y493645D01*
X981177Y499839D01*
X982350Y499353D01*
Y499060D01*
X992120D01*
Y505330D01*
X990357D01*
Y518628D01*
X990124Y519798D01*
X989461Y520791D01*
X989461Y520791D01*
X968183Y542069D01*
X968540Y542930D01*
X968540D01*
Y550750D01*
X961350D01*
Y552020D01*
X960080D01*
Y561110D01*
X956758D01*
Y566064D01*
X956758Y566064D01*
X956525Y567235D01*
X955862Y568227D01*
X946014Y578075D01*
X945022Y578738D01*
X943851Y578971D01*
X943851Y578971D01*
X859358D01*
X858759Y580091D01*
X859092Y580589D01*
X859557Y582930D01*
X859260Y584425D01*
X863223Y588387D01*
X863886Y589380D01*
X864119Y590550D01*
Y633984D01*
X863886Y635154D01*
X863223Y636147D01*
X855603Y643767D01*
X854611Y644430D01*
X853440Y644663D01*
X853440Y644663D01*
X585470D01*
X585470Y644663D01*
X584300Y644430D01*
X583307Y643767D01*
X583307Y643767D01*
X563495Y623955D01*
X562832Y622962D01*
X562599Y621792D01*
X562599Y621792D01*
Y579882D01*
X562599Y579882D01*
X562832Y578712D01*
X563495Y577719D01*
X569490Y571725D01*
X569193Y570230D01*
X569658Y567889D01*
X569735Y567773D01*
X568820Y566858D01*
X568074Y567356D01*
X566903Y567589D01*
X566903Y567589D01*
X534812D01*
X534812Y567589D01*
X533642Y567356D01*
X532649Y566693D01*
X532649Y566693D01*
X522152Y556196D01*
X520979Y556682D01*
Y610740D01*
X527460D01*
Y623010D01*
X517920D01*
Y624280D01*
X516650D01*
Y637820D01*
X508380D01*
Y626480D01*
X508325Y626443D01*
X508325Y626443D01*
X502669Y620787D01*
X491133D01*
X490881Y622057D01*
X492198Y622603D01*
X493556Y623644D01*
X494598Y625002D01*
X495253Y626583D01*
X495476Y628280D01*
X495253Y629977D01*
X494598Y631558D01*
X493556Y632916D01*
X492198Y633958D01*
X490617Y634613D01*
X488920Y634836D01*
X487223Y634613D01*
X485642Y633958D01*
X484284Y632916D01*
X483242Y631558D01*
X482587Y629977D01*
X482364Y628280D01*
X482384Y628130D01*
X481181Y627537D01*
X462372Y646346D01*
X462572Y647180D01*
X462863Y647616D01*
X1051560D01*
X1051685Y647641D01*
X1056519Y647260D01*
D02*
G37*
G36*
X967467Y161667D02*
X968459Y161004D01*
X969630Y160771D01*
X969630Y160771D01*
X1004319D01*
X1012941Y152149D01*
Y130900D01*
X1012240Y129920D01*
X993470D01*
Y119380D01*
Y108840D01*
X1012240D01*
X1012941Y107860D01*
Y105407D01*
X985333Y77799D01*
X852134D01*
X851648Y78972D01*
X867033Y94357D01*
X867033Y94357D01*
X867696Y95349D01*
X867929Y96520D01*
Y131829D01*
X879345Y143245D01*
X917448D01*
X917448Y143245D01*
X918618Y143478D01*
X919611Y144141D01*
X946412Y170942D01*
X947585Y170456D01*
Y148160D01*
X947585Y148160D01*
X947818Y146990D01*
X948481Y145997D01*
X971679Y122799D01*
X971729Y122544D01*
X971646Y121261D01*
X957583Y107199D01*
X918207D01*
X910640Y114766D01*
Y118110D01*
X891870D01*
Y108840D01*
X907914D01*
X914777Y101977D01*
X915770Y101314D01*
X916940Y101081D01*
X958850D01*
X958850Y101081D01*
X960021Y101314D01*
X961013Y101977D01*
X970987Y111951D01*
X972160Y111465D01*
Y108840D01*
X990930D01*
Y119380D01*
Y129920D01*
X973210D01*
X953702Y149427D01*
Y173772D01*
X954876Y174258D01*
X967467Y161667D01*
D02*
G37*
G36*
X740279Y97659D02*
X740279Y97659D01*
X741272Y96996D01*
X742442Y96763D01*
X767240D01*
Y81799D01*
X713483D01*
X705439Y89843D01*
Y100437D01*
X706709Y100822D01*
X707382Y99814D01*
X709367Y98488D01*
X711708Y98022D01*
X714049Y98488D01*
X716034Y99814D01*
X716880Y101081D01*
X718731D01*
X719358Y99811D01*
X718818Y99108D01*
X718047Y97247D01*
X717784Y95250D01*
X718047Y93253D01*
X718818Y91392D01*
X720044Y89794D01*
X721642Y88568D01*
X723503Y87797D01*
X725500Y87534D01*
X727497Y87797D01*
X729358Y88568D01*
X730956Y89794D01*
X732182Y91392D01*
X732953Y93253D01*
X733216Y95250D01*
X732953Y97247D01*
X732182Y99108D01*
X731643Y99811D01*
X732269Y101081D01*
X736857D01*
X740279Y97659D01*
D02*
G37*
G36*
X855369Y223551D02*
X854194Y222766D01*
X852868Y220781D01*
X852402Y218440D01*
X852868Y216099D01*
X854194Y214114D01*
X855461Y213268D01*
Y199040D01*
X852520D01*
Y199040D01*
X851820D01*
Y199040D01*
X839820D01*
Y198209D01*
X839814Y198202D01*
X838550Y197646D01*
X836985Y198692D01*
X834644Y199158D01*
X832303Y198692D01*
X831711Y198296D01*
X830591Y198895D01*
Y203962D01*
X830358Y205133D01*
X829695Y206125D01*
X829695Y206125D01*
X812172Y223648D01*
X812658Y224821D01*
X854984D01*
X855369Y223551D01*
D02*
G37*
G36*
X693645Y206177D02*
X695248Y204088D01*
X697337Y202485D01*
X699321Y201663D01*
Y88576D01*
X699321Y88576D01*
X699554Y87405D01*
X700217Y86413D01*
X707658Y78972D01*
X707172Y77799D01*
X699957D01*
X676413Y101343D01*
Y170688D01*
X676413Y170688D01*
X676180Y171859D01*
X675517Y172851D01*
X675517Y172851D01*
X663325Y185043D01*
X662333Y185706D01*
X661162Y185939D01*
X661162Y185939D01*
X611883D01*
X595622Y202200D01*
X596461Y203157D01*
X597337Y202485D01*
X599769Y201477D01*
X602380Y201133D01*
X604990Y201477D01*
X606975Y202299D01*
X619667Y189607D01*
X620659Y188944D01*
X621830Y188711D01*
X621830Y188711D01*
X677164D01*
X677164Y188711D01*
X678335Y188944D01*
X679327Y189607D01*
X690757Y201037D01*
X691420Y202029D01*
X691653Y203200D01*
Y207668D01*
X692923Y207921D01*
X693645Y206177D01*
D02*
G37*
G36*
X938221Y185213D02*
X937735Y184040D01*
X928370Y184040D01*
X927450Y184040D01*
X916590D01*
X915670Y184040D01*
X914750Y184040D01*
X903890D01*
X902970Y184040D01*
X902050Y184040D01*
X891190D01*
X890270Y184040D01*
X889350Y184040D01*
X880905D01*
X880419Y185213D01*
X882246Y187040D01*
X889920D01*
X889920Y187040D01*
X890620D01*
Y187040D01*
X891190Y187040D01*
X902620D01*
X902620Y187040D01*
X903320D01*
Y187040D01*
X903890Y187040D01*
X915320D01*
Y187040D01*
X916020D01*
Y187040D01*
X928020D01*
Y187040D01*
X928720D01*
Y187040D01*
X936394D01*
X938221Y185213D01*
D02*
G37*
G36*
X967967Y300471D02*
X966862Y299031D01*
X966144Y297299D01*
X919731D01*
X916462Y300568D01*
X916948Y301741D01*
X967340D01*
X967967Y300471D01*
D02*
G37*
G36*
X875490Y302637D02*
X875490Y302637D01*
X876483Y301974D01*
X877653Y301741D01*
X877653Y301741D01*
X891340D01*
X891967Y300471D01*
X890862Y299031D01*
X889904Y296720D01*
X889578Y294240D01*
X889904Y291760D01*
X890862Y289449D01*
X891938Y288047D01*
X891312Y286777D01*
X887727D01*
X841279Y333225D01*
X841765Y334398D01*
X843729D01*
X875490Y302637D01*
D02*
G37*
G36*
X916301Y292077D02*
X917293Y291414D01*
X918464Y291181D01*
X966144D01*
X966862Y289449D01*
X968384Y287465D01*
X970369Y285942D01*
X972680Y284985D01*
X975160Y284658D01*
X977640Y284985D01*
X979951Y285942D01*
X981935Y287465D01*
X983458Y289449D01*
X984415Y291760D01*
X984441Y291955D01*
X985643Y292363D01*
X989339Y288667D01*
X990332Y288004D01*
X991502Y287771D01*
X1016470D01*
Y284830D01*
X1016470Y284830D01*
Y284130D01*
X1016470D01*
X1016470Y283560D01*
Y281189D01*
X987041D01*
X986159Y282071D01*
X985166Y282734D01*
X983996Y282967D01*
X983996Y282967D01*
X914759D01*
X907698Y290028D01*
X908416Y291760D01*
X908742Y294240D01*
X908416Y296720D01*
X907458Y299031D01*
X907151Y299431D01*
X908108Y300270D01*
X916301Y292077D01*
D02*
G37*
G36*
X819336Y360276D02*
X820156Y360006D01*
X820284Y359359D01*
X820947Y358367D01*
X834259Y345055D01*
X835251Y344392D01*
X836422Y344159D01*
X869915D01*
X890622Y323452D01*
X889904Y321720D01*
X889578Y319240D01*
X889904Y316760D01*
X890862Y314449D01*
X892385Y312464D01*
X894369Y310942D01*
X896680Y309984D01*
X899160Y309658D01*
X901640Y309984D01*
X903372Y310702D01*
X905042Y309032D01*
X904556Y307859D01*
X878920D01*
X847159Y339620D01*
X846167Y340283D01*
X844996Y340516D01*
X844996Y340516D01*
X800656D01*
X800656Y340516D01*
X799485Y340283D01*
X799317Y340171D01*
X798507Y341157D01*
X816324Y358974D01*
X816919Y359092D01*
X818822Y360364D01*
X819336Y360276D01*
D02*
G37*
G36*
X845179Y354707D02*
X846171Y354044D01*
X847342Y353811D01*
X894123D01*
X894376Y352541D01*
X894369Y352538D01*
X892385Y351016D01*
X890862Y349031D01*
X889904Y346720D01*
X889578Y344240D01*
X889904Y341760D01*
X890862Y339449D01*
X892385Y337465D01*
X894369Y335942D01*
X896680Y334985D01*
X899160Y334658D01*
X901640Y334985D01*
X903951Y335942D01*
X905935Y337465D01*
X907458Y339449D01*
X908416Y341760D01*
X908742Y344240D01*
X908416Y346720D01*
X907458Y349031D01*
X905935Y351016D01*
X903951Y352538D01*
X903944Y352541D01*
X904197Y353811D01*
X936263D01*
X966622Y323452D01*
X965904Y321720D01*
X965578Y319240D01*
X965904Y316760D01*
X966862Y314449D01*
X968384Y312464D01*
X970369Y310942D01*
X972680Y309984D01*
X975160Y309658D01*
X977640Y309984D01*
X979951Y310942D01*
X981935Y312464D01*
X983458Y314449D01*
X984415Y316760D01*
X984690Y318844D01*
X985879Y318958D01*
X985983Y318940D01*
X987290Y316984D01*
X989275Y315658D01*
X991616Y315193D01*
X993957Y315658D01*
X995942Y316984D01*
X997268Y318969D01*
X997378Y319521D01*
X1015572D01*
X1016470Y318623D01*
X1016470Y316230D01*
X1016470Y315310D01*
Y308206D01*
X1012313Y304049D01*
X998566D01*
X997720Y305316D01*
X995735Y306642D01*
X993394Y307108D01*
X991053Y306642D01*
X989068Y305316D01*
X988321Y304197D01*
X986686Y304036D01*
X983759Y306963D01*
X982767Y307626D01*
X981596Y307859D01*
X981596Y307859D01*
X914867D01*
X907698Y315028D01*
X908416Y316760D01*
X908742Y319240D01*
X908416Y321720D01*
X907458Y324031D01*
X905935Y326015D01*
X903951Y327538D01*
X901640Y328495D01*
X899160Y328822D01*
X896680Y328495D01*
X894948Y327778D01*
X873345Y349381D01*
X872352Y350044D01*
X871182Y350277D01*
X871182Y350277D01*
X837689D01*
X826169Y361797D01*
Y371921D01*
X827439Y372447D01*
X845179Y354707D01*
D02*
G37*
G36*
X1031470Y376395D02*
Y367380D01*
X1031470D01*
Y366680D01*
X1031470D01*
Y354680D01*
X1031470D01*
Y353980D01*
X1031470D01*
Y341980D01*
X1031470D01*
Y341280D01*
X1031470D01*
Y329280D01*
X1031470D01*
Y328580D01*
X1031470D01*
Y316580D01*
X1031470D01*
Y315880D01*
X1031470D01*
Y303880D01*
X1031470D01*
X1031836Y302610D01*
X1027807Y298581D01*
X1027144Y297589D01*
X1026993Y296830D01*
X1016470D01*
Y293889D01*
X994958D01*
X994833Y295159D01*
X995735Y295338D01*
X997720Y296664D01*
X998566Y297931D01*
X1013580D01*
X1013580Y297931D01*
X1014750Y298164D01*
X1015743Y298827D01*
X1020796Y303880D01*
X1028470D01*
Y315310D01*
X1028470Y316230D01*
X1028470Y317150D01*
Y328010D01*
X1028470Y328930D01*
X1028470Y329850D01*
Y341280D01*
X1028470Y341280D01*
Y341980D01*
X1028470D01*
X1028470Y342550D01*
Y353980D01*
X1028470D01*
Y354680D01*
X1028470D01*
Y366110D01*
X1028470Y366680D01*
X1028470D01*
Y367380D01*
X1028470D01*
Y375054D01*
X1030297Y376881D01*
X1031470Y376395D01*
D02*
G37*
G36*
X821519Y328919D02*
X820540Y327643D01*
X819528Y325201D01*
X819351Y323850D01*
X829310D01*
X839269D01*
X839127Y324929D01*
X839839Y325447D01*
X840265Y325587D01*
X884297Y281555D01*
X884297Y281555D01*
X885289Y280892D01*
X886460Y280659D01*
X899765D01*
X900367Y279894D01*
X899785Y278740D01*
X899160Y278822D01*
X896680Y278496D01*
X894369Y277538D01*
X892385Y276015D01*
X890862Y274031D01*
X889904Y271720D01*
X889578Y269240D01*
X889700Y268312D01*
X888497Y267718D01*
X838261Y317955D01*
X839092Y319959D01*
X839269Y321310D01*
X829310D01*
X819351D01*
X819528Y319959D01*
X820540Y317517D01*
X822149Y315419D01*
X824247Y313810D01*
X825617Y313243D01*
X825364Y311973D01*
X795478D01*
X794992Y313146D01*
X812035Y330189D01*
X820893D01*
X821519Y328919D01*
D02*
G37*
G36*
X980371Y200213D02*
X980281Y199995D01*
X979520Y199040D01*
X978820D01*
Y199040D01*
X966820D01*
Y196099D01*
X956676D01*
X955505Y195866D01*
X954513Y195203D01*
X954084Y194774D01*
X953425Y194839D01*
X952620Y195106D01*
X908111Y239614D01*
X908942Y241619D01*
X909119Y242970D01*
X899160D01*
Y245510D01*
X909119D01*
X908942Y246861D01*
X907930Y249303D01*
X906321Y251400D01*
X904223Y253010D01*
X901953Y253950D01*
X901323Y254893D01*
X901323Y254893D01*
X897638Y258577D01*
X898232Y259780D01*
X899160Y259658D01*
X901640Y259984D01*
X903951Y260942D01*
X905935Y262465D01*
X907458Y264449D01*
X908416Y266760D01*
X908742Y269240D01*
X908620Y270168D01*
X909823Y270762D01*
X980371Y200213D01*
D02*
G37*
G36*
X813685Y254885D02*
X813685Y254885D01*
X814677Y254222D01*
X815848Y253989D01*
X819810D01*
Y240864D01*
X818637Y240378D01*
X798026Y260989D01*
X797858Y261101D01*
X798243Y262371D01*
X806199D01*
X813685Y254885D01*
D02*
G37*
G36*
X663183Y359851D02*
Y304024D01*
X663183Y304024D01*
X663416Y302854D01*
X664079Y301861D01*
X671344Y294597D01*
X671047Y293102D01*
X671512Y290761D01*
X672838Y288776D01*
X674823Y287450D01*
X677164Y286985D01*
X679505Y287450D01*
X681490Y288776D01*
X682816Y290761D01*
X683281Y293102D01*
X682816Y295443D01*
X681490Y297428D01*
X679505Y298754D01*
X677164Y299220D01*
X675669Y298923D01*
X669301Y305291D01*
Y355382D01*
X670571Y355840D01*
X672337Y354485D01*
X674321Y353663D01*
Y330796D01*
X674321Y330796D01*
X674554Y329625D01*
X675217Y328633D01*
X686584Y317266D01*
X686286Y315772D01*
X686752Y313431D01*
X688078Y311446D01*
X690063Y310120D01*
X692404Y309654D01*
X692504Y309674D01*
X693102Y308554D01*
X686431Y301883D01*
X685768Y300891D01*
X685535Y299720D01*
X685535Y299720D01*
Y291176D01*
X684268Y290330D01*
X682942Y288345D01*
X682477Y286004D01*
X682942Y283663D01*
X684268Y281678D01*
X686253Y280352D01*
X688594Y279886D01*
X690935Y280352D01*
X692920Y281678D01*
X694246Y283663D01*
X694712Y286004D01*
X694246Y288345D01*
X692920Y290330D01*
X691653Y291176D01*
Y298453D01*
X699856Y306656D01*
X701029Y306170D01*
Y283207D01*
X689613Y271791D01*
X680974D01*
X679803Y271558D01*
X678811Y270895D01*
X646226Y238309D01*
X644731Y238607D01*
X642390Y238141D01*
X640406Y236815D01*
X639079Y234830D01*
X638614Y232489D01*
X639079Y230148D01*
X640406Y228164D01*
X642390Y226837D01*
X644268Y226464D01*
X644787Y225186D01*
X637917Y218317D01*
X637254Y217325D01*
X637165Y216877D01*
X635824Y216643D01*
X634512Y218352D01*
X632423Y219955D01*
X630439Y220777D01*
Y292357D01*
X659769Y321687D01*
X660432Y322679D01*
X660665Y323850D01*
Y346964D01*
X660432Y348135D01*
X659769Y349127D01*
X659769Y349127D01*
X656101Y352794D01*
X656349Y354040D01*
X657423Y354485D01*
X659512Y356088D01*
X661115Y358177D01*
X661913Y360104D01*
X663183Y359851D01*
D02*
G37*
G36*
X1045890Y452790D02*
X1063083D01*
X1063569Y451617D01*
X1052445Y440492D01*
X1051782Y439500D01*
X1051549Y438329D01*
X1051549Y438329D01*
Y261363D01*
X1045213Y255027D01*
X1022096D01*
X1020925Y254794D01*
X1019933Y254131D01*
X1019933Y254131D01*
X1000375Y234573D01*
X999712Y233580D01*
X999479Y232410D01*
X999479Y232410D01*
Y219456D01*
X999479Y219456D01*
X999712Y218286D01*
X1000375Y217293D01*
X1005115Y212554D01*
X1005514Y211504D01*
X1005201Y210771D01*
X1004252Y209351D01*
X1003786Y207010D01*
X1004252Y204669D01*
X1005578Y202684D01*
X1007563Y201358D01*
X1007861Y201299D01*
Y199040D01*
X1004920D01*
Y199040D01*
X1004220D01*
Y199040D01*
X1001279D01*
Y205232D01*
X1001046Y206402D01*
X1000383Y207395D01*
X1000383Y207395D01*
X994134Y213643D01*
X994432Y215138D01*
X993966Y217479D01*
X992640Y219464D01*
X990655Y220790D01*
X988314Y221255D01*
X985973Y220790D01*
X983988Y219464D01*
X982662Y217479D01*
X982197Y215138D01*
X982662Y212797D01*
X983988Y210812D01*
X985973Y209486D01*
X988314Y209021D01*
X989809Y209318D01*
X995161Y203965D01*
Y199040D01*
X992220D01*
Y199040D01*
X991520D01*
Y199040D01*
X989756D01*
X988579Y199390D01*
X988346Y200560D01*
X987683Y201553D01*
X913656Y275579D01*
X914183Y276849D01*
X967482D01*
X968050Y275579D01*
X966862Y274031D01*
X965904Y271720D01*
X965578Y269240D01*
X965904Y266760D01*
X966862Y264449D01*
X968384Y262465D01*
X970369Y260942D01*
X972680Y259984D01*
X975160Y259658D01*
X977640Y259984D01*
X979951Y260942D01*
X981935Y262465D01*
X983458Y264449D01*
X984415Y266760D01*
X984742Y269240D01*
X984415Y271720D01*
X983458Y274031D01*
X982491Y275291D01*
X983448Y276130D01*
X983611Y275967D01*
X984604Y275304D01*
X985774Y275071D01*
X985774Y275071D01*
X1016470D01*
Y272130D01*
X1028470D01*
Y279804D01*
X1030297Y281631D01*
X1031470Y281145D01*
Y272130D01*
X1036999D01*
X1037590Y272013D01*
X1038181Y272130D01*
X1043470D01*
Y276936D01*
X1043708Y278130D01*
X1043470Y279324D01*
Y284130D01*
X1043470D01*
Y284830D01*
X1043470D01*
Y289636D01*
X1043708Y290830D01*
X1043470Y292024D01*
Y296830D01*
X1041865D01*
X1041740Y298100D01*
X1042063Y298164D01*
X1043055Y298827D01*
X1046865Y302637D01*
X1047528Y303629D01*
X1047761Y304800D01*
X1047761Y304800D01*
Y438912D01*
X1047761Y438912D01*
X1047528Y440083D01*
X1046865Y441075D01*
X1037593Y450347D01*
X1038011Y451725D01*
X1039677Y452056D01*
X1041662Y453382D01*
X1042988Y455367D01*
X1043259Y456731D01*
X1045890D01*
Y452790D01*
D02*
G37*
G36*
X706871Y278601D02*
Y276352D01*
X706871Y276352D01*
X707104Y275182D01*
X707767Y274189D01*
X718689Y263267D01*
X718857Y263155D01*
X718472Y261885D01*
X682752D01*
X682752Y261885D01*
X681581Y261652D01*
X680589Y260989D01*
X680589Y260989D01*
X652034Y232434D01*
X650944Y232876D01*
X650693Y234125D01*
X682241Y265673D01*
X690880D01*
X690880Y265673D01*
X692050Y265906D01*
X693043Y266569D01*
X705601Y279128D01*
X706871Y278601D01*
D02*
G37*
G36*
X721051Y312102D02*
X723392Y311637D01*
X724886Y311934D01*
X753741Y283079D01*
X753741Y283079D01*
X754733Y282416D01*
X755904Y282183D01*
X805088D01*
X805934Y280916D01*
X807919Y279590D01*
X810260Y279125D01*
X812601Y279590D01*
X814586Y280916D01*
X815912Y282901D01*
X816377Y285242D01*
X815912Y287583D01*
X814586Y289568D01*
X812601Y290894D01*
X810260Y291360D01*
X807919Y290894D01*
X805934Y289568D01*
X805088Y288301D01*
X757171D01*
X740790Y304682D01*
X741276Y305855D01*
X822924D01*
X823355Y304585D01*
X822535Y303955D01*
X821012Y301971D01*
X820054Y299660D01*
X819728Y297180D01*
X820054Y294700D01*
X821012Y292389D01*
X822535Y290404D01*
X824519Y288882D01*
X826830Y287924D01*
X829310Y287598D01*
X831790Y287924D01*
X834101Y288882D01*
X836085Y290404D01*
X837608Y292389D01*
X838566Y294700D01*
X838892Y297180D01*
X838731Y298401D01*
X839934Y298994D01*
X883436Y255492D01*
Y240504D01*
X883436Y240504D01*
X883494Y240208D01*
X882521Y238938D01*
X838810D01*
Y253989D01*
X851919D01*
X854986Y250923D01*
X854688Y249428D01*
X855154Y247087D01*
X856480Y245102D01*
X858465Y243776D01*
X860806Y243311D01*
X863147Y243776D01*
X865132Y245102D01*
X866458Y247087D01*
X866924Y249428D01*
X866458Y251769D01*
X865132Y253754D01*
X863147Y255080D01*
X860806Y255546D01*
X859312Y255248D01*
X855349Y259211D01*
X854357Y259874D01*
X853186Y260107D01*
X853186Y260107D01*
X817115D01*
X809771Y267451D01*
X809863Y268034D01*
X810226Y268721D01*
X820294D01*
X821012Y266989D01*
X822535Y265005D01*
X824519Y263482D01*
X826830Y262525D01*
X829310Y262198D01*
X831790Y262525D01*
X834101Y263482D01*
X836085Y265005D01*
X837608Y266989D01*
X838566Y269300D01*
X838892Y271780D01*
X838566Y274260D01*
X837608Y276571D01*
X836085Y278555D01*
X834101Y280078D01*
X831790Y281035D01*
X829310Y281362D01*
X826830Y281035D01*
X824519Y280078D01*
X822535Y278555D01*
X821012Y276571D01*
X820294Y274839D01*
X729499D01*
X718591Y285747D01*
Y312218D01*
X719861Y312897D01*
X721051Y312102D01*
D02*
G37*
G36*
X577649Y507593D02*
X576770Y506277D01*
X576305Y503936D01*
X576602Y502441D01*
X575489Y501329D01*
X521426D01*
X520940Y502502D01*
X527301Y508863D01*
X576971D01*
X577649Y507593D01*
D02*
G37*
G36*
X557279Y560351D02*
X556958Y559871D01*
X556493Y557530D01*
X556958Y555189D01*
X558284Y553204D01*
X559551Y552358D01*
Y536448D01*
X559551Y536448D01*
X559784Y535277D01*
X560447Y534285D01*
X577973Y516759D01*
X577973Y516759D01*
X578734Y516250D01*
X578579Y515121D01*
X578523Y514981D01*
X526034D01*
X524864Y514748D01*
X523871Y514085D01*
X515914Y506127D01*
X514922Y506929D01*
X515387Y509270D01*
X514922Y511611D01*
X513596Y513596D01*
X511611Y514922D01*
X510960Y515051D01*
Y518740D01*
X516650D01*
Y529280D01*
X517920D01*
Y530550D01*
X527460D01*
Y539820D01*
X520979D01*
Y546371D01*
X536079Y561471D01*
X556680D01*
X557279Y560351D01*
D02*
G37*
G36*
X669650Y562690D02*
X675552D01*
X678557Y559685D01*
X678557Y559685D01*
X679549Y559022D01*
X680720Y558789D01*
X680720Y558789D01*
X704599D01*
X737231Y526157D01*
X738223Y525494D01*
X739394Y525261D01*
X739394Y525261D01*
X781293D01*
Y499512D01*
X780430Y498600D01*
X766430D01*
Y486421D01*
X753224D01*
X753099Y487691D01*
X753939Y487858D01*
X755924Y489184D01*
X757250Y491169D01*
X757716Y493510D01*
X757250Y495851D01*
X755924Y497836D01*
X753939Y499162D01*
X751598Y499627D01*
X750104Y499330D01*
X707368Y542066D01*
X707665Y543560D01*
X707200Y545901D01*
X705874Y547886D01*
X703889Y549212D01*
X701548Y549678D01*
X699207Y549212D01*
X697222Y547886D01*
X695896Y545901D01*
X695630Y544564D01*
X694234Y543560D01*
X694182Y543571D01*
X694182Y543571D01*
X676402D01*
X675231Y543338D01*
X674239Y542675D01*
X667515Y535951D01*
X642678D01*
X642110Y537221D01*
X643298Y538769D01*
X644256Y541080D01*
X644582Y543560D01*
X644256Y546040D01*
X643298Y548351D01*
X641775Y550335D01*
X639791Y551858D01*
X637480Y552816D01*
X635000Y553142D01*
X632520Y552816D01*
X630209Y551858D01*
X628224Y550335D01*
X626702Y548351D01*
X625745Y546040D01*
X625418Y543560D01*
X625745Y541080D01*
X626702Y538769D01*
X627890Y537221D01*
X627322Y535951D01*
X621535D01*
X618138Y539348D01*
X618856Y541080D01*
X619182Y543560D01*
X618856Y546040D01*
X617898Y548351D01*
X616375Y550335D01*
X614391Y551858D01*
X612080Y552816D01*
X609600Y553142D01*
X607120Y552816D01*
X604809Y551858D01*
X602825Y550335D01*
X601302Y548351D01*
X600345Y546040D01*
X600018Y543560D01*
X600345Y541080D01*
X601302Y538769D01*
X602825Y536785D01*
X604809Y535262D01*
X607120Y534305D01*
X609600Y533978D01*
X612080Y534305D01*
X613812Y535022D01*
X618105Y530729D01*
X618105Y530729D01*
X619098Y530066D01*
X620268Y529833D01*
X620268Y529833D01*
X668782D01*
X668782Y529833D01*
X669952Y530066D01*
X670945Y530729D01*
X674725Y534509D01*
X675895Y533884D01*
X675698Y532892D01*
X675995Y531398D01*
X659578Y514981D01*
X648042D01*
X647443Y516101D01*
X647764Y516581D01*
X648230Y518922D01*
X647764Y521263D01*
X646438Y523248D01*
X644453Y524574D01*
X642112Y525039D01*
X639771Y524574D01*
X637786Y523248D01*
X636940Y521981D01*
X581403D01*
X565669Y537715D01*
Y552358D01*
X566936Y553204D01*
X568262Y555189D01*
X568727Y557530D01*
X568718Y557575D01*
X569670Y558642D01*
X569795Y558675D01*
X612008D01*
X612008Y558675D01*
X613178Y558908D01*
X614171Y559571D01*
X617290Y562690D01*
X623210D01*
Y567171D01*
X669650D01*
Y562690D01*
D02*
G37*
G36*
X932423Y494027D02*
X913560Y475163D01*
X912181Y475581D01*
X912146Y475760D01*
X911483Y476753D01*
X911483Y476753D01*
X906270Y481966D01*
Y490216D01*
X907390Y490814D01*
X907995Y490410D01*
X910336Y489944D01*
X912677Y490410D01*
X914662Y491736D01*
X915508Y493003D01*
X916312D01*
X916312Y493003D01*
X917483Y493236D01*
X918475Y493899D01*
X926696Y502120D01*
X932423D01*
Y494027D01*
D02*
G37*
G36*
X484501Y615565D02*
X484501Y615565D01*
X485494Y614902D01*
X486664Y614669D01*
X503936D01*
X503936Y614669D01*
X505107Y614902D01*
X506099Y615565D01*
X507207Y616673D01*
X508380Y616187D01*
Y610740D01*
X514861D01*
Y547638D01*
X514861Y547638D01*
X514861Y547638D01*
Y539820D01*
X508380D01*
Y538999D01*
X475476D01*
X475476Y538999D01*
X474305Y538766D01*
X473313Y538103D01*
X469757Y534547D01*
X469271Y533820D01*
X465880D01*
Y533280D01*
X464069D01*
Y540512D01*
X463836Y541683D01*
X463173Y542675D01*
X463173Y542675D01*
X458601Y547247D01*
X457608Y547910D01*
X456438Y548143D01*
X456438Y548143D01*
X445100D01*
X444254Y549410D01*
X442269Y550736D01*
X439928Y551202D01*
X437587Y550736D01*
X437099Y550410D01*
X435979Y551008D01*
Y616057D01*
X451387Y631466D01*
X452882Y631169D01*
X455223Y631634D01*
X457208Y632960D01*
X458534Y634945D01*
X458999Y637286D01*
X458534Y639627D01*
X458314Y639956D01*
X459300Y640766D01*
X484501Y615565D01*
D02*
G37*
G36*
X946641Y559565D02*
Y539608D01*
X945371Y538929D01*
X944427Y539560D01*
X942086Y540025D01*
X939745Y539560D01*
X939265Y539239D01*
X938145Y539838D01*
Y560212D01*
X938145Y560212D01*
X937912Y561383D01*
X937249Y562375D01*
X937249Y562375D01*
X934851Y564773D01*
X933858Y565436D01*
X932688Y565669D01*
X932688Y565669D01*
X868518D01*
X867672Y566936D01*
X866702Y567584D01*
X867087Y568854D01*
X937352D01*
X946641Y559565D01*
D02*
G37*
G36*
X733574Y496795D02*
X733277Y495300D01*
X733742Y492959D01*
X735068Y490974D01*
X737053Y489648D01*
X739394Y489183D01*
X741735Y489648D01*
X743720Y490974D01*
X744467Y492093D01*
X745816Y491825D01*
X745946Y491169D01*
X747272Y489184D01*
X749257Y487858D01*
X750098Y487691D01*
X749972Y486421D01*
X728360D01*
Y498600D01*
X714360D01*
Y494159D01*
X678431D01*
X674856Y497733D01*
X675154Y499228D01*
X674688Y501569D01*
X673362Y503554D01*
X671377Y504880D01*
X669036Y505345D01*
X666695Y504880D01*
X664710Y503554D01*
X663384Y501569D01*
X662918Y499228D01*
X663384Y496887D01*
X664358Y495429D01*
X663711Y494159D01*
X657739D01*
X644783Y507115D01*
X644067Y507593D01*
X644350Y508863D01*
X660845D01*
X660845Y508863D01*
X662016Y509096D01*
X663008Y509759D01*
X680321Y527072D01*
X681816Y526774D01*
X684157Y527240D01*
X686142Y528566D01*
X687468Y530551D01*
X687933Y532892D01*
X687468Y535233D01*
X686833Y536183D01*
X687512Y537453D01*
X692915D01*
X733574Y496795D01*
D02*
G37*
G36*
X859990Y567584D02*
X859020Y566936D01*
X857694Y564951D01*
X857228Y562610D01*
X857694Y560269D01*
X859020Y558284D01*
X861005Y556958D01*
X863346Y556493D01*
X865687Y556958D01*
X867672Y558284D01*
X868518Y559551D01*
X872880D01*
Y553290D01*
X887260D01*
Y559551D01*
X896320D01*
Y543470D01*
X899911D01*
Y538359D01*
X896607Y535055D01*
X895944Y534062D01*
X895711Y532892D01*
X895711Y532892D01*
Y525160D01*
X891270D01*
Y512535D01*
X890000Y511891D01*
X889810Y512030D01*
Y516890D01*
X881770D01*
X873730D01*
Y510805D01*
X867661D01*
X866750Y511716D01*
Y526390D01*
X847750D01*
Y507390D01*
X862424D01*
X864231Y505583D01*
X865223Y504920D01*
X866141Y503443D01*
X866140Y503439D01*
X864969Y503206D01*
X863977Y502543D01*
X863977Y502543D01*
X861462Y500028D01*
X859730Y500746D01*
X857250Y501072D01*
X854770Y500746D01*
X852459Y499788D01*
X850474Y498265D01*
X848952Y496281D01*
X847995Y493970D01*
X847668Y491490D01*
X847995Y489010D01*
X848712Y487278D01*
X799849Y438415D01*
X787397D01*
X785958Y439854D01*
X786172Y440299D01*
X786707Y440901D01*
X787654Y440713D01*
X787654Y440713D01*
X794545D01*
X794546Y440713D01*
X795716Y440946D01*
X796708Y441609D01*
X807089Y451989D01*
X807089Y451989D01*
X807752Y452981D01*
X807985Y454152D01*
X807985Y454152D01*
Y517915D01*
X831039Y540969D01*
X878711D01*
Y534776D01*
X878472Y534677D01*
X877106Y533629D01*
X876058Y532262D01*
X875398Y530671D01*
X875341Y530234D01*
X888199D01*
X888142Y530671D01*
X887483Y532262D01*
X886434Y533629D01*
X885068Y534677D01*
X884829Y534776D01*
Y542328D01*
X885960Y542930D01*
X887260D01*
Y550750D01*
X872880D01*
Y547087D01*
X833159D01*
X832673Y548260D01*
X853267Y568854D01*
X859605D01*
X859990Y567584D01*
D02*
G37*
G36*
X919220Y543470D02*
X921904D01*
X922430Y542200D01*
X912338Y532108D01*
X910844Y532406D01*
X908503Y531940D01*
X906518Y530614D01*
X905192Y528629D01*
X904726Y526288D01*
X904756Y526142D01*
X903950Y525160D01*
X901829D01*
Y531625D01*
X905133Y534929D01*
X905133Y534929D01*
X905796Y535922D01*
X906029Y537092D01*
Y543470D01*
X909620D01*
Y559551D01*
X919220D01*
Y543470D01*
D02*
G37*
G36*
X672416Y637372D02*
X650243Y615199D01*
X625570D01*
Y623030D01*
X572881D01*
X572395Y624203D01*
X586737Y638545D01*
X671930D01*
X672416Y637372D01*
D02*
G37*
G36*
X570770Y620919D02*
Y601250D01*
X592333D01*
X593012Y599980D01*
X592518Y599241D01*
X592052Y596900D01*
X592518Y594559D01*
X593844Y592574D01*
X595111Y591728D01*
Y577230D01*
X590670D01*
Y564793D01*
X580084D01*
X579742Y566063D01*
X580962Y567889D01*
X581427Y570230D01*
X580962Y572571D01*
X579636Y574556D01*
X577651Y575882D01*
X575310Y576348D01*
X573815Y576050D01*
X568717Y581149D01*
Y620525D01*
X569597Y621405D01*
X570770Y620919D01*
D02*
G37*
G36*
X932027Y529120D02*
X922370D01*
Y521446D01*
X921334Y520410D01*
X920805Y520764D01*
X918464Y521230D01*
X916123Y520764D01*
X914138Y519438D01*
X912812Y517453D01*
X912346Y515112D01*
X912812Y512771D01*
X914138Y510786D01*
X916123Y509460D01*
X918464Y508994D01*
X920805Y509460D01*
X921250Y509757D01*
X922370Y509159D01*
Y506446D01*
X916031Y500106D01*
X914767Y500231D01*
X914662Y500388D01*
X912677Y501714D01*
X910336Y502179D01*
X907995Y501714D01*
X906010Y500388D01*
X904684Y498403D01*
X904219Y496062D01*
X904684Y493721D01*
X904992Y493260D01*
X904393Y492140D01*
X901829D01*
Y511160D01*
X906270D01*
Y520601D01*
X907540Y521280D01*
X908503Y520636D01*
X910844Y520171D01*
X913185Y520636D01*
X915170Y521962D01*
X916496Y523947D01*
X916962Y526288D01*
X916664Y527783D01*
X928033Y539151D01*
X928033Y539151D01*
X928696Y540144D01*
X928929Y541314D01*
Y543470D01*
X932027D01*
Y529120D01*
D02*
G37*
G36*
X403428Y535182D02*
X403428Y535182D01*
X404421Y534519D01*
X405591Y534286D01*
X410783D01*
X411420Y533280D01*
Y513280D01*
X416860D01*
X425573Y504567D01*
X425573Y504567D01*
X426565Y503904D01*
X427736Y503671D01*
X458913D01*
X466477Y496107D01*
X466477Y496107D01*
X467470Y495444D01*
X468640Y495211D01*
X494677D01*
X495203Y493941D01*
X468092Y466830D01*
X466598Y467127D01*
X464257Y466662D01*
X462272Y465336D01*
X460946Y463351D01*
X460480Y461010D01*
X460946Y458669D01*
X462189Y456809D01*
X461203Y455999D01*
X444631Y472571D01*
X443638Y473234D01*
X442468Y473467D01*
X442468Y473467D01*
X390144D01*
X390144Y473467D01*
X388974Y473234D01*
X387981Y472571D01*
X387981Y472571D01*
X369498Y454087D01*
X368430Y453570D01*
Y453570D01*
X368430Y453570D01*
X341430D01*
Y446144D01*
X340160Y445224D01*
X338582Y445537D01*
X336241Y445072D01*
X334256Y443746D01*
X332930Y441761D01*
X332464Y439420D01*
X332930Y437079D01*
X334256Y435094D01*
X336241Y433768D01*
X338582Y433302D01*
X340160Y433616D01*
X341430Y432696D01*
Y430110D01*
X340890D01*
Y428129D01*
X329307D01*
X324369Y433067D01*
Y448941D01*
X325508Y449503D01*
X325652Y449392D01*
X327233Y448737D01*
X328930Y448514D01*
X330627Y448737D01*
X332208Y449392D01*
X333566Y450434D01*
X334608Y451792D01*
X335263Y453373D01*
X335486Y455070D01*
X335263Y456767D01*
X334608Y458348D01*
X333566Y459706D01*
X332208Y460748D01*
X330627Y461403D01*
X328930Y461626D01*
X327233Y461403D01*
X325652Y460748D01*
X325508Y460637D01*
X324369Y461199D01*
Y474983D01*
X338160Y488774D01*
X339430Y488248D01*
Y465570D01*
X368430D01*
Y489570D01*
X340752D01*
X340226Y490840D01*
X363083Y513697D01*
X363083Y513697D01*
X363746Y514689D01*
X363979Y515860D01*
Y518740D01*
X368650D01*
Y528280D01*
X369920D01*
Y529550D01*
X381460D01*
Y537820D01*
X370068D01*
X369943Y539090D01*
X370387Y539178D01*
X372372Y540504D01*
X373218Y541771D01*
X396839D01*
X403428Y535182D01*
D02*
G37*
G36*
X667290Y621798D02*
Y601250D01*
X691631D01*
Y585668D01*
X690361Y584670D01*
X690118Y584719D01*
X690118Y584719D01*
X660102D01*
X659256Y585986D01*
X657271Y587312D01*
X654930Y587777D01*
X652589Y587312D01*
X650604Y585986D01*
X649278Y584001D01*
X648812Y581660D01*
X649278Y579319D01*
X650604Y577334D01*
X652589Y576008D01*
X654930Y575542D01*
X657271Y576008D01*
X659256Y577334D01*
X660102Y578601D01*
X668724D01*
X669650Y577770D01*
Y573289D01*
X623210D01*
Y577770D01*
X616440D01*
Y570230D01*
X615170D01*
Y568960D01*
X607130D01*
Y564793D01*
X605670D01*
Y577230D01*
X601229D01*
Y591728D01*
X602496Y592574D01*
X603822Y594559D01*
X604287Y596900D01*
X603822Y599241D01*
X603328Y599980D01*
X604007Y601250D01*
X625570D01*
Y609081D01*
X651510D01*
X651510Y609081D01*
X652681Y609314D01*
X653673Y609977D01*
X666020Y622324D01*
X667290Y621798D01*
D02*
G37*
G36*
X878711Y494541D02*
Y492140D01*
X874270D01*
Y478170D01*
X874270Y478140D01*
Y476900D01*
X874270Y476870D01*
Y472959D01*
X871220D01*
X871220Y472959D01*
X870050Y472726D01*
X869057Y472063D01*
X867038Y470044D01*
X865792Y470291D01*
X865548Y470881D01*
X864025Y472865D01*
X862041Y474388D01*
X859730Y475345D01*
X857250Y475672D01*
X854770Y475345D01*
X852459Y474388D01*
X850474Y472865D01*
X848952Y470881D01*
X847995Y468570D01*
X847799Y467085D01*
X846478Y466777D01*
X845574Y468130D01*
X843589Y469456D01*
X841711Y469829D01*
X841193Y471107D01*
X853038Y482952D01*
X854770Y482234D01*
X857250Y481908D01*
X859730Y482234D01*
X862041Y483192D01*
X864025Y484715D01*
X865548Y486699D01*
X866506Y489010D01*
X866832Y491490D01*
X866506Y493970D01*
X865788Y495702D01*
X867407Y497321D01*
X875931D01*
X878711Y494541D01*
D02*
G37*
G36*
X894452Y504687D02*
X895711Y503643D01*
Y492140D01*
X891270D01*
Y478486D01*
X890730Y477440D01*
X890730D01*
X890730Y477440D01*
Y471170D01*
X898770D01*
Y468630D01*
X890730D01*
Y462360D01*
X894573D01*
X895099Y461090D01*
X883566Y449557D01*
X882350Y449925D01*
X882206Y450651D01*
X880880Y452636D01*
X878895Y453962D01*
X876554Y454427D01*
X875060Y454130D01*
X873637Y455553D01*
X872645Y456216D01*
X871875Y456369D01*
X871875Y457664D01*
X873053Y457898D01*
X875038Y459224D01*
X876364Y461209D01*
X876700Y462900D01*
X889270D01*
Y476870D01*
X889270Y476900D01*
Y478140D01*
X889270Y478170D01*
Y492140D01*
X884829D01*
Y495808D01*
X884596Y496979D01*
X883933Y497971D01*
X883933Y497971D01*
X879361Y502543D01*
X878369Y503206D01*
X877198Y503439D01*
X877198Y503439D01*
X877250Y504687D01*
X894452D01*
X894452Y504687D01*
D02*
G37*
G36*
X714360Y483600D02*
X717811D01*
X717955Y483410D01*
X717323Y482140D01*
X713820D01*
Y475370D01*
X721360D01*
Y474100D01*
X722630D01*
Y466060D01*
X728900D01*
Y468905D01*
X730073Y469391D01*
X736589Y462875D01*
Y457369D01*
X735319Y456983D01*
X734830Y457716D01*
X732845Y459042D01*
X730504Y459507D01*
X729009Y459210D01*
X724539Y463681D01*
X723547Y464344D01*
X722376Y464577D01*
X722376Y464577D01*
X698497D01*
X676206Y486868D01*
X676692Y488041D01*
X714360D01*
Y483600D01*
D02*
G37*
G36*
X1063132Y468060D02*
X1062453Y466790D01*
X1045890D01*
Y462849D01*
X1040442D01*
X1039677Y463360D01*
X1037336Y463825D01*
X1034995Y463360D01*
X1034230Y462849D01*
X1003890D01*
Y466790D01*
X982890D01*
Y462849D01*
X959958D01*
X959112Y464115D01*
X957127Y465442D01*
X954786Y465907D01*
X952445Y465442D01*
X950460Y464115D01*
X949134Y462131D01*
X948669Y459790D01*
X949134Y457449D01*
X950460Y455464D01*
X952028Y454417D01*
X951642Y453147D01*
X930656D01*
X930656Y453147D01*
X929485Y452914D01*
X928493Y452251D01*
X928493Y452251D01*
X926760Y450518D01*
X925587Y451004D01*
Y454409D01*
X939289Y468111D01*
X1063098D01*
X1063132Y468060D01*
D02*
G37*
G36*
X835740Y628260D02*
X843280D01*
X850820D01*
Y632582D01*
X851993Y633068D01*
X852921Y632140D01*
Y603310D01*
X851326Y601714D01*
X850228Y601975D01*
X850280Y602490D01*
X850280D01*
Y617490D01*
X836280D01*
Y602490D01*
X836521D01*
X837466Y601220D01*
X837162Y599694D01*
X837628Y597353D01*
X838954Y595368D01*
X840939Y594042D01*
X841882Y593855D01*
X842251Y592639D01*
X838862Y589251D01*
X838199Y588259D01*
X837966Y587088D01*
X837966Y587088D01*
Y577314D01*
X814358Y553706D01*
X813188Y554332D01*
X813319Y554990D01*
X813319Y554990D01*
Y570951D01*
X814589Y571337D01*
X814824Y570984D01*
X816809Y569658D01*
X819150Y569193D01*
X821491Y569658D01*
X823476Y570984D01*
X824802Y572969D01*
X825267Y575310D01*
X824802Y577651D01*
X823476Y579636D01*
X822209Y580482D01*
Y623493D01*
X823242Y625039D01*
X823708Y627380D01*
X823242Y629721D01*
X821916Y631706D01*
X819931Y633032D01*
X818708Y633275D01*
X818833Y634545D01*
X835740D01*
Y628260D01*
D02*
G37*
G36*
X816472Y633275D02*
X815249Y633032D01*
X813264Y631706D01*
X811938Y629721D01*
X811472Y627380D01*
X811938Y625039D01*
X813264Y623054D01*
X815249Y621728D01*
X816091Y621561D01*
Y580482D01*
X814824Y579636D01*
X814589Y579283D01*
X813319Y579669D01*
Y580390D01*
X813086Y581561D01*
X812423Y582553D01*
X812423Y582553D01*
X802020Y592956D01*
Y596060D01*
X793750D01*
Y588790D01*
X797534D01*
X803841Y582484D01*
X803215Y581313D01*
X802640Y581427D01*
X800299Y580962D01*
X800192Y580891D01*
X800100Y580909D01*
X800100Y580909D01*
X751932D01*
X751086Y582176D01*
X749101Y583502D01*
X746760Y583968D01*
X744419Y583502D01*
X742434Y582176D01*
X741108Y580191D01*
X740642Y577850D01*
X741108Y575509D01*
X742434Y573524D01*
X744419Y572198D01*
X746760Y571732D01*
X749101Y572198D01*
X751086Y573524D01*
X751932Y574791D01*
X796626D01*
X796988Y572969D01*
X798314Y570984D01*
X800299Y569658D01*
X802640Y569193D01*
X804981Y569658D01*
X805931Y570293D01*
X807201Y569614D01*
Y556257D01*
X782323Y531379D01*
X781118D01*
X780750Y532594D01*
X780804Y532630D01*
X782130Y534615D01*
X782596Y536956D01*
X782130Y539297D01*
X780804Y541282D01*
X778819Y542608D01*
X776478Y543074D01*
X774984Y542776D01*
X767599Y550161D01*
Y554990D01*
X767366Y556161D01*
X766725Y557120D01*
X767446Y558860D01*
X767772Y561340D01*
X767446Y563820D01*
X766488Y566131D01*
X764965Y568115D01*
X762981Y569638D01*
X760670Y570596D01*
X758190Y570922D01*
X755710Y570596D01*
X753399Y569638D01*
X751414Y568115D01*
X749892Y566131D01*
X748934Y563820D01*
X748608Y561340D01*
X748934Y558860D01*
X749892Y556549D01*
X751414Y554565D01*
X753399Y553042D01*
X755710Y552085D01*
X758190Y551758D01*
X760211Y552024D01*
X761481Y551198D01*
Y548894D01*
X761481Y548894D01*
X761714Y547724D01*
X762377Y546731D01*
X770658Y538451D01*
X770360Y536956D01*
X770826Y534615D01*
X772152Y532630D01*
X772206Y532594D01*
X771838Y531379D01*
X740661D01*
X708029Y564011D01*
X707037Y564674D01*
X705866Y564907D01*
X705866Y564907D01*
X702190D01*
Y577230D01*
X697749D01*
Y601250D01*
X718455D01*
X718941Y600077D01*
X708885Y590020D01*
X707390Y590317D01*
X705049Y589852D01*
X703064Y588526D01*
X701738Y586541D01*
X701273Y584200D01*
X701738Y581859D01*
X703064Y579874D01*
X705049Y578548D01*
X707390Y578083D01*
X709731Y578548D01*
X711716Y579874D01*
X713042Y581859D01*
X713508Y584200D01*
X713210Y585695D01*
X726216Y598700D01*
X727710Y598402D01*
X730051Y598868D01*
X732036Y600194D01*
X733362Y602179D01*
X733828Y604520D01*
X733362Y606861D01*
X732437Y608246D01*
X732598Y609881D01*
X733306Y610354D01*
X734152Y611621D01*
X734568D01*
X734568Y611621D01*
X735739Y611854D01*
X736731Y612517D01*
X740485Y616272D01*
X758080D01*
Y612659D01*
X748284D01*
X747113Y612426D01*
X746121Y611763D01*
X746121Y611763D01*
X730627Y596269D01*
X729964Y595276D01*
X729731Y594106D01*
X729731Y594106D01*
Y570840D01*
X723290D01*
Y551840D01*
X742290D01*
Y570840D01*
X735849D01*
Y592839D01*
X749551Y606541D01*
X757939D01*
X758080Y605330D01*
X758080D01*
Y589330D01*
X776080D01*
Y603509D01*
X777200Y604108D01*
X777439Y603948D01*
X779780Y603483D01*
X781670Y603858D01*
X782940Y603084D01*
Y598600D01*
X791210D01*
Y605870D01*
X785851D01*
X785252Y606990D01*
X785432Y607259D01*
X785898Y609600D01*
X785749Y610349D01*
X786554Y611330D01*
X801480D01*
Y627330D01*
X783480D01*
Y626617D01*
X782307Y626131D01*
X776863Y631575D01*
X775871Y632238D01*
X774700Y632471D01*
X774700Y632471D01*
X733812D01*
X732642Y632238D01*
X731650Y631575D01*
X731650Y631575D01*
X722807Y622733D01*
X722090Y623030D01*
Y623030D01*
X668522D01*
X667996Y624300D01*
X678241Y634545D01*
X816347D01*
X816472Y633275D01*
D02*
G37*
G36*
X316230Y647616D02*
X362891D01*
X363183Y647180D01*
X363382Y646346D01*
X358757Y641721D01*
X358094Y640728D01*
X357861Y639558D01*
X357861Y639558D01*
Y637820D01*
X351380D01*
Y625550D01*
X360920D01*
X370460D01*
Y637820D01*
X365304D01*
X364778Y639090D01*
X367027Y641339D01*
X447027D01*
X447626Y640219D01*
X447230Y639627D01*
X446764Y637286D01*
X447062Y635792D01*
X430757Y619487D01*
X430094Y618495D01*
X429861Y617324D01*
X429861Y617324D01*
Y554604D01*
X428591Y553926D01*
X427283Y554800D01*
X424942Y555266D01*
X422601Y554800D01*
X420616Y553474D01*
X419290Y551489D01*
X418969Y549878D01*
X417621Y549609D01*
X417076Y550426D01*
X415091Y551752D01*
X412750Y552217D01*
X410409Y551752D01*
X408424Y550426D01*
X407098Y548441D01*
X406632Y546100D01*
X407098Y543759D01*
X408424Y541774D01*
X408574Y541674D01*
X408189Y540404D01*
X406858D01*
X400269Y546993D01*
X399277Y547656D01*
X398106Y547889D01*
X398106Y547889D01*
X373218D01*
X372372Y549156D01*
X370387Y550482D01*
X368046Y550947D01*
X365705Y550482D01*
X365099Y550077D01*
X363979Y550675D01*
Y554748D01*
X365344Y555796D01*
X366393Y557162D01*
X367052Y558753D01*
X367109Y559190D01*
X354251D01*
X354308Y558753D01*
X354967Y557162D01*
X356016Y555796D01*
X357382Y554748D01*
X357861Y554549D01*
Y528280D01*
Y517127D01*
X319147Y478413D01*
X318484Y477421D01*
X318251Y476250D01*
X318251Y476250D01*
Y431800D01*
X318251Y431800D01*
X318484Y430630D01*
X319147Y429637D01*
X325877Y422907D01*
X326870Y422244D01*
X328040Y422011D01*
X328040Y422011D01*
X340890D01*
Y420129D01*
X340870D01*
X339700Y419896D01*
X338707Y419233D01*
X338707Y419233D01*
X336165Y416691D01*
X335502Y415699D01*
X335434Y415357D01*
X334076Y415041D01*
X333566Y415706D01*
X332208Y416748D01*
X330627Y417403D01*
X328930Y417626D01*
X327233Y417403D01*
X325652Y416748D01*
X324294Y415706D01*
X323252Y414348D01*
X322597Y412767D01*
X322374Y411070D01*
X322597Y409373D01*
X323252Y407792D01*
X324294Y406434D01*
X325652Y405392D01*
X327233Y404737D01*
X328930Y404514D01*
X330627Y404737D01*
X332208Y405392D01*
X333566Y406434D01*
X333999Y406999D01*
X335269Y406568D01*
Y369313D01*
X318385Y352429D01*
X317722Y351437D01*
X317489Y350266D01*
X317489Y350266D01*
Y310896D01*
X317489Y310896D01*
X317489Y310896D01*
Y256032D01*
X317489Y256032D01*
X317722Y254862D01*
X318385Y253869D01*
X329753Y242501D01*
X329298Y241160D01*
X328112Y241004D01*
X326166Y240198D01*
X324494Y238916D01*
X323212Y237245D01*
X322406Y235299D01*
X322131Y233210D01*
X322406Y231122D01*
X323212Y229176D01*
X324494Y227504D01*
X326166Y226222D01*
X328112Y225416D01*
X330200Y225141D01*
X332288Y225416D01*
X334235Y226222D01*
X335906Y227504D01*
X337188Y229176D01*
X337994Y231122D01*
X338150Y232308D01*
X339491Y232763D01*
X341207Y231047D01*
X342199Y230384D01*
X343370Y230151D01*
X343370Y230151D01*
X346302D01*
X346788Y228978D01*
X335109Y217299D01*
X321230D01*
Y222280D01*
X314960D01*
Y214240D01*
Y206200D01*
X321230D01*
Y211181D01*
X336376D01*
X336376Y211181D01*
X337546Y211414D01*
X338539Y212077D01*
X356613Y230151D01*
X365099D01*
X365729Y228631D01*
X367184Y226734D01*
X369081Y225279D01*
X371290Y224364D01*
X373660Y224052D01*
X378930D01*
Y233210D01*
Y242369D01*
X373660D01*
X371290Y242056D01*
X369081Y241141D01*
X367184Y239686D01*
X365729Y237789D01*
X365099Y236269D01*
X355346D01*
X355346Y236269D01*
X355346Y236269D01*
X344637D01*
X323607Y257299D01*
Y269364D01*
X324877Y269990D01*
X325893Y269210D01*
X327971Y268350D01*
X330200Y268056D01*
X332429Y268350D01*
X334507Y269210D01*
X336291Y270579D01*
X336619Y271007D01*
X413261D01*
X422391Y261877D01*
Y196339D01*
X414023Y187971D01*
X409470D01*
Y208510D01*
X380470D01*
Y161510D01*
X409470D01*
Y181853D01*
X415290D01*
X415290Y181853D01*
X416460Y182086D01*
X417453Y182749D01*
X427613Y192909D01*
X427613Y192909D01*
X428276Y193901D01*
X428509Y195072D01*
Y263144D01*
X428509Y263144D01*
X428276Y264314D01*
X427613Y265307D01*
X416691Y276229D01*
X415699Y276892D01*
X414528Y277125D01*
X414528Y277125D01*
X387215D01*
X386589Y278395D01*
X387188Y279175D01*
X387994Y281122D01*
X388269Y283210D01*
X387994Y285298D01*
X387188Y287244D01*
X385906Y288916D01*
X384234Y290198D01*
X382288Y291004D01*
X380200Y291279D01*
X378111Y291004D01*
X376165Y290198D01*
X374494Y288916D01*
X373212Y287244D01*
X372406Y285298D01*
X372131Y283210D01*
X372406Y281122D01*
X373212Y279175D01*
X373811Y278395D01*
X373185Y277125D01*
X338814D01*
Y289750D01*
X338520Y291979D01*
X337660Y294057D01*
X336291Y295841D01*
X334507Y297210D01*
X332429Y298070D01*
X330200Y298364D01*
X327971Y298070D01*
X325893Y297210D01*
X324877Y296430D01*
X323607Y297056D01*
Y309629D01*
X334515Y320537D01*
X425450D01*
X425450Y320537D01*
X426620Y320770D01*
X427613Y321433D01*
X437981Y331801D01*
X438221Y331702D01*
X438658Y331645D01*
Y336804D01*
X433499D01*
X433556Y336367D01*
X433656Y336127D01*
X424183Y326655D01*
X394075D01*
X393449Y327925D01*
X394199Y328903D01*
X395060Y330980D01*
X395354Y333210D01*
X395060Y335439D01*
X394199Y337517D01*
X392831Y339301D01*
X391047Y340670D01*
X388969Y341530D01*
X386740Y341824D01*
X376383D01*
Y376088D01*
X377653Y376474D01*
X378198Y375658D01*
X380183Y374332D01*
X382524Y373867D01*
X384865Y374332D01*
X386850Y375658D01*
X388176Y377643D01*
X388642Y379984D01*
X389050Y380481D01*
X391670D01*
Y376540D01*
X395114D01*
X395562Y376261D01*
X395809Y375136D01*
X394974Y374030D01*
X392940D01*
Y360030D01*
X407940D01*
Y374030D01*
X404496D01*
X404048Y374309D01*
X403801Y375434D01*
X404636Y376540D01*
X406670D01*
Y390540D01*
X395763D01*
X395277Y391713D01*
X399673Y396109D01*
X399673Y396109D01*
X400336Y397101D01*
X400569Y398272D01*
Y438890D01*
X440470D01*
Y466284D01*
X441740Y466810D01*
X516371Y392179D01*
Y371170D01*
X516371Y371170D01*
X516604Y370000D01*
X517267Y369007D01*
X518460Y367815D01*
X517638Y365830D01*
X517294Y363220D01*
X517638Y360610D01*
X518645Y358177D01*
X520248Y356088D01*
X522337Y354485D01*
X524770Y353477D01*
X527380Y353134D01*
X529991Y353477D01*
X532423Y354485D01*
X534151Y355811D01*
X535421Y355316D01*
Y258664D01*
X534154Y257818D01*
X532828Y255833D01*
X532363Y253492D01*
X532828Y251151D01*
X534154Y249166D01*
X536139Y247840D01*
X538480Y247374D01*
X540821Y247840D01*
X542806Y249166D01*
X544132Y251151D01*
X544598Y253492D01*
X544132Y255833D01*
X542806Y257818D01*
X541539Y258664D01*
Y359943D01*
X542809Y360196D01*
X543645Y358177D01*
X545248Y356088D01*
X547337Y354485D01*
X549769Y353477D01*
X552380Y353134D01*
X554990Y353477D01*
X557423Y354485D01*
X559512Y356088D01*
X561115Y358177D01*
X562122Y360610D01*
X562466Y363220D01*
X562122Y365830D01*
X561115Y368263D01*
X559512Y370352D01*
X557423Y371955D01*
X555509Y372748D01*
Y438890D01*
X572550D01*
Y467890D01*
X525550D01*
Y438890D01*
X549391D01*
Y372806D01*
X547337Y371955D01*
X545248Y370352D01*
X543645Y368263D01*
X542809Y366245D01*
X541539Y366497D01*
Y396494D01*
X541306Y397665D01*
X540643Y398657D01*
X540643Y398657D01*
X503185Y436115D01*
Y438890D01*
X523470D01*
Y467890D01*
X479463D01*
X478977Y469063D01*
X499869Y489955D01*
X583946D01*
X583946Y489955D01*
X585117Y490188D01*
X586109Y490851D01*
X597151Y501893D01*
X607234D01*
X607620Y500623D01*
X607071Y500257D01*
X589149Y482335D01*
X588486Y481342D01*
X588253Y480172D01*
X588253Y480172D01*
Y470854D01*
X586983Y470175D01*
X585779Y470980D01*
X583438Y471446D01*
X581944Y471148D01*
X572240Y480852D01*
X572537Y482346D01*
X572072Y484687D01*
X570746Y486672D01*
X568761Y487998D01*
X566420Y488464D01*
X564079Y487998D01*
X562094Y486672D01*
X560768Y484687D01*
X560303Y482346D01*
X560768Y480005D01*
X562094Y478020D01*
X564079Y476694D01*
X566420Y476228D01*
X567915Y476526D01*
X577618Y466823D01*
X577321Y465328D01*
X577786Y462987D01*
X579112Y461002D01*
X581097Y459676D01*
X583438Y459211D01*
X585779Y459676D01*
X586983Y460481D01*
X588253Y459802D01*
Y366420D01*
X586983Y366167D01*
X586115Y368263D01*
X584512Y370352D01*
X582423Y371955D01*
X579991Y372963D01*
X577380Y373306D01*
X574770Y372963D01*
X572337Y371955D01*
X570248Y370352D01*
X568645Y368263D01*
X567637Y365830D01*
X567294Y363220D01*
X567637Y360610D01*
X568645Y358177D01*
X570248Y356088D01*
X572337Y354485D01*
X574770Y353477D01*
X577380Y353134D01*
X579991Y353477D01*
X582423Y354485D01*
X584512Y356088D01*
X586115Y358177D01*
X586983Y360273D01*
X588253Y360020D01*
Y352298D01*
X588253Y352298D01*
X588486Y351128D01*
X589149Y350135D01*
X591809Y347475D01*
Y332753D01*
X590689Y332154D01*
X590097Y332550D01*
X587756Y333016D01*
X585415Y332550D01*
X583430Y331224D01*
X582104Y329239D01*
X581737Y327392D01*
X581638Y326898D01*
X580432Y326455D01*
X579374Y326665D01*
X577033Y326200D01*
X575048Y324874D01*
X573722Y322889D01*
X573256Y320548D01*
X573722Y318207D01*
X575048Y316222D01*
X575568Y315875D01*
X575538Y315670D01*
X574164Y315061D01*
X573079Y315786D01*
X570738Y316252D01*
X568397Y315786D01*
X566412Y314460D01*
X565086Y312475D01*
X564621Y310134D01*
X565086Y307793D01*
X566412Y305808D01*
X567679Y304962D01*
Y255845D01*
X531975Y220140D01*
X529991Y220962D01*
X527380Y221306D01*
X524770Y220962D01*
X522337Y219955D01*
X520457Y218512D01*
X519187Y218860D01*
Y318008D01*
X518954Y319179D01*
X518291Y320171D01*
X518291Y320171D01*
X468879Y369583D01*
X467886Y370246D01*
X466716Y370479D01*
X466716Y370479D01*
X456580D01*
Y374920D01*
X442580D01*
Y359920D01*
X456580D01*
Y364361D01*
X465449D01*
X513069Y316741D01*
Y222968D01*
X512920Y221760D01*
X511799Y221760D01*
X503650D01*
Y211220D01*
X502380D01*
Y209950D01*
X491840D01*
Y200680D01*
X499321D01*
Y186477D01*
X466429Y153585D01*
X465358Y154029D01*
X464490Y154143D01*
Y147320D01*
X471313D01*
X471199Y148188D01*
X470755Y149260D01*
X504543Y183047D01*
X504543Y183047D01*
X505206Y184040D01*
X505439Y185210D01*
X505439Y185210D01*
Y200680D01*
X512920Y200680D01*
X513069Y199472D01*
Y193802D01*
X513069Y193802D01*
X513302Y192631D01*
X513965Y191639D01*
X519807Y185797D01*
X520799Y185134D01*
X521970Y184901D01*
X596903D01*
X607557Y174247D01*
Y156134D01*
X607557Y156134D01*
X607790Y154963D01*
X608453Y153971D01*
X638978Y123446D01*
X638647Y122647D01*
X638384Y120650D01*
X638647Y118653D01*
X639417Y116792D01*
X640644Y115194D01*
X642242Y113968D01*
X644103Y113197D01*
X646100Y112934D01*
X648097Y113197D01*
X649958Y113968D01*
X650483Y114371D01*
X651753Y113745D01*
Y105229D01*
X649309Y102785D01*
X648238Y103229D01*
X647370Y103343D01*
Y96520D01*
X654193D01*
X654079Y97388D01*
X653635Y98460D01*
X656975Y101799D01*
X656975Y101799D01*
X657638Y102792D01*
X657871Y103962D01*
Y137338D01*
X657638Y138508D01*
X656975Y139501D01*
X656975Y139501D01*
X653635Y142840D01*
X654079Y143912D01*
X654193Y144780D01*
X647370D01*
Y137956D01*
X648238Y138071D01*
X649309Y138515D01*
X651753Y136071D01*
Y127555D01*
X650483Y126929D01*
X649958Y127332D01*
X648097Y128103D01*
X646100Y128366D01*
X644103Y128103D01*
X643304Y127772D01*
X613675Y157401D01*
Y175514D01*
X613675Y175514D01*
X613442Y176684D01*
X612779Y177677D01*
X612779Y177677D01*
X611808Y178648D01*
X612294Y179821D01*
X637478D01*
X638450Y179100D01*
X638450Y178551D01*
Y163800D01*
X653750D01*
Y178551D01*
X653750Y179100D01*
X654721Y179821D01*
X659895D01*
X670295Y169421D01*
Y100076D01*
X670295Y100076D01*
X670528Y98905D01*
X671191Y97913D01*
X694187Y74917D01*
X693701Y73744D01*
X316230D01*
X316105Y73719D01*
X311271Y74100D01*
X306434Y75261D01*
X301838Y77164D01*
X297597Y79764D01*
X293814Y82994D01*
X290584Y86777D01*
X287984Y91018D01*
X286081Y95614D01*
X284920Y100451D01*
X284539Y105285D01*
X284564Y105410D01*
Y376570D01*
X313430D01*
Y400570D01*
X284564D01*
Y465570D01*
X313430D01*
Y489570D01*
X284564D01*
Y615950D01*
X284539Y616075D01*
X284920Y620909D01*
X286081Y625746D01*
X287984Y630342D01*
X290584Y634583D01*
X293814Y638366D01*
X297597Y641596D01*
X301838Y644196D01*
X306434Y646099D01*
X311271Y647260D01*
X316105Y647641D01*
X316230Y647616D01*
D02*
G37*
G36*
X652317Y484833D02*
X652317Y484833D01*
X653309Y484170D01*
X654480Y483937D01*
X670485D01*
X673889Y480533D01*
X673880Y480454D01*
X673317Y479309D01*
X661670D01*
X661670Y479309D01*
X660499Y479076D01*
X659507Y478413D01*
X659507Y478413D01*
X654388Y473294D01*
X653725Y472301D01*
X653492Y471131D01*
X653492Y471131D01*
Y468430D01*
X635677D01*
Y485184D01*
X635916Y485284D01*
X637282Y486332D01*
X638331Y487698D01*
X638990Y489289D01*
X639047Y489726D01*
X626189D01*
X626246Y489289D01*
X626905Y487698D01*
X627954Y486332D01*
X629320Y485284D01*
X629559Y485184D01*
Y477851D01*
X628439Y477252D01*
X627943Y477584D01*
X625602Y478050D01*
X623261Y477584D01*
X621276Y476258D01*
X620430Y474991D01*
X611886D01*
X610715Y474758D01*
X609723Y474095D01*
X609723Y474095D01*
X605151Y469523D01*
X604488Y468531D01*
X604255Y467360D01*
X604255Y467360D01*
Y398272D01*
X604255Y398272D01*
X604488Y397102D01*
X605151Y396109D01*
X610351Y390909D01*
Y371245D01*
X609081Y370682D01*
X607423Y371955D01*
X604990Y372963D01*
X602380Y373306D01*
X599769Y372963D01*
X597337Y371955D01*
X595641Y370654D01*
X594371Y371180D01*
Y478905D01*
X610501Y495035D01*
X625987D01*
X626686Y493765D01*
X626246Y492704D01*
X626189Y492266D01*
X639047D01*
X638990Y492704D01*
X638550Y493765D01*
X639249Y495035D01*
X642115D01*
X652317Y484833D01*
D02*
G37*
%LPC*%
G36*
X815086Y420195D02*
Y415036D01*
X820245D01*
X820188Y415473D01*
X819529Y417064D01*
X818480Y418430D01*
X817114Y419479D01*
X815523Y420138D01*
X815086Y420195D01*
D02*
G37*
G36*
X776850Y425450D02*
X770080D01*
Y419180D01*
X776850D01*
Y425450D01*
D02*
G37*
G36*
X975160Y428822D02*
X972680Y428496D01*
X970369Y427538D01*
X968384Y426016D01*
X966862Y424031D01*
X965904Y421720D01*
X965578Y419240D01*
X965904Y416760D01*
X966862Y414449D01*
X968384Y412465D01*
X970369Y410942D01*
X972680Y409985D01*
X975160Y409658D01*
X977640Y409985D01*
X979951Y410942D01*
X981935Y412465D01*
X983458Y414449D01*
X984415Y416760D01*
X984742Y419240D01*
X984415Y421720D01*
X983458Y424031D01*
X981935Y426016D01*
X979951Y427538D01*
X977640Y428496D01*
X975160Y428822D01*
D02*
G37*
G36*
X725500Y179166D02*
X723503Y178903D01*
X721642Y178132D01*
X720044Y176906D01*
X718818Y175308D01*
X718047Y173447D01*
X717784Y171450D01*
X718047Y169453D01*
X718818Y167592D01*
X720044Y165994D01*
X721642Y164768D01*
X723503Y163997D01*
X725500Y163734D01*
X727497Y163997D01*
X729358Y164768D01*
X730956Y165994D01*
X732182Y167592D01*
X732953Y169453D01*
X733216Y171450D01*
X732953Y173447D01*
X732182Y175308D01*
X730956Y176906D01*
X729358Y178132D01*
X727497Y178903D01*
X725500Y179166D01*
D02*
G37*
G36*
X787844Y209950D02*
X777380D01*
X766916D01*
X767112Y208468D01*
X768174Y205904D01*
X769863Y203703D01*
X772065Y202013D01*
X774321Y201078D01*
Y183077D01*
X774181Y182372D01*
X774181Y182372D01*
Y174040D01*
X766700D01*
Y155270D01*
X777240D01*
X787780D01*
Y174040D01*
X780299D01*
Y181807D01*
X780439Y182512D01*
Y201078D01*
X782696Y202013D01*
X784897Y203703D01*
X786587Y205904D01*
X787649Y208468D01*
X787844Y209950D01*
D02*
G37*
G36*
X727380Y221306D02*
X724769Y220962D01*
X722337Y219955D01*
X720248Y218352D01*
X718645Y216263D01*
X717637Y213830D01*
X717293Y211220D01*
X717637Y208609D01*
X718645Y206177D01*
X720248Y204088D01*
X722337Y202485D01*
X724769Y201477D01*
X727380Y201133D01*
X729990Y201477D01*
X732423Y202485D01*
X734512Y204088D01*
X736115Y206177D01*
X737122Y208609D01*
X737466Y211220D01*
X737122Y213830D01*
X736115Y216263D01*
X734512Y218352D01*
X732423Y219955D01*
X729990Y220962D01*
X727380Y221306D01*
D02*
G37*
G36*
X725500Y153766D02*
X723503Y153503D01*
X721642Y152732D01*
X720044Y151506D01*
X718818Y149908D01*
X718047Y148047D01*
X717784Y146050D01*
X718047Y144053D01*
X718818Y142192D01*
X720044Y140594D01*
X721642Y139368D01*
X723503Y138597D01*
X725500Y138334D01*
X727497Y138597D01*
X728297Y138928D01*
X742387Y124837D01*
X743380Y124174D01*
X744550Y123941D01*
X784863D01*
X791587Y117217D01*
X792579Y116554D01*
X793750Y116321D01*
X817100D01*
Y109380D01*
X856100D01*
Y129380D01*
X817100D01*
Y122439D01*
X795017D01*
X788293Y129163D01*
X787300Y129826D01*
X786130Y130059D01*
X786130Y130059D01*
X745817D01*
X732622Y143254D01*
X732953Y144053D01*
X733216Y146050D01*
X732953Y148047D01*
X732182Y149908D01*
X730956Y151506D01*
X729358Y152732D01*
X727497Y153503D01*
X725500Y153766D01*
D02*
G37*
G36*
X787780Y152730D02*
X778510D01*
Y133960D01*
X787780D01*
Y152730D01*
D02*
G37*
G36*
X725500Y128366D02*
X723503Y128103D01*
X721642Y127332D01*
X720044Y126106D01*
X718818Y124508D01*
X718047Y122647D01*
X717784Y120650D01*
X718047Y118653D01*
X718818Y116792D01*
X720044Y115194D01*
X721642Y113968D01*
X723503Y113197D01*
X725500Y112934D01*
X727497Y113197D01*
X729358Y113968D01*
X730956Y115194D01*
X732182Y116792D01*
X732953Y118653D01*
X733216Y120650D01*
X732953Y122647D01*
X732182Y124508D01*
X730956Y126106D01*
X729358Y127332D01*
X727497Y128103D01*
X725500Y128366D01*
D02*
G37*
G36*
X775970Y152730D02*
X766700D01*
Y133960D01*
X775970D01*
Y152730D01*
D02*
G37*
G36*
X921170Y627470D02*
X884770D01*
Y610370D01*
X921170D01*
Y627470D01*
D02*
G37*
G36*
X1002450D02*
X966050D01*
Y610370D01*
X1002450D01*
Y627470D01*
D02*
G37*
G36*
X527460Y637820D02*
X519190D01*
Y625550D01*
X527460D01*
Y637820D01*
D02*
G37*
G36*
X1051560Y127516D02*
X1047247Y127092D01*
X1043100Y125834D01*
X1039278Y123791D01*
X1035928Y121042D01*
X1033179Y117692D01*
X1031136Y113870D01*
X1029878Y109723D01*
X1029454Y105410D01*
X1029878Y101097D01*
X1031136Y96950D01*
X1033179Y93128D01*
X1035928Y89778D01*
X1039278Y87029D01*
X1043100Y84986D01*
X1047247Y83728D01*
X1051560Y83304D01*
X1055873Y83728D01*
X1060020Y84986D01*
X1063842Y87029D01*
X1067192Y89778D01*
X1069941Y93128D01*
X1071984Y96950D01*
X1073242Y101097D01*
X1073666Y105410D01*
X1073242Y109723D01*
X1071984Y113870D01*
X1069941Y117692D01*
X1067192Y121042D01*
X1063842Y123791D01*
X1060020Y125834D01*
X1055873Y127092D01*
X1051560Y127516D01*
D02*
G37*
G36*
X1055370Y547169D02*
X1054019Y546992D01*
X1051577Y545980D01*
X1049479Y544371D01*
X1047870Y542273D01*
X1046858Y539831D01*
X1046681Y538480D01*
X1055370D01*
Y547169D01*
D02*
G37*
G36*
X992120Y496520D02*
X982350D01*
Y490250D01*
X992120D01*
Y496520D01*
D02*
G37*
G36*
X1056640Y537210D02*
D01*
Y535940D01*
X1046681D01*
X1046858Y534589D01*
X1047870Y532147D01*
X1049479Y530049D01*
X1051577Y528440D01*
X1053581Y527610D01*
Y518340D01*
X1053564Y518315D01*
X1053331Y517144D01*
X1053331Y517144D01*
Y505330D01*
X1045350D01*
Y500849D01*
X1004430D01*
Y505330D01*
X994660D01*
Y497790D01*
Y490250D01*
X1004430D01*
Y494731D01*
X1045350D01*
Y490250D01*
X1055120D01*
Y497790D01*
X1056390D01*
Y499060D01*
X1067430D01*
Y505330D01*
X1059449D01*
Y516198D01*
X1059466Y516223D01*
X1059699Y517394D01*
X1059699Y517394D01*
Y527610D01*
X1061703Y528440D01*
X1063801Y530049D01*
X1065410Y532147D01*
X1066422Y534589D01*
X1066599Y535940D01*
X1056640D01*
Y537210D01*
D02*
G37*
G36*
X1067430Y496520D02*
X1057660D01*
Y490250D01*
X1067430D01*
Y496520D01*
D02*
G37*
G36*
X1057910Y547169D02*
Y538480D01*
X1066599D01*
X1066422Y539831D01*
X1065410Y542273D01*
X1063801Y544371D01*
X1061703Y545980D01*
X1059261Y546992D01*
X1057910Y547169D01*
D02*
G37*
G36*
X1051560Y638056D02*
X1047247Y637632D01*
X1043100Y636374D01*
X1039278Y634331D01*
X1035928Y631582D01*
X1033179Y628232D01*
X1031136Y624410D01*
X1029878Y620263D01*
X1029454Y615950D01*
X1029878Y611637D01*
X1031136Y607490D01*
X1033179Y603668D01*
X1035928Y600318D01*
X1039278Y597569D01*
X1043100Y595526D01*
X1047247Y594268D01*
X1051560Y593844D01*
X1055873Y594268D01*
X1060020Y595526D01*
X1063842Y597569D01*
X1067192Y600318D01*
X1069941Y603668D01*
X1071984Y607490D01*
X1073242Y611637D01*
X1073666Y615950D01*
X1073242Y620263D01*
X1071984Y624410D01*
X1069941Y628232D01*
X1067192Y631582D01*
X1063842Y634331D01*
X1060020Y636374D01*
X1055873Y637632D01*
X1051560Y638056D01*
D02*
G37*
G36*
X968540Y561110D02*
X962620D01*
Y553290D01*
X968540D01*
Y561110D01*
D02*
G37*
G36*
X889330Y118110D02*
X870560D01*
Y108840D01*
X889330D01*
Y118110D01*
D02*
G37*
G36*
X942086Y138451D02*
X939745Y137986D01*
X937760Y136660D01*
X936434Y134675D01*
X935968Y132334D01*
X936303Y130650D01*
X935479Y129448D01*
X935360Y129380D01*
X918700D01*
Y109380D01*
X957700D01*
Y129380D01*
X948739D01*
X947869Y130650D01*
X948204Y132334D01*
X947738Y134675D01*
X946412Y136660D01*
X944427Y137986D01*
X942086Y138451D01*
D02*
G37*
G36*
X889330Y129920D02*
X870560D01*
Y120650D01*
X889330D01*
Y129920D01*
D02*
G37*
G36*
X910640D02*
X891870D01*
Y120650D01*
X910640D01*
Y129920D01*
D02*
G37*
G36*
X975160Y253822D02*
X972680Y253495D01*
X970369Y252538D01*
X968384Y251015D01*
X966862Y249031D01*
X965904Y246720D01*
X965578Y244240D01*
X965904Y241760D01*
X966862Y239449D01*
X968384Y237464D01*
X970369Y235942D01*
X972680Y234984D01*
X975160Y234658D01*
X977640Y234984D01*
X979951Y235942D01*
X981935Y237464D01*
X983458Y239449D01*
X984415Y241760D01*
X984742Y244240D01*
X984415Y246720D01*
X983458Y249031D01*
X981935Y251015D01*
X979951Y252538D01*
X977640Y253495D01*
X975160Y253822D01*
D02*
G37*
G36*
X527460Y528010D02*
X519190D01*
Y518740D01*
X527460D01*
Y528010D01*
D02*
G37*
G36*
X593700Y553060D02*
X574700D01*
Y534060D01*
X593700D01*
Y553060D01*
D02*
G37*
G36*
X888199Y527694D02*
X875341D01*
X875398Y527257D01*
X875606Y526756D01*
X874900Y525700D01*
X873730D01*
Y519430D01*
X881770D01*
X889810D01*
Y525700D01*
X888640D01*
X887934Y526756D01*
X888142Y527257D01*
X888199Y527694D01*
D02*
G37*
G36*
X381460Y527010D02*
X371190D01*
Y518740D01*
X381460D01*
Y527010D01*
D02*
G37*
G36*
X613900Y577770D02*
X607130D01*
Y571500D01*
X613900D01*
Y577770D01*
D02*
G37*
G36*
X720090Y472830D02*
X713820D01*
Y466060D01*
X720090D01*
Y472830D01*
D02*
G37*
G36*
X850820Y625720D02*
X844550D01*
Y618950D01*
X850820D01*
Y625720D01*
D02*
G37*
G36*
X842010D02*
X835740D01*
Y618950D01*
X842010D01*
Y625720D01*
D02*
G37*
G36*
X791210Y596060D02*
X782940D01*
Y588790D01*
X791210D01*
Y596060D01*
D02*
G37*
G36*
X802020Y605870D02*
X793750D01*
Y598600D01*
X802020D01*
Y605870D01*
D02*
G37*
G36*
X783590Y570922D02*
X781110Y570596D01*
X778799Y569638D01*
X776814Y568115D01*
X775292Y566131D01*
X774334Y563820D01*
X774008Y561340D01*
X774334Y558860D01*
X775292Y556549D01*
X776814Y554565D01*
X778799Y553042D01*
X781110Y552085D01*
X783590Y551758D01*
X786070Y552085D01*
X788381Y553042D01*
X790366Y554565D01*
X791888Y556549D01*
X792846Y558860D01*
X793172Y561340D01*
X792846Y563820D01*
X791888Y566131D01*
X790366Y568115D01*
X788381Y569638D01*
X786070Y570596D01*
X783590Y570922D01*
D02*
G37*
G36*
X542620Y179166D02*
X540623Y178903D01*
X538762Y178132D01*
X537164Y176906D01*
X535938Y175308D01*
X535167Y173447D01*
X534904Y171450D01*
X535167Y169453D01*
X535938Y167592D01*
X537164Y165994D01*
X538762Y164768D01*
X540623Y163997D01*
X542620Y163734D01*
X544617Y163997D01*
X546478Y164768D01*
X548076Y165994D01*
X549302Y167592D01*
X550073Y169453D01*
X550336Y171450D01*
X550073Y173447D01*
X549302Y175308D01*
X548076Y176906D01*
X546478Y178132D01*
X544617Y178903D01*
X542620Y179166D01*
D02*
G37*
G36*
X605630Y173500D02*
X585630D01*
Y157059D01*
X550570D01*
X550570Y157059D01*
X549400Y156826D01*
X548408Y156163D01*
X545416Y153172D01*
X544617Y153503D01*
X542620Y153766D01*
X540623Y153503D01*
X538762Y152732D01*
X537164Y151506D01*
X535938Y149908D01*
X535167Y148047D01*
X534904Y146050D01*
X535167Y144053D01*
X535938Y142192D01*
X537164Y140594D01*
X538762Y139368D01*
X540623Y138597D01*
X542620Y138334D01*
X544617Y138597D01*
X546478Y139368D01*
X548076Y140594D01*
X549302Y142192D01*
X550073Y144053D01*
X550336Y146050D01*
X550073Y148047D01*
X549742Y148846D01*
X551837Y150941D01*
X585630D01*
Y134500D01*
X605630D01*
Y173500D01*
D02*
G37*
G36*
X647370Y154143D02*
Y147320D01*
X654193D01*
X654079Y148188D01*
X653254Y150180D01*
X651941Y151891D01*
X650230Y153204D01*
X648238Y154029D01*
X647370Y154143D01*
D02*
G37*
G36*
X644830D02*
X643962Y154029D01*
X641970Y153204D01*
X640259Y151891D01*
X638946Y150180D01*
X638121Y148188D01*
X638006Y147320D01*
X644830D01*
Y154143D01*
D02*
G37*
G36*
X312420Y212970D02*
X306150D01*
Y206200D01*
X312420D01*
Y212970D01*
D02*
G37*
G36*
Y222280D02*
X306150D01*
Y215510D01*
X312420D01*
Y222280D01*
D02*
G37*
G36*
X501110Y221760D02*
X491840D01*
Y212490D01*
X501110D01*
Y221760D01*
D02*
G37*
G36*
X470870Y179100D02*
X455570D01*
Y163800D01*
X470870D01*
Y179100D01*
D02*
G37*
G36*
X304180Y205230D02*
X290180D01*
Y190230D01*
X304180D01*
Y193158D01*
X305450Y194200D01*
X305544Y194181D01*
X306690Y193929D01*
Y189740D01*
X320690D01*
Y204740D01*
X306690D01*
Y201660D01*
X306688Y201654D01*
X305420Y200716D01*
X305054Y200789D01*
X304180Y201616D01*
Y205230D01*
D02*
G37*
G36*
X594360Y120040D02*
X585090D01*
Y101270D01*
X594360D01*
Y120040D01*
D02*
G37*
G36*
X464490Y103343D02*
Y96520D01*
X471313D01*
X471199Y97388D01*
X470374Y99380D01*
X469061Y101091D01*
X467350Y102404D01*
X465358Y103229D01*
X464490Y103343D01*
D02*
G37*
G36*
X304180Y188230D02*
X290180D01*
Y173230D01*
X304180D01*
Y177671D01*
X343021D01*
X391911Y128781D01*
Y125510D01*
X380470D01*
Y78510D01*
X409470D01*
Y81656D01*
X409831Y81969D01*
X410740Y82464D01*
X411636Y82285D01*
X497840D01*
X497840Y82285D01*
X499011Y82518D01*
X500003Y83181D01*
X509013Y92191D01*
X535607D01*
X535938Y91392D01*
X537164Y89794D01*
X538762Y88568D01*
X540623Y87797D01*
X542620Y87534D01*
X544617Y87797D01*
X546478Y88568D01*
X548076Y89794D01*
X549302Y91392D01*
X550073Y93253D01*
X550336Y95250D01*
X550073Y97247D01*
X549302Y99108D01*
X548076Y100706D01*
X546478Y101932D01*
X544617Y102703D01*
X542620Y102966D01*
X540623Y102703D01*
X538762Y101932D01*
X537164Y100706D01*
X535938Y99108D01*
X535607Y98309D01*
X507746D01*
X506576Y98076D01*
X505583Y97413D01*
X505583Y97413D01*
X496573Y88403D01*
X469665D01*
X469263Y89673D01*
X470374Y91120D01*
X471199Y93112D01*
X471313Y93980D01*
X455126D01*
X455241Y93112D01*
X456066Y91120D01*
X457176Y89673D01*
X456774Y88403D01*
X412903D01*
X409470Y91836D01*
Y125510D01*
X398029D01*
Y130048D01*
X397796Y131219D01*
X397133Y132211D01*
X346451Y182893D01*
X345458Y183556D01*
X344288Y183789D01*
X344288Y183789D01*
X304180D01*
Y188230D01*
D02*
G37*
G36*
X316230Y126246D02*
X311917Y125822D01*
X307770Y124564D01*
X303948Y122521D01*
X300598Y119772D01*
X297849Y116422D01*
X295806Y112600D01*
X294548Y108453D01*
X294124Y104140D01*
X294548Y99827D01*
X295806Y95680D01*
X297849Y91858D01*
X300598Y88508D01*
X303948Y85759D01*
X307770Y83716D01*
X311917Y82458D01*
X316230Y82034D01*
X320543Y82458D01*
X324690Y83716D01*
X328512Y85759D01*
X331862Y88508D01*
X334611Y91858D01*
X336654Y95680D01*
X337912Y99827D01*
X338336Y104140D01*
X337912Y108453D01*
X336654Y112600D01*
X334611Y116422D01*
X331862Y119772D01*
X328512Y122521D01*
X324690Y124564D01*
X320543Y125822D01*
X316230Y126246D01*
D02*
G37*
G36*
X594360Y98730D02*
X585090D01*
Y79960D01*
X594360D01*
Y98730D01*
D02*
G37*
G36*
X654193Y93980D02*
X647370D01*
Y87156D01*
X648238Y87271D01*
X650230Y88096D01*
X651941Y89409D01*
X653254Y91120D01*
X654079Y93112D01*
X654193Y93980D01*
D02*
G37*
G36*
X606170Y120040D02*
X596900D01*
Y100000D01*
Y79960D01*
X606170D01*
Y96941D01*
X617223D01*
X621077Y93087D01*
X622069Y92424D01*
X623240Y92191D01*
X623240Y92191D01*
X638502D01*
X638946Y91120D01*
X640259Y89409D01*
X641970Y88096D01*
X643962Y87271D01*
X644830Y87156D01*
Y95250D01*
Y103343D01*
X643962Y103229D01*
X641970Y102404D01*
X640259Y101091D01*
X638946Y99380D01*
X638502Y98309D01*
X624507D01*
X620653Y102163D01*
X619660Y102826D01*
X618490Y103059D01*
X618490Y103059D01*
X606170D01*
Y120040D01*
D02*
G37*
G36*
X471313Y144780D02*
X464490D01*
Y137956D01*
X465358Y138071D01*
X467350Y138896D01*
X469061Y140209D01*
X470374Y141920D01*
X471199Y143912D01*
X471313Y144780D01*
D02*
G37*
G36*
X461950D02*
X455126D01*
X455241Y143912D01*
X455685Y142840D01*
X452243Y139399D01*
X451580Y138407D01*
X451347Y137236D01*
X451347Y137236D01*
Y104064D01*
X451347Y104064D01*
X451580Y102893D01*
X452243Y101901D01*
X455685Y98460D01*
X455241Y97388D01*
X455126Y96520D01*
X461950D01*
Y103343D01*
X461082Y103229D01*
X460010Y102785D01*
X457465Y105331D01*
Y113823D01*
X458735Y114449D01*
X459362Y113968D01*
X461223Y113197D01*
X463220Y112934D01*
X465217Y113197D01*
X467078Y113968D01*
X468676Y115194D01*
X469902Y116792D01*
X470673Y118653D01*
X470936Y120650D01*
X470673Y122647D01*
X469902Y124508D01*
X468676Y126106D01*
X467078Y127332D01*
X465217Y128103D01*
X463220Y128366D01*
X461223Y128103D01*
X459362Y127332D01*
X458735Y126851D01*
X457465Y127477D01*
Y135969D01*
X460010Y138515D01*
X461082Y138071D01*
X461950Y137956D01*
Y144780D01*
D02*
G37*
G36*
X644830D02*
X638006D01*
X638121Y143912D01*
X638946Y141920D01*
X640259Y140209D01*
X641970Y138896D01*
X643962Y138071D01*
X644830Y137956D01*
Y144780D01*
D02*
G37*
G36*
X461950Y154143D02*
X461082Y154029D01*
X459090Y153204D01*
X457379Y151891D01*
X456066Y150180D01*
X455241Y148188D01*
X455126Y147320D01*
X461950D01*
Y154143D01*
D02*
G37*
G36*
X408920Y634836D02*
X407223Y634613D01*
X405642Y633958D01*
X404284Y632916D01*
X403242Y631558D01*
X402588Y629977D01*
X402364Y628280D01*
X402588Y626583D01*
X403242Y625002D01*
X404284Y623644D01*
X405642Y622603D01*
X407223Y621948D01*
X408920Y621724D01*
X410617Y621948D01*
X412198Y622603D01*
X413556Y623644D01*
X414598Y625002D01*
X415253Y626583D01*
X415476Y628280D01*
X415253Y629977D01*
X414598Y631558D01*
X413556Y632916D01*
X412198Y633958D01*
X410617Y634613D01*
X408920Y634836D01*
D02*
G37*
G36*
X542620Y128366D02*
X540623Y128103D01*
X538762Y127332D01*
X537164Y126106D01*
X535938Y124508D01*
X535167Y122647D01*
X534904Y120650D01*
X535167Y118653D01*
X535938Y116792D01*
X537164Y115194D01*
X538762Y113968D01*
X540623Y113197D01*
X542620Y112934D01*
X544617Y113197D01*
X546478Y113968D01*
X548076Y115194D01*
X549302Y116792D01*
X550073Y118653D01*
X550336Y120650D01*
X550073Y122647D01*
X549302Y124508D01*
X548076Y126106D01*
X546478Y127332D01*
X544617Y128103D01*
X542620Y128366D01*
D02*
G37*
G36*
X423670Y390540D02*
X408670D01*
Y376540D01*
X412114D01*
X412562Y376261D01*
X412809Y375136D01*
X411974Y374030D01*
X409940D01*
Y360030D01*
X424846D01*
X426067Y359920D01*
X426070Y359920D01*
Y359920D01*
X440070D01*
Y374920D01*
X426070D01*
Y374368D01*
X424940Y374030D01*
Y374030D01*
X421496D01*
X421048Y374309D01*
X420801Y375434D01*
X421636Y376540D01*
X423670D01*
Y390540D01*
D02*
G37*
G36*
X502380Y373306D02*
X499770Y372963D01*
X497337Y371955D01*
X495248Y370352D01*
X493645Y368263D01*
X492637Y365830D01*
X492294Y363220D01*
X492637Y360610D01*
X493645Y358177D01*
X495248Y356088D01*
X497337Y354485D01*
X499770Y353477D01*
X502380Y353134D01*
X504991Y353477D01*
X507423Y354485D01*
X509512Y356088D01*
X511115Y358177D01*
X512123Y360610D01*
X512466Y363220D01*
X512123Y365830D01*
X511115Y368263D01*
X509512Y370352D01*
X507423Y371955D01*
X504991Y372963D01*
X502380Y373306D01*
D02*
G37*
G36*
X446357Y336804D02*
X441198D01*
Y331645D01*
X441635Y331702D01*
X443226Y332361D01*
X444592Y333410D01*
X445641Y334776D01*
X446300Y336367D01*
X446357Y336804D01*
D02*
G37*
G36*
X438658Y344503D02*
X438221Y344446D01*
X436630Y343787D01*
X435264Y342738D01*
X434215Y341372D01*
X433556Y339781D01*
X433499Y339344D01*
X438658D01*
Y344503D01*
D02*
G37*
G36*
X441198D02*
Y339344D01*
X446357D01*
X446300Y339781D01*
X445641Y341372D01*
X444592Y342738D01*
X443226Y343787D01*
X441635Y344446D01*
X441198Y344503D01*
D02*
G37*
G36*
X456580Y391920D02*
X442580D01*
Y387479D01*
X440070D01*
Y391920D01*
X426070D01*
Y376920D01*
X440070D01*
Y381361D01*
X442580D01*
Y376920D01*
X456580D01*
Y391920D01*
D02*
G37*
G36*
X302260Y529362D02*
X299783Y529036D01*
X297474Y528079D01*
X295492Y526558D01*
X293971Y524576D01*
X293014Y522267D01*
X292688Y519790D01*
X293014Y517313D01*
X293971Y515004D01*
X295492Y513022D01*
X297474Y511501D01*
X299783Y510544D01*
X302260Y510218D01*
X304737Y510544D01*
X307046Y511501D01*
X309028Y513022D01*
X310550Y515004D01*
X311506Y517313D01*
X311832Y519790D01*
X311506Y522267D01*
X310550Y524576D01*
X309028Y526558D01*
X307046Y528079D01*
X304737Y529036D01*
X302260Y529362D01*
D02*
G37*
G36*
X327160Y519091D02*
X324093Y518688D01*
X321234Y517504D01*
X318780Y515620D01*
X316896Y513166D01*
X315712Y510307D01*
X315309Y507240D01*
X315712Y504173D01*
X316896Y501314D01*
X318780Y498860D01*
X321234Y496976D01*
X324093Y495793D01*
X327160Y495389D01*
X330227Y495793D01*
X333086Y496976D01*
X335540Y498860D01*
X337424Y501314D01*
X338608Y504173D01*
X339011Y507240D01*
X338608Y510307D01*
X337424Y513166D01*
X335540Y515620D01*
X333086Y517504D01*
X330227Y518688D01*
X327160Y519091D01*
D02*
G37*
G36*
X370460Y623010D02*
X360920D01*
X351380D01*
Y610740D01*
X357861D01*
Y598114D01*
X356591Y597729D01*
X355819Y598885D01*
X353834Y600211D01*
X351493Y600676D01*
X349152Y600211D01*
X347167Y598885D01*
X345841Y596900D01*
X345375Y594559D01*
X345841Y592218D01*
X347167Y590233D01*
X348434Y589387D01*
Y567780D01*
X333844Y553190D01*
X332350Y553488D01*
X330009Y553022D01*
X328024Y551696D01*
X326698Y549711D01*
X326232Y547370D01*
X326698Y545029D01*
X328024Y543044D01*
X330009Y541718D01*
X332350Y541253D01*
X334691Y541718D01*
X336676Y543044D01*
X338002Y545029D01*
X338467Y547370D01*
X338170Y548865D01*
X353656Y564350D01*
X353656Y564350D01*
X354319Y565342D01*
X354552Y566513D01*
X354552Y566513D01*
Y589387D01*
X355819Y590233D01*
X356591Y591389D01*
X357861Y591004D01*
Y566371D01*
X357382Y566173D01*
X356016Y565125D01*
X354967Y563758D01*
X354308Y562167D01*
X354251Y561730D01*
X367109D01*
X367052Y562167D01*
X366393Y563758D01*
X365344Y565125D01*
X363979Y566173D01*
Y610740D01*
X370460D01*
Y623010D01*
D02*
G37*
G36*
X316230Y638056D02*
X311917Y637632D01*
X307770Y636374D01*
X303948Y634331D01*
X300598Y631582D01*
X297849Y628232D01*
X295806Y624410D01*
X294548Y620263D01*
X294124Y615950D01*
X294548Y611637D01*
X295806Y607490D01*
X297849Y603668D01*
X300598Y600318D01*
X303948Y597569D01*
X307770Y595526D01*
X311917Y594268D01*
X316230Y593844D01*
X320543Y594268D01*
X324690Y595526D01*
X328512Y597569D01*
X331862Y600318D01*
X334611Y603668D01*
X336654Y607490D01*
X337912Y611637D01*
X338336Y615950D01*
X337912Y620263D01*
X336654Y624410D01*
X334611Y628232D01*
X331862Y631582D01*
X328512Y634331D01*
X324690Y636374D01*
X320543Y637632D01*
X316230Y638056D01*
D02*
G37*
G36*
X386740Y266824D02*
X373660D01*
X371431Y266530D01*
X369353Y265669D01*
X367569Y264301D01*
X366200Y262517D01*
X365340Y260439D01*
X365046Y258210D01*
X365340Y255980D01*
X366200Y253903D01*
X367569Y252119D01*
X369353Y250750D01*
X371431Y249890D01*
X373660Y249596D01*
X386740D01*
X388969Y249890D01*
X391047Y250750D01*
X392831Y252119D01*
X394199Y253903D01*
X395060Y255980D01*
X395354Y258210D01*
X395060Y260439D01*
X394199Y262517D01*
X392831Y264301D01*
X391047Y265669D01*
X388969Y266530D01*
X386740Y266824D01*
D02*
G37*
G36*
X305200Y241279D02*
X303111Y241004D01*
X301165Y240198D01*
X299494Y238916D01*
X298212Y237245D01*
X297406Y235299D01*
X297131Y233210D01*
X297406Y231122D01*
X298212Y229176D01*
X299494Y227504D01*
X301165Y226222D01*
X303111Y225416D01*
X305200Y225141D01*
X307288Y225416D01*
X309234Y226222D01*
X310905Y227504D01*
X312188Y229176D01*
X312994Y231122D01*
X313269Y233210D01*
X312994Y235299D01*
X312188Y237245D01*
X310905Y238916D01*
X309234Y240198D01*
X307288Y241004D01*
X305200Y241279D01*
D02*
G37*
G36*
X395731Y231940D02*
X381470D01*
Y224052D01*
X386740D01*
X389110Y224364D01*
X391319Y225279D01*
X393216Y226734D01*
X394671Y228631D01*
X395586Y230840D01*
X395731Y231940D01*
D02*
G37*
G36*
X386740Y242369D02*
X381470D01*
Y234480D01*
X395731D01*
X395586Y235581D01*
X394671Y237789D01*
X393216Y239686D01*
X391319Y241141D01*
X389110Y242056D01*
X386740Y242369D01*
D02*
G37*
G36*
X312209Y563520D02*
X303530D01*
Y554841D01*
X304878Y555018D01*
X307318Y556029D01*
X309414Y557636D01*
X311021Y559732D01*
X312032Y562172D01*
X312209Y563520D01*
D02*
G37*
G36*
X386740Y316824D02*
X373660D01*
X371431Y316530D01*
X369353Y315670D01*
X367569Y314301D01*
X366200Y312517D01*
X365340Y310440D01*
X365046Y308210D01*
X365340Y305981D01*
X366200Y303903D01*
X367569Y302119D01*
X369353Y300751D01*
X371431Y299890D01*
X373660Y299597D01*
X386740D01*
X388969Y299890D01*
X391047Y300751D01*
X392831Y302119D01*
X394199Y303903D01*
X395060Y305981D01*
X395354Y308210D01*
X395060Y310440D01*
X394199Y312517D01*
X392831Y314301D01*
X391047Y315670D01*
X388969Y316530D01*
X386740Y316824D01*
D02*
G37*
G36*
X305200Y341279D02*
X303111Y341004D01*
X301165Y340198D01*
X299494Y338916D01*
X298212Y337244D01*
X297406Y335298D01*
X297131Y333210D01*
X297406Y331121D01*
X298212Y329175D01*
X299494Y327504D01*
X301165Y326222D01*
X303111Y325416D01*
X305200Y325141D01*
X307288Y325416D01*
X309234Y326222D01*
X310905Y327504D01*
X312188Y329175D01*
X312994Y331121D01*
X313269Y333210D01*
X312994Y335298D01*
X312188Y337244D01*
X310905Y338916D01*
X309234Y340198D01*
X307288Y341004D01*
X305200Y341279D01*
D02*
G37*
G36*
X303530Y574739D02*
Y566060D01*
X312209D01*
X312032Y567408D01*
X311021Y569848D01*
X309414Y571944D01*
X307318Y573551D01*
X304878Y574562D01*
X303530Y574739D01*
D02*
G37*
G36*
X300990Y574739D02*
X299642Y574562D01*
X297202Y573551D01*
X295107Y571944D01*
X293499Y569848D01*
X292488Y567408D01*
X292311Y566060D01*
X300990D01*
Y574739D01*
D02*
G37*
G36*
Y563520D02*
X292311D01*
X292488Y562172D01*
X293499Y559732D01*
X295107Y557636D01*
X297202Y556029D01*
X299642Y555018D01*
X300990Y554841D01*
Y563520D01*
D02*
G37*
G36*
X327160Y589191D02*
X324093Y588787D01*
X321234Y587604D01*
X318780Y585720D01*
X316896Y583266D01*
X315712Y580407D01*
X315309Y577340D01*
X315712Y574273D01*
X316896Y571414D01*
X318780Y568960D01*
X321234Y567076D01*
X324093Y565892D01*
X327160Y565489D01*
X330227Y565892D01*
X333086Y567076D01*
X335540Y568960D01*
X337424Y571414D01*
X338608Y574273D01*
X339011Y577340D01*
X338608Y580407D01*
X337424Y583266D01*
X335540Y585720D01*
X333086Y587604D01*
X330227Y588787D01*
X327160Y589191D01*
D02*
G37*
%LPD*%
D10*
X1056390Y459790D02*
D03*
Y497790D02*
D03*
X993390Y459790D02*
D03*
Y497790D02*
D03*
D11*
X761120Y426720D02*
D03*
X778120D02*
D03*
X719210D02*
D03*
X736210D02*
D03*
X416170Y383540D02*
D03*
X399170D02*
D03*
X400440Y367030D02*
D03*
X417440D02*
D03*
X615170Y570230D02*
D03*
X598170D02*
D03*
X677690D02*
D03*
X694690D02*
D03*
X881770Y469900D02*
D03*
X898770D02*
D03*
Y485140D02*
D03*
X881770D02*
D03*
Y518160D02*
D03*
X898770D02*
D03*
D12*
X773430Y491100D02*
D03*
Y474100D02*
D03*
X721360D02*
D03*
Y491100D02*
D03*
X449580Y367420D02*
D03*
Y384420D02*
D03*
X433070Y367420D02*
D03*
Y384420D02*
D03*
X313690Y214240D02*
D03*
Y197240D02*
D03*
X297180Y180730D02*
D03*
Y197730D02*
D03*
X843280Y626990D02*
D03*
Y609990D02*
D03*
X383540Y400440D02*
D03*
Y417440D02*
D03*
D13*
X938200Y119380D02*
D03*
X992200D02*
D03*
X836600D02*
D03*
X890600D02*
D03*
D14*
X777240Y100000D02*
D03*
Y154000D02*
D03*
X595630Y154000D02*
D03*
Y100000D02*
D03*
D15*
X416970Y453390D02*
D03*
X499970D02*
D03*
X632050D02*
D03*
X549050D02*
D03*
D16*
X394970Y185010D02*
D03*
Y102010D02*
D03*
D17*
X984250Y618920D02*
D03*
X902970D02*
D03*
D18*
X1007150Y552020D02*
D03*
X984250D02*
D03*
X961350D02*
D03*
X880070D02*
D03*
X902970D02*
D03*
X925870D02*
D03*
D19*
X767080Y619330D02*
D03*
X792480D02*
D03*
Y597330D02*
D03*
X767080D02*
D03*
D20*
X694690Y612140D02*
D03*
X598170D02*
D03*
D21*
X928370Y523120D02*
D03*
Y508120D02*
D03*
X963930Y523120D02*
D03*
Y508120D02*
D03*
X946150Y523120D02*
D03*
Y508120D02*
D03*
X858520Y193040D02*
D03*
Y178040D02*
D03*
X845820Y193040D02*
D03*
Y178040D02*
D03*
X871220Y193040D02*
D03*
Y178040D02*
D03*
X883920Y193040D02*
D03*
Y178040D02*
D03*
X896620Y193040D02*
D03*
Y178040D02*
D03*
X909320Y193040D02*
D03*
Y178040D02*
D03*
X922020Y193040D02*
D03*
Y178040D02*
D03*
X934720Y193040D02*
D03*
Y178040D02*
D03*
X985520Y193040D02*
D03*
Y178040D02*
D03*
X972820Y193040D02*
D03*
Y178040D02*
D03*
X998220Y193040D02*
D03*
Y178040D02*
D03*
X1010920Y193040D02*
D03*
Y178040D02*
D03*
X1023620Y193040D02*
D03*
Y178040D02*
D03*
X1036320Y193040D02*
D03*
Y178040D02*
D03*
D22*
X1022470Y335280D02*
D03*
X1037470D02*
D03*
X1022470Y398780D02*
D03*
X1037470D02*
D03*
X1022470Y386080D02*
D03*
X1037470D02*
D03*
X1022470Y373380D02*
D03*
X1037470D02*
D03*
X1022470Y360680D02*
D03*
X1037470D02*
D03*
X1022470Y347980D02*
D03*
X1037470D02*
D03*
X1022470Y309880D02*
D03*
X1037470D02*
D03*
X1022470Y322580D02*
D03*
X1037470D02*
D03*
X1022470Y278130D02*
D03*
X1037470D02*
D03*
X1022470Y290830D02*
D03*
X1037470D02*
D03*
D23*
X354930Y449070D02*
D03*
Y441070D02*
D03*
Y433070D02*
D03*
Y425070D02*
D03*
Y417070D02*
D03*
D24*
X298930Y388570D02*
D03*
X353930D02*
D03*
X298930Y477570D02*
D03*
X353930D02*
D03*
D25*
X416920Y523280D02*
D03*
X427920D02*
D03*
X438920D02*
D03*
X449920D02*
D03*
X460920D02*
D03*
X471920D02*
D03*
X482920D02*
D03*
X493920D02*
D03*
X504920D02*
D03*
D26*
X517920Y529280D02*
D03*
D27*
Y624280D02*
D03*
X360920D02*
D03*
D28*
X369920Y528280D02*
D03*
D29*
X987298Y497790D02*
Y518628D01*
X792480Y598170D02*
X810260Y580390D01*
X632618Y453390D02*
Y490996D01*
X475476Y535940D02*
X517920D01*
X360920Y528280D02*
Y624280D01*
Y515860D02*
Y528280D01*
X817590Y627380D02*
X819150Y625820D01*
Y575310D02*
Y625820D01*
X800100Y577850D02*
X802640Y575310D01*
X746760Y577850D02*
X800100D01*
X810260Y554990D02*
Y580390D01*
X784352Y529082D02*
X810260Y554990D01*
X676974Y637604D02*
X851783D01*
X855980Y633407D01*
Y602043D02*
Y633407D01*
X841025Y587088D02*
X855980Y602043D01*
X867410Y466090D02*
X871220Y469900D01*
X853440Y641604D02*
X861060Y633984D01*
Y590550D02*
Y633984D01*
X853440Y582930D02*
X861060Y590550D01*
X748284Y609600D02*
X779780D01*
X732790Y594106D02*
X748284Y609600D01*
X774700Y629412D02*
X784782Y619330D01*
X733812Y629412D02*
X774700D01*
X739218Y619330D02*
X767080D01*
X784782D02*
X792480D01*
X585470Y641604D02*
X853440D01*
X792480Y598170D02*
Y600710D01*
Y597330D02*
Y598170D01*
X995680Y551942D02*
X1007150D01*
X742442Y99822D02*
X777240D01*
X939800Y119380D02*
Y130048D01*
X934720Y178040D02*
Y178310D01*
X1029970Y296418D02*
X1034542Y300990D01*
X1029970Y285630D02*
Y296418D01*
X1022470Y278130D02*
X1029970Y285630D01*
X1040892Y300990D02*
X1044702Y304800D01*
X1034542Y300990D02*
X1040892D01*
X858520Y178040D02*
Y178310D01*
X871220Y178040D02*
Y178310D01*
X883920Y178040D02*
Y178310D01*
X896620Y178040D02*
Y178310D01*
X909320Y178040D02*
Y178310D01*
X922020Y178040D02*
Y178310D01*
X1029208Y185928D02*
X1036320Y193040D01*
X961644Y185928D02*
X1029208D01*
X552450Y363220D02*
Y453390D01*
X500126Y434848D02*
Y453390D01*
X647446Y197104D02*
X663264D01*
X640080Y204470D02*
X647446Y197104D01*
X640080Y204470D02*
Y216154D01*
X682752Y258826D01*
X610616Y182880D02*
X661162D01*
X591312Y202184D02*
X610616Y182880D01*
Y156134D02*
Y175514D01*
X598170Y187960D02*
X610616Y175514D01*
X521970Y187960D02*
X598170D01*
X657606Y323850D02*
Y346964D01*
X653034Y351536D02*
X657606Y346964D01*
X646176Y351536D02*
X653034D01*
X890600Y119380D02*
X901700D01*
X802132Y140208D02*
Y210312D01*
X368046Y544830D02*
X398106D01*
X877198Y500380D02*
X881770Y495808D01*
X866140Y500380D02*
X877198D01*
X857250Y491490D02*
X866140Y500380D01*
X898770Y518160D02*
Y532892D01*
Y512064D02*
Y518160D01*
X881770D02*
Y528964D01*
X909320Y456946D02*
Y474590D01*
X898770Y485140D02*
X909320Y474590D01*
X877800Y425426D02*
X909320Y456946D01*
X1065530Y471170D02*
X1070610Y466090D01*
Y454331D02*
Y466090D01*
X1054608Y438329D02*
X1070610Y454331D01*
X938022Y471170D02*
X1065530D01*
X922528Y455676D02*
X938022Y471170D01*
X1056640Y562610D02*
X1076960Y542290D01*
Y188976D02*
Y542290D01*
X1027430Y139446D02*
X1076960Y188976D01*
X793750Y119380D02*
X836600D01*
X786130Y127000D02*
X793750Y119380D01*
X744550Y127000D02*
X786130D01*
X725500Y146050D02*
X744550Y127000D01*
X974090Y119380D02*
X979424D01*
X958850Y104140D02*
X974090Y119380D01*
X916940Y104140D02*
X958850D01*
X901700Y119380D02*
X916940Y104140D01*
X1005586Y163830D02*
X1016000Y153416D01*
X969630Y163830D02*
X1005586D01*
X954644Y178816D02*
X969630Y163830D01*
X1016000Y104140D02*
Y153416D01*
X986600Y74740D02*
X1016000Y104140D01*
X698690Y74740D02*
X986600D01*
X471920Y532384D02*
X475476Y535940D01*
X780939Y474100D02*
X784352Y477514D01*
X773430Y474100D02*
X780939D01*
X784352Y477514D02*
Y528320D01*
Y529082D01*
X749300Y483362D02*
X773430D01*
X723392D02*
X749300D01*
Y451104D02*
Y483362D01*
Y451104D02*
X760730Y439674D01*
X661670Y476250D02*
X673750D01*
X656551Y471131D02*
X661670Y476250D01*
X656551Y437889D02*
Y471131D01*
X673750Y476250D02*
X696102Y453898D01*
X864870Y96520D02*
Y133096D01*
X847090Y78740D02*
X864870Y96520D01*
X712216Y78740D02*
X847090D01*
X702380Y88576D02*
X712216Y78740D01*
X864870Y133096D02*
X878078Y146304D01*
X673354Y100076D02*
X698690Y74740D01*
X881770Y528964D02*
Y542328D01*
X800862Y426720D02*
X819912D01*
X320548Y310896D02*
Y350266D01*
Y256032D02*
Y310896D01*
X355346Y233210D02*
X380200D01*
X343370D02*
X355346D01*
X397510Y398272D02*
Y453390D01*
X373325Y333210D02*
Y386468D01*
X394970Y184912D02*
X415290D01*
X330200Y274066D02*
X414528D01*
X993390Y459790D02*
X1035254D01*
X694690Y570230D02*
Y577088D01*
X598170Y596900D02*
Y612140D01*
Y570230D02*
Y596900D01*
X432920Y539301D02*
Y617324D01*
Y537896D02*
Y539301D01*
X873252Y469900D02*
X881770D01*
X871220D02*
X873252D01*
X898770Y485140D02*
Y512064D01*
X677164Y491100D02*
X721360D01*
X656472D02*
X677164D01*
X886495Y240504D02*
X891118Y235880D01*
X646100Y95250D02*
X654812Y103962D01*
Y137338D01*
X646100Y146050D02*
X654812Y137338D01*
X454406Y137236D02*
X463220Y146050D01*
X454406Y104064D02*
Y137236D01*
Y104064D02*
X463220Y95250D01*
X502380Y185210D02*
Y211220D01*
X463220Y146050D02*
X502380Y185210D01*
X360920Y528280D02*
X369920D01*
X764032Y474100D02*
X773430D01*
X758556Y468624D02*
X764032Y474100D01*
X758556Y455336D02*
Y468624D01*
Y455336D02*
X778120Y435771D01*
Y426720D02*
Y435771D01*
X677690Y564878D02*
Y570230D01*
Y564878D02*
X680720Y561848D01*
X705866D01*
X739394Y528320D01*
X784352D01*
X721360Y474100D02*
X729690D01*
X739648Y464142D01*
Y452301D02*
Y464142D01*
X719210Y431864D02*
X739648Y452301D01*
X719210Y426720D02*
Y431864D01*
X819912Y426720D02*
X833882Y440690D01*
X857250D01*
X880070Y552020D02*
X881770Y542328D01*
X773430Y457995D02*
Y474100D01*
Y457995D02*
X787654Y443772D01*
X794546D01*
X804926Y454152D01*
Y519182D01*
X829772Y544028D01*
X880070D01*
Y552020D01*
X666242Y383032D02*
X685038Y401828D01*
X666242Y304024D02*
Y383032D01*
Y304024D02*
X677164Y293102D01*
X783082Y461772D02*
X789940D01*
X795528Y467360D01*
Y524256D01*
X847185Y575913D01*
X943851D01*
X953699Y566064D01*
Y543885D02*
Y566064D01*
Y543885D02*
X967232Y530352D01*
X969010D01*
X980948Y518414D01*
Y503936D02*
Y518414D01*
X972820Y495808D02*
X980948Y503936D01*
X958462Y495808D02*
X972820D01*
X946150Y508120D02*
X958462Y495808D01*
X916312Y496062D02*
X928370Y508120D01*
X910336Y496062D02*
X916312D01*
X499970Y453390D02*
X500126D01*
Y434848D02*
X538480Y396494D01*
Y253492D02*
Y396494D01*
X394970Y102010D02*
Y130048D01*
X344288Y180730D02*
X394970Y130048D01*
X297180Y180730D02*
X344288D01*
X963930Y523120D02*
X971938Y515112D01*
X973836D01*
X920362D02*
X928370Y523120D01*
X918464Y515112D02*
X920362D01*
X609600Y543560D02*
X620268Y532892D01*
X668782D01*
X676402Y540512D01*
X694182D01*
X739394Y495300D01*
X701548Y543560D02*
X751598Y493510D01*
X732790Y561340D02*
Y594106D01*
X954786Y459790D02*
X993390D01*
X438920Y523280D02*
Y531896D01*
X432920Y537896D02*
X438920Y531896D01*
X432920Y617324D02*
X452882Y637286D01*
X424942Y549148D02*
X432920Y539301D01*
X986402Y434848D02*
X1022470Y398780D01*
X948436Y434848D02*
X986402D01*
X937600Y431800D02*
X975160Y394240D01*
X935228Y431800D02*
X937600D01*
X937530Y356870D02*
X975160Y319240D01*
X847342Y356870D02*
X937530D01*
X819690Y384521D02*
X847342Y356870D01*
X781434Y384521D02*
X819690D01*
X738632Y386842D02*
X749696Y397906D01*
X772774D01*
X773938Y396742D01*
Y382016D02*
Y396742D01*
Y382016D02*
X780034Y375920D01*
X820371D01*
X823110Y373180D01*
Y360530D02*
Y373180D01*
Y360530D02*
X836422Y347218D01*
X871182D01*
X899160Y319240D01*
X870712Y467360D02*
X873252Y469900D01*
X870712Y463550D02*
Y467360D01*
X914146Y447294D02*
Y471424D01*
X935482Y492760D01*
Y528178D01*
X935086Y528574D02*
X935482Y528178D01*
X935086Y528574D02*
Y560212D01*
X932688Y562610D02*
X935086Y560212D01*
X863346Y562610D02*
X932688D01*
X565658Y621792D02*
X585470Y641604D01*
X565658Y579882D02*
Y621792D01*
Y579882D02*
X575310Y570230D01*
X562610Y536448D02*
Y557530D01*
Y536448D02*
X580136Y518922D01*
X642112D01*
X387096Y440182D02*
Y441706D01*
X383540Y400440D02*
X391668D01*
Y435610D01*
X387096Y440182D02*
X391668Y435610D01*
X466598Y461010D02*
X498602Y493014D01*
X583946D01*
X595884Y504952D01*
X642620D01*
X656472Y491100D01*
X449920Y523280D02*
Y532638D01*
X453984Y536702D01*
X839689Y425426D02*
X877800D01*
X820805Y406542D02*
X839689Y425426D01*
X807039Y406542D02*
X820805D01*
X802752Y410830D02*
X807039Y406542D01*
X771930Y410830D02*
X802752D01*
X761120Y421640D02*
X771930Y410830D01*
X761120Y421640D02*
Y426720D01*
X843280Y599694D02*
Y609990D01*
X925870Y541314D02*
Y552020D01*
X910844Y526288D02*
X925870Y541314D01*
X984250Y537718D02*
Y552020D01*
X777240Y99822D02*
Y100000D01*
X738124Y104140D02*
X742442Y99822D01*
X711708Y104140D02*
X738124D01*
X677380Y330796D02*
Y363220D01*
Y330796D02*
X692404Y315772D01*
X740410Y324358D02*
X751854Y312914D01*
X790434D01*
X810768Y333248D01*
X836930D01*
X886460Y283718D01*
X901192D01*
X985520Y199390D01*
Y193040D02*
Y199390D01*
X611886Y471932D02*
X625602D01*
X607314Y467360D02*
X611886Y471932D01*
X607314Y398272D02*
Y467360D01*
Y398272D02*
X613410Y392176D01*
Y342646D02*
Y392176D01*
X602996Y332232D02*
X613410Y342646D01*
X602996Y227838D02*
Y332232D01*
X591312Y216154D02*
X602996Y227838D01*
X591312Y202184D02*
Y216154D01*
X661162Y182880D02*
X673354Y170688D01*
Y100076D02*
Y170688D01*
X954644Y178816D02*
Y191008D01*
X956676Y193040D01*
X972820D01*
X664250Y437589D02*
Y467725D01*
X652380Y425719D02*
X664250Y437589D01*
X652380Y363220D02*
Y425719D01*
X815848Y399542D02*
X818642Y402336D01*
X848360D01*
X863854Y417830D01*
X876554D01*
X892048Y433324D01*
X910336D01*
X922528Y445516D01*
Y455676D01*
X1054608Y260096D02*
Y438329D01*
X1046480Y251968D02*
X1054608Y260096D01*
X1022096Y251968D02*
X1046480D01*
X1002538Y232410D02*
X1022096Y251968D01*
X1002538Y219456D02*
Y232410D01*
Y219456D02*
X1007872Y214122D01*
X1016000D01*
X1023620Y206502D01*
Y193040D02*
Y206502D01*
X570738Y254578D02*
Y310134D01*
X527380Y211220D02*
X570738Y254578D01*
X552380Y211220D02*
X579374Y238214D01*
Y320548D01*
X577380Y211220D02*
Y227622D01*
X587756Y237998D01*
Y326898D01*
X746760Y337820D02*
Y341884D01*
Y337820D02*
X763666Y320914D01*
X773938D01*
X814578Y361554D01*
Y364744D01*
X608076Y301244D02*
X650494Y343662D01*
X608076Y216916D02*
Y301244D01*
X602380Y211220D02*
X608076Y216916D01*
X696102Y453898D02*
X712216D01*
X641350Y422688D02*
X656551Y437889D01*
X641350Y356362D02*
Y422688D01*
Y356362D02*
X646176Y351536D01*
X627380Y293624D02*
X657606Y323850D01*
X627380Y211220D02*
Y293624D01*
X591312Y226314D02*
X594868Y229870D01*
Y348742D01*
X591312Y352298D02*
X594868Y348742D01*
X591312Y352298D02*
Y480172D01*
X609234Y498094D01*
X643382D01*
X654480Y486996D01*
X671752D01*
X697230Y461518D01*
X722376D01*
X730504Y453390D01*
X922020Y193040D02*
Y213868D01*
X912114Y223774D02*
X922020Y213868D01*
X903224Y223774D02*
X912114D01*
X886495Y240504D02*
Y256759D01*
X834340Y308914D02*
X886495Y256759D01*
X739195Y308914D02*
X834340D01*
X732022Y316087D02*
X739195Y308914D01*
X732022Y316087D02*
Y333083D01*
X724296Y340809D02*
X732022Y333083D01*
X724296Y340809D02*
Y349504D01*
X727012Y352220D01*
X733220D01*
X738632Y357632D01*
Y365760D01*
X758698Y385826D01*
X762762D01*
X663264Y197104D02*
X677380Y211220D01*
X682752Y258826D02*
X795863D01*
X818810Y235880D01*
X891118D01*
X903224Y223774D01*
X702380Y88576D02*
Y211220D01*
X878078Y146304D02*
X917448D01*
X945896Y174752D01*
Y181864D01*
X934720Y193040D02*
X945896Y181864D01*
X644731Y232489D02*
X680974Y268732D01*
X690880D01*
X704088Y281940D01*
Y348234D01*
X713486Y357632D01*
Y374904D01*
X700644Y387746D02*
X713486Y374904D01*
X700644Y387746D02*
Y426578D01*
X719328Y445262D01*
X728726Y390906D02*
X740311Y402491D01*
X784451D01*
X798421Y388521D01*
X834997D01*
X840232Y383286D01*
X933196D01*
X957834Y358648D01*
X1001268D01*
X1009650Y350266D01*
Y227838D02*
X1036320Y201168D01*
Y193040D02*
Y201168D01*
X728232Y271780D02*
X829310D01*
X715532Y284480D02*
X728232Y271780D01*
X715532Y284480D02*
Y337072D01*
X717296Y338836D01*
X691134Y345186D02*
Y374025D01*
X696644Y379535D01*
Y433500D01*
X707136Y443992D01*
X708914Y418592D02*
X717178D01*
X719210Y420624D01*
Y426720D01*
X1010920Y193040D02*
Y205994D01*
X1009904Y207010D02*
X1010920Y205994D01*
X853186Y257048D02*
X860806Y249428D01*
X815848Y257048D02*
X853186D01*
X807466Y265430D02*
X815848Y257048D01*
X720852Y265430D02*
X807466D01*
X709930Y276352D02*
X720852Y265430D01*
X709930Y276352D02*
Y345770D01*
X727380Y363220D01*
X858520Y193040D02*
Y218440D01*
X871220Y193040D02*
Y218694D01*
X878332Y211328D02*
X896620Y193040D01*
X723392Y317754D02*
X755904Y285242D01*
X810260D01*
X874480Y227880D02*
X909320Y193040D01*
X810810Y227880D02*
X874480D01*
X807803Y230886D02*
X810810Y227880D01*
X672046Y230886D02*
X807803D01*
X652380Y211220D02*
X672046Y230886D01*
X736210Y420996D02*
Y426720D01*
X707644Y392430D02*
X736210Y420996D01*
X449580Y367420D02*
X466716D01*
X516128Y318008D01*
Y193802D02*
Y318008D01*
Y193802D02*
X521970Y187960D01*
X610616Y156134D02*
X646100Y120650D01*
X918464Y294240D02*
X975160D01*
X907904Y304800D02*
X918464Y294240D01*
X877653Y304800D02*
X907904D01*
X844996Y337457D02*
X877653Y304800D01*
X800656Y337457D02*
X844996D01*
X780112Y316914D02*
X800656Y337457D01*
X760808Y316914D02*
X780112D01*
X732536Y345186D02*
X760808Y316914D01*
X791386Y450772D02*
X800608Y459994D01*
Y520521D01*
X852000Y571912D01*
X938619D01*
X949699Y560832D01*
Y538470D02*
Y560832D01*
Y538470D02*
X953516Y534653D01*
Y518534D02*
Y534653D01*
Y518534D02*
X963930Y508120D01*
X765556Y455930D02*
Y461772D01*
Y455930D02*
X786130Y435356D01*
X801116D01*
X857250Y491490D01*
X566420Y482346D02*
X583438Y465328D01*
X747268Y417830D02*
X758444Y406654D01*
X794847D01*
X808980Y392521D01*
X855563D01*
X867918Y404876D01*
X918464D01*
X927608Y414020D01*
Y447040D01*
X930656Y450088D01*
X1033526D01*
X1044702Y438912D01*
Y304800D02*
Y438912D01*
X632050Y412848D02*
Y453390D01*
X627380Y408178D02*
X632050Y412848D01*
X627380Y363220D02*
Y408178D01*
X753618Y390906D02*
X756459Y393747D01*
X766271D01*
X769874Y390144D01*
Y382016D02*
Y390144D01*
X765048Y377190D02*
X769874Y382016D01*
X765048Y331978D02*
Y377190D01*
Y331978D02*
X769112Y327914D01*
X800862Y426720D02*
X813816Y413766D01*
X778120Y426720D02*
X800862D01*
X1017740Y562610D02*
X1056640D01*
X1007150Y552020D02*
X1017740Y562610D01*
X761120Y426720D02*
Y439284D01*
X760730Y439674D02*
X761120Y439284D01*
X898770Y460435D02*
Y469900D01*
X879025Y440690D02*
X898770Y460435D01*
X857250Y440690D02*
X879025D01*
X935228Y442976D02*
X1012952D01*
X1029970Y425958D01*
Y380880D02*
Y425958D01*
X1022470Y373380D02*
X1029970Y380880D01*
X550570Y154000D02*
X595630D01*
X542620Y146050D02*
X550570Y154000D01*
X510920Y529280D02*
X517920D01*
X504920Y523280D02*
X510920Y529280D01*
X382524Y379984D02*
X386080Y383540D01*
X399170D01*
X1007150Y551942D02*
Y552020D01*
X788416Y523438D02*
X841025Y576047D01*
Y587088D01*
X598170Y612140D02*
X651510D01*
X398106Y544830D02*
X405591Y537345D01*
X416023D01*
X416920Y536448D01*
Y523280D02*
Y536448D01*
X412750Y546100D02*
X416814Y542036D01*
X424688D01*
X427920Y538804D01*
Y523280D02*
Y538804D01*
X416920Y517546D02*
Y523280D01*
Y517546D02*
X427736Y506730D01*
X460180D01*
X468640Y498270D01*
X576756D01*
X582422Y503936D01*
X660845Y511922D02*
X681816Y532892D01*
X526034Y511922D02*
X660845D01*
X516382Y502270D02*
X526034Y511922D01*
X472640Y502270D02*
X516382D01*
X462988Y511922D02*
X472640Y502270D01*
X430094Y511922D02*
X462988D01*
X427920Y514096D02*
X430094Y511922D01*
X427920Y514096D02*
Y523280D01*
X493920Y512280D02*
Y523280D01*
Y512280D02*
X506260D01*
X509270Y509270D01*
X482920Y511876D02*
Y523280D01*
X481330Y510286D02*
X482920Y511876D01*
X439928Y545084D02*
X456438D01*
X461010Y540512D01*
Y529680D02*
Y540512D01*
X460920Y529590D02*
X461010Y529680D01*
X460920Y523280D02*
Y529590D01*
X1035254Y459790D02*
X1037336Y457708D01*
X602380Y211220D02*
X621830Y191770D01*
X677164D01*
X688594Y203200D01*
Y214884D01*
X700532Y226822D01*
X804672D01*
X827532Y203962D01*
Y188976D02*
Y203962D01*
Y188976D02*
X830580Y185928D01*
X876808D01*
X883920Y193040D01*
X979424Y119380D02*
X992200D01*
X950644Y148160D02*
X979424Y119380D01*
X950644Y148160D02*
Y192756D01*
X899160Y244240D02*
X950644Y192756D01*
X425450Y323596D02*
X439928Y338074D01*
X333248Y323596D02*
X425450D01*
X320548Y310896D02*
X333248Y323596D01*
X998220Y193040D02*
Y205232D01*
X988314Y215138D02*
X998220Y205232D01*
X886990Y231880D02*
X903732Y215138D01*
X816610Y231880D02*
X886990D01*
X796776Y251714D02*
X816610Y231880D01*
X722884Y251714D02*
X796776D01*
X688594Y286004D02*
Y299720D01*
X699516Y310642D01*
Y360356D01*
X702380Y363220D01*
X1009516Y373634D02*
X1022470Y360680D01*
X988568Y373634D02*
X1009516D01*
X992886Y322580D02*
X1022470D01*
X991616Y321310D02*
X992886Y322580D01*
X993394Y300990D02*
X1013580D01*
X1022470Y309880D01*
X985774Y278130D02*
X1022470D01*
X983996Y279908D02*
X985774Y278130D01*
X913492Y279908D02*
X983996D01*
X899160Y294240D02*
X913492Y279908D01*
X991502Y290830D02*
X1022470D01*
X985660Y296672D02*
X991502Y290830D01*
X985660Y296672D02*
Y300736D01*
X981596Y304800D02*
X985660Y300736D01*
X913600Y304800D02*
X981596D01*
X899160Y319240D02*
X913600Y304800D01*
X354930Y433070D02*
X373634D01*
X328040Y425070D02*
X354930D01*
X321310Y431800D02*
X328040Y425070D01*
X899160Y394240D02*
X953992D01*
X964692Y383540D01*
X1011802D01*
X1014342Y386080D01*
X1022470D01*
X975160Y344240D02*
X1002650D01*
X1003624Y343266D01*
X1017756D01*
X1022470Y347980D01*
X632050Y453390D02*
X632618D01*
X459994Y644398D02*
X486664Y617728D01*
X365760Y644398D02*
X459994D01*
X360920Y639558D02*
X365760Y644398D01*
X360920Y624280D02*
Y639558D01*
X857250Y516890D02*
X866394Y507746D01*
X894452D01*
X898770Y512064D01*
X507746Y95250D02*
X542620D01*
X497840Y85344D02*
X507746Y95250D01*
X411636Y85344D02*
X497840D01*
X394970Y102010D02*
X411636Y85344D01*
X669036Y499228D02*
X677164Y491100D01*
X899160Y244240D02*
Y252730D01*
X829310Y322580D02*
X899160Y252730D01*
X566903Y564530D02*
X569700Y561734D01*
X612008D01*
X615170Y564896D01*
Y570230D01*
X841248Y463804D02*
X851662Y453390D01*
X871474D01*
X876554Y448310D01*
X736210Y426720D02*
X761120D01*
X881770Y485140D02*
Y495808D01*
X961350Y544576D02*
Y552020D01*
Y544576D02*
X987298Y518628D01*
Y497790D02*
X993390D01*
X758190Y561340D02*
X764540Y554990D01*
Y548894D02*
Y554990D01*
Y548894D02*
X776478Y536956D01*
X942086Y533908D02*
X946150Y529844D01*
Y523120D02*
Y529844D01*
X721360Y485394D02*
Y491100D01*
Y485394D02*
X723392Y483362D01*
X773430D02*
Y491100D01*
X834644Y193040D02*
X845820D01*
X789940Y222504D02*
X802132Y210312D01*
X763664Y222504D02*
X789940D01*
X752380Y211220D02*
X763664Y222504D01*
X552380Y363220D02*
X552450D01*
X549050Y453390D02*
X552450D01*
X519430Y371170D02*
X527380Y363220D01*
X519430Y371170D02*
Y393446D01*
X442468Y470408D02*
X519430Y393446D01*
X390144Y470408D02*
X442468D01*
X368806Y449070D02*
X390144Y470408D01*
X354930Y449070D02*
X368806D01*
X690118Y581660D02*
X694690Y577088D01*
X654930Y581660D02*
X690118D01*
X340232Y441070D02*
X354930D01*
X338582Y439420D02*
X340232Y441070D01*
X939800Y130048D02*
X942086Y132334D01*
X938200Y119380D02*
X939800D01*
X517920Y529280D02*
Y534416D01*
X471920Y523280D02*
Y532384D01*
X397510Y453390D02*
X416970D01*
X391160Y391922D02*
X397510Y398272D01*
X378778Y391922D02*
X391160D01*
X373325Y386468D02*
X378778Y391922D01*
X373325Y333210D02*
X380200D01*
X320548Y256032D02*
X343370Y233210D01*
X320548Y350266D02*
X338328Y368046D01*
Y414528D01*
X340870Y417070D01*
X354930D01*
X394970Y184912D02*
Y185010D01*
X415290Y184912D02*
X425450Y195072D01*
Y263144D01*
X414528Y274066D02*
X425450Y263144D01*
X330200Y274066D02*
Y283210D01*
X991200Y335280D02*
X1022470D01*
X975160Y319240D02*
X991200Y335280D01*
X336376Y214240D02*
X355346Y233210D01*
X313690Y214240D02*
X336376D01*
X1036320Y178040D02*
Y178310D01*
X1010920Y178040D02*
Y178310D01*
X998220Y178040D02*
Y178310D01*
X985520Y178040D02*
Y178310D01*
X972820Y178040D02*
Y178310D01*
X399170Y375920D02*
Y383540D01*
Y375920D02*
X400440Y374650D01*
Y367030D02*
Y374650D01*
X623240Y95250D02*
X646100D01*
X618490Y100000D02*
X623240Y95250D01*
X595630Y100000D02*
X618490D01*
X369178Y417440D02*
X383540D01*
X368808Y417070D02*
X369178Y417440D01*
X354930Y417070D02*
X368808D01*
X354930D02*
Y425070D01*
X615170Y570230D02*
X677690D01*
X1056640Y517394D02*
Y537210D01*
X1056390Y517144D02*
X1056640Y517394D01*
X1056390Y497790D02*
Y517144D01*
X993390Y497790D02*
X1056390D01*
X777380Y182512D02*
Y211220D01*
X777240Y182372D02*
X777380Y182512D01*
X777240Y154000D02*
Y182372D01*
X416170Y375920D02*
Y383540D01*
Y375920D02*
X417440Y374650D01*
Y367030D02*
Y374650D01*
X425332Y367420D02*
X433070D01*
X424942Y367030D02*
X425332Y367420D01*
X417440Y367030D02*
X424942D01*
X433070Y384420D02*
X449580D01*
X305544Y197240D02*
X313690D01*
X305054Y197730D02*
X305544Y197240D01*
X297180Y197730D02*
X305054D01*
X694690Y577088D02*
Y612140D01*
X857250Y466090D02*
X867410D01*
X902970Y537092D02*
Y552020D01*
X898770Y532892D02*
X902970Y537092D01*
X534812Y564530D02*
X566903D01*
X517920Y535940D02*
Y547638D01*
X534812Y564530D01*
X517920Y547638D02*
Y624280D01*
X510488D02*
X517920D01*
X503936Y617728D02*
X510488Y624280D01*
X486664Y617728D02*
X503936D01*
X1035254Y459790D02*
X1056390D01*
X788416Y471678D02*
Y523438D01*
X321310Y431800D02*
Y476250D01*
X360920Y515860D01*
X332350Y547370D02*
X351493Y566513D01*
Y594559D01*
X734568Y614680D02*
X739218Y619330D01*
X728980Y614680D02*
X734568D01*
X716541Y612140D02*
X733812Y629412D01*
X694690Y612140D02*
X716541D01*
X707390Y584200D02*
X727710Y604520D01*
X651510Y612140D02*
X676974Y637604D01*
D30*
X1056640Y537210D02*
D03*
X857250Y491490D02*
D03*
Y466090D02*
D03*
Y440690D02*
D03*
X975160Y244240D02*
D03*
Y269240D02*
D03*
Y294240D02*
D03*
Y319240D02*
D03*
Y344240D02*
D03*
Y369240D02*
D03*
Y394240D02*
D03*
Y419240D02*
D03*
X899160Y244240D02*
D03*
Y269240D02*
D03*
Y294240D02*
D03*
Y319240D02*
D03*
Y344240D02*
D03*
Y369240D02*
D03*
Y394240D02*
D03*
X635000Y543560D02*
D03*
X609600D02*
D03*
X829310Y271780D02*
D03*
Y297180D02*
D03*
Y322580D02*
D03*
X783590Y561340D02*
D03*
X758190D02*
D03*
D31*
X1056640Y562610D02*
D03*
X857250Y516890D02*
D03*
X829310Y246380D02*
D03*
D32*
X899160Y419240D02*
D03*
X584200Y543560D02*
D03*
X732790Y561340D02*
D03*
D33*
X646100Y171450D02*
D03*
X463220D02*
D03*
D34*
X646100Y146050D02*
D03*
Y120650D02*
D03*
Y95250D02*
D03*
X725500D02*
D03*
Y120650D02*
D03*
Y146050D02*
D03*
Y171450D02*
D03*
X463220Y146050D02*
D03*
Y120650D02*
D03*
Y95250D02*
D03*
X542620D02*
D03*
Y120650D02*
D03*
Y146050D02*
D03*
Y171450D02*
D03*
D35*
X316230Y615950D02*
D03*
X1051560D02*
D03*
X316230Y104140D02*
D03*
X1051560Y105410D02*
D03*
D36*
X502380Y211220D02*
D03*
D37*
X527380D02*
D03*
X552380D02*
D03*
X577380D02*
D03*
X602380D02*
D03*
X627380D02*
D03*
X652380D02*
D03*
X677380D02*
D03*
X702380D02*
D03*
X727380D02*
D03*
X752380D02*
D03*
X777380D02*
D03*
X502380Y363220D02*
D03*
X527380D02*
D03*
X552380D02*
D03*
X577380D02*
D03*
X602380D02*
D03*
X627380D02*
D03*
X652380D02*
D03*
X677380D02*
D03*
X702380D02*
D03*
X727380D02*
D03*
X752380D02*
D03*
X777380D02*
D03*
D38*
X330200Y283210D02*
D03*
D39*
X380200Y233210D02*
D03*
Y258210D02*
D03*
Y308210D02*
D03*
Y333210D02*
D03*
D40*
X305200D02*
D03*
X330200D02*
D03*
X380200Y283210D02*
D03*
X305200Y233210D02*
D03*
X330200D02*
D03*
D41*
X328930Y455070D02*
D03*
Y411070D02*
D03*
X488920Y628280D02*
D03*
X408920D02*
D03*
D42*
X302260Y564790D02*
D03*
Y519790D02*
D03*
D43*
X327160Y577340D02*
D03*
Y507240D02*
D03*
D44*
X817590Y627380D02*
D03*
X819150Y575310D02*
D03*
X802640D02*
D03*
X843280Y626990D02*
D03*
X779780Y609600D02*
D03*
X746760Y577850D02*
D03*
X1037590Y398780D02*
D03*
Y386080D02*
D03*
Y373380D02*
D03*
Y360680D02*
D03*
Y347980D02*
D03*
Y335280D02*
D03*
Y322580D02*
D03*
Y309880D02*
D03*
Y290830D02*
D03*
Y278130D02*
D03*
X934720Y177800D02*
D03*
X922020D02*
D03*
X909320D02*
D03*
X896620D02*
D03*
X883920D02*
D03*
X871220D02*
D03*
X858520D02*
D03*
X845820D02*
D03*
X972820D02*
D03*
X985520D02*
D03*
X998220D02*
D03*
X1010920D02*
D03*
X1023620D02*
D03*
X1036320D02*
D03*
X360680Y560460D02*
D03*
X368046Y544830D02*
D03*
X881770Y528964D02*
D03*
X685038Y401828D02*
D03*
X677164Y293102D02*
D03*
X783082Y461772D02*
D03*
X910336Y496062D02*
D03*
X538480Y253492D02*
D03*
X973836Y515112D02*
D03*
X918464D02*
D03*
X739394Y495300D02*
D03*
X701548Y543560D02*
D03*
X751598Y493510D02*
D03*
X954786Y459790D02*
D03*
X452882Y637286D02*
D03*
X424942Y549148D02*
D03*
X948436Y434848D02*
D03*
X935228Y431800D02*
D03*
X781434Y384521D02*
D03*
X738632Y386842D02*
D03*
X870712Y463550D02*
D03*
X914146Y447294D02*
D03*
X863346Y562610D02*
D03*
X853440Y582930D02*
D03*
X575310Y570230D02*
D03*
X562610Y557530D02*
D03*
X642112Y518922D02*
D03*
X387096Y441706D02*
D03*
X466598Y461010D02*
D03*
X453984Y536702D02*
D03*
X843280Y599694D02*
D03*
X910844Y526288D02*
D03*
X984250Y537718D02*
D03*
X1027430Y139446D02*
D03*
X711708Y104140D02*
D03*
X692404Y315772D02*
D03*
X740410Y324358D02*
D03*
X625602Y471932D02*
D03*
X664250Y467725D02*
D03*
X815848Y399542D02*
D03*
X570738Y310134D02*
D03*
X579374Y320548D02*
D03*
X587756Y326898D02*
D03*
X746760Y341884D02*
D03*
X814578Y364744D02*
D03*
X650494Y343662D02*
D03*
X712216Y453898D02*
D03*
X591312Y226314D02*
D03*
X730504Y453390D02*
D03*
X762762Y385826D02*
D03*
X644731Y232489D02*
D03*
X719328Y445262D02*
D03*
X728726Y390906D02*
D03*
X1009650Y350266D02*
D03*
Y227838D02*
D03*
X717296Y338836D02*
D03*
X691134Y345186D02*
D03*
X707136Y443992D02*
D03*
X708914Y418592D02*
D03*
X1009904Y207010D02*
D03*
X860806Y249428D02*
D03*
X858520Y218440D02*
D03*
X871220Y218694D02*
D03*
X878332Y211328D02*
D03*
X723392Y317754D02*
D03*
X810260Y285242D02*
D03*
X707644Y392430D02*
D03*
X732536Y345186D02*
D03*
X791386Y450772D02*
D03*
X765556Y461772D02*
D03*
X566420Y482346D02*
D03*
X583438Y465328D02*
D03*
X747268Y417830D02*
D03*
X753618Y390906D02*
D03*
X769112Y327914D02*
D03*
X813816Y413766D02*
D03*
X760730Y439674D02*
D03*
X935228Y442976D02*
D03*
X382524Y379984D02*
D03*
X995680Y551942D02*
D03*
X788416Y471678D02*
D03*
X412750Y546100D02*
D03*
X582422Y503936D02*
D03*
X681816Y532892D02*
D03*
X509270Y509270D02*
D03*
X481330Y510286D02*
D03*
X439928Y545084D02*
D03*
X1037336Y457708D02*
D03*
X439928Y338074D02*
D03*
X988314Y215138D02*
D03*
X903732D02*
D03*
X722884Y251714D02*
D03*
X688594Y286004D02*
D03*
X988568Y373634D02*
D03*
X991616Y321310D02*
D03*
X993394Y300990D02*
D03*
X373634Y433070D02*
D03*
X632618Y490996D02*
D03*
X669036Y499228D02*
D03*
X841248Y463804D02*
D03*
X876554Y448310D02*
D03*
X776478Y536956D02*
D03*
X942086Y533908D02*
D03*
X834644Y193040D02*
D03*
X961644Y185928D02*
D03*
X802132Y140208D02*
D03*
X598170Y596900D02*
D03*
X654930Y581660D02*
D03*
X338582Y439420D02*
D03*
X942086Y132334D02*
D03*
X332350Y547370D02*
D03*
X351493Y594559D02*
D03*
X727710Y604520D02*
D03*
X728980Y614680D02*
D03*
X707390Y584200D02*
D03*
M02*
