G04 Layer_Color=8388736*
%FSLAX44Y44*%
%MOMM*%
G71*
G01*
G75*
%ADD57R,1.6032X2.4032*%
%ADD58R,2.0032X1.6032*%
%ADD59R,1.6032X1.8032*%
%ADD60R,0.9032X1.8032*%
%ADD61R,2.7032X2.2032*%
%ADD62R,2.5032X0.7032*%
%ADD63R,1.2032X1.3032*%
%ADD64R,1.3032X1.2032*%
%ADD65R,4.5032X2.7032*%
%ADD66R,1.0032X1.0032*%
%ADD67R,1.0032X1.0032*%
%ADD68R,5.2832X1.9812*%
%ADD69R,3.4432X1.5132*%
%ADD70R,1.1332X1.5132*%
%ADD71R,1.6032X1.4032*%
%ADD72R,2.7032X4.5032*%
%ADD73R,1.8032X3.7032*%
%ADD74R,3.7032X1.8032*%
%ADD75R,1.9032X1.2032*%
%ADD76C,2.1532*%
%ADD77C,1.7012*%
%ADD78R,1.7032X1.7032*%
%ADD79C,1.7032*%
%ADD80C,1.1032*%
%ADD81C,1.4032*%
%ADD82O,2.8192X1.5112*%
%ADD83O,1.5112X2.8192*%
%ADD84C,1.8032*%
%ADD85R,1.8032X1.8032*%
%ADD86R,1.7032X1.7032*%
%ADD87C,4.2032*%
%ADD88C,1.3332*%
%ADD89R,1.3332X1.3332*%
%ADD90C,1.0032*%
D57*
X360920Y624280D02*
D03*
X517920D02*
D03*
D58*
X369920Y528280D02*
D03*
D59*
X517920Y529280D02*
D03*
D60*
X504920Y523280D02*
D03*
X493920D02*
D03*
X482920D02*
D03*
X471920D02*
D03*
X460920D02*
D03*
X449920D02*
D03*
X438920D02*
D03*
X427920D02*
D03*
X416920D02*
D03*
D61*
X353930Y477570D02*
D03*
X298930D02*
D03*
X353930Y388570D02*
D03*
X298930D02*
D03*
D62*
X354930Y417070D02*
D03*
Y425070D02*
D03*
Y433070D02*
D03*
Y441070D02*
D03*
Y449070D02*
D03*
D63*
X383540Y417440D02*
D03*
Y400440D02*
D03*
X843280Y609990D02*
D03*
Y626990D02*
D03*
X297180Y197730D02*
D03*
Y180730D02*
D03*
X313690Y197240D02*
D03*
Y214240D02*
D03*
X433070Y384420D02*
D03*
Y367420D02*
D03*
X449580Y384420D02*
D03*
Y367420D02*
D03*
X721360Y491100D02*
D03*
Y474100D02*
D03*
X773430D02*
D03*
Y491100D02*
D03*
D64*
X898770Y518160D02*
D03*
X881770D02*
D03*
Y485140D02*
D03*
X898770D02*
D03*
Y469900D02*
D03*
X881770D02*
D03*
X694690Y570230D02*
D03*
X677690D02*
D03*
X598170D02*
D03*
X615170D02*
D03*
X417440Y367030D02*
D03*
X400440D02*
D03*
X399170Y383540D02*
D03*
X416170D02*
D03*
X736210Y426720D02*
D03*
X719210D02*
D03*
X778120D02*
D03*
X761120D02*
D03*
D65*
X549050Y453390D02*
D03*
X632050D02*
D03*
X499970D02*
D03*
X416970D02*
D03*
D66*
X1037470Y290830D02*
D03*
X1022470D02*
D03*
X1037470Y278130D02*
D03*
X1022470D02*
D03*
X1037470Y322580D02*
D03*
X1022470D02*
D03*
X1037470Y309880D02*
D03*
X1022470D02*
D03*
X1037470Y347980D02*
D03*
X1022470D02*
D03*
X1037470Y360680D02*
D03*
X1022470D02*
D03*
X1037470Y373380D02*
D03*
X1022470D02*
D03*
X1037470Y386080D02*
D03*
X1022470D02*
D03*
X1037470Y398780D02*
D03*
X1022470D02*
D03*
X1037470Y335280D02*
D03*
X1022470D02*
D03*
D67*
X1036320Y178040D02*
D03*
Y193040D02*
D03*
X1023620Y178040D02*
D03*
Y193040D02*
D03*
X1010920Y178040D02*
D03*
Y193040D02*
D03*
X998220Y178040D02*
D03*
Y193040D02*
D03*
X972820Y178040D02*
D03*
Y193040D02*
D03*
X985520Y178040D02*
D03*
Y193040D02*
D03*
X934720Y178040D02*
D03*
Y193040D02*
D03*
X922020Y178040D02*
D03*
Y193040D02*
D03*
X909320Y178040D02*
D03*
Y193040D02*
D03*
X896620Y178040D02*
D03*
Y193040D02*
D03*
X883920Y178040D02*
D03*
Y193040D02*
D03*
X871220Y178040D02*
D03*
Y193040D02*
D03*
X845820Y178040D02*
D03*
Y193040D02*
D03*
X858520Y178040D02*
D03*
Y193040D02*
D03*
X946150Y508120D02*
D03*
Y523120D02*
D03*
X963930Y508120D02*
D03*
Y523120D02*
D03*
X928370Y508120D02*
D03*
Y523120D02*
D03*
D68*
X598170Y612140D02*
D03*
X694690D02*
D03*
D69*
X902970Y618920D02*
D03*
X984250D02*
D03*
D70*
X925870Y552020D02*
D03*
X902970D02*
D03*
X880070D02*
D03*
X961350D02*
D03*
X984250D02*
D03*
X1007150D02*
D03*
D71*
X767080Y597330D02*
D03*
X792480D02*
D03*
Y619330D02*
D03*
X767080D02*
D03*
D72*
X394970Y102010D02*
D03*
Y185010D02*
D03*
D73*
X595630Y100000D02*
D03*
Y154000D02*
D03*
X777240Y154000D02*
D03*
Y100000D02*
D03*
D74*
X890600Y119380D02*
D03*
X836600D02*
D03*
X992200D02*
D03*
X938200D02*
D03*
D75*
X993390Y497790D02*
D03*
Y459790D02*
D03*
X1056390Y497790D02*
D03*
Y459790D02*
D03*
D76*
X327160Y507240D02*
D03*
Y577340D02*
D03*
D77*
X302260Y519790D02*
D03*
Y564790D02*
D03*
D78*
X732790Y561340D02*
D03*
X584200Y543560D02*
D03*
X899160Y419240D02*
D03*
D79*
X758190Y561340D02*
D03*
X783590D02*
D03*
X829310Y322580D02*
D03*
Y297180D02*
D03*
Y271780D02*
D03*
X609600Y543560D02*
D03*
X635000D02*
D03*
X899160Y394240D02*
D03*
Y369240D02*
D03*
Y344240D02*
D03*
Y319240D02*
D03*
Y294240D02*
D03*
Y269240D02*
D03*
Y244240D02*
D03*
X975160Y419240D02*
D03*
Y394240D02*
D03*
Y369240D02*
D03*
Y344240D02*
D03*
Y319240D02*
D03*
Y294240D02*
D03*
Y269240D02*
D03*
Y244240D02*
D03*
X857250Y440690D02*
D03*
Y466090D02*
D03*
Y491490D02*
D03*
X1056640Y537210D02*
D03*
D80*
X408920Y628280D02*
D03*
X488920D02*
D03*
X328930Y411070D02*
D03*
Y455070D02*
D03*
D81*
X330200Y233210D02*
D03*
X305200D02*
D03*
X380200Y283210D02*
D03*
X330200Y333210D02*
D03*
X305200D02*
D03*
D82*
X380200D02*
D03*
Y308210D02*
D03*
Y258210D02*
D03*
Y233210D02*
D03*
D83*
X330200Y283210D02*
D03*
D84*
X777380Y363220D02*
D03*
X752380D02*
D03*
X727380D02*
D03*
X702380D02*
D03*
X677380D02*
D03*
X652380D02*
D03*
X627380D02*
D03*
X602380D02*
D03*
X577380D02*
D03*
X552380D02*
D03*
X527380D02*
D03*
X502380D02*
D03*
X777380Y211220D02*
D03*
X752380D02*
D03*
X727380D02*
D03*
X702380D02*
D03*
X677380D02*
D03*
X652380D02*
D03*
X627380D02*
D03*
X602380D02*
D03*
X577380D02*
D03*
X552380D02*
D03*
X527380D02*
D03*
D85*
X502380D02*
D03*
D86*
X829310Y246380D02*
D03*
X857250Y516890D02*
D03*
X1056640Y562610D02*
D03*
D87*
X1051560Y105410D02*
D03*
X316230Y104140D02*
D03*
X1051560Y615950D02*
D03*
X316230D02*
D03*
D88*
X542620Y171450D02*
D03*
Y146050D02*
D03*
Y120650D02*
D03*
Y95250D02*
D03*
X463220D02*
D03*
Y120650D02*
D03*
Y146050D02*
D03*
X725500Y171450D02*
D03*
Y146050D02*
D03*
Y120650D02*
D03*
Y95250D02*
D03*
X646100D02*
D03*
Y120650D02*
D03*
Y146050D02*
D03*
D89*
X463220Y171450D02*
D03*
X646100D02*
D03*
D90*
X1036320Y177800D02*
D03*
X1023620D02*
D03*
X1010920D02*
D03*
X998220D02*
D03*
X985520D02*
D03*
X972820D02*
D03*
X845820D02*
D03*
X858520D02*
D03*
X871220D02*
D03*
X883920D02*
D03*
X896620D02*
D03*
X909320D02*
D03*
X922020D02*
D03*
X934720D02*
D03*
X1037590Y278130D02*
D03*
Y290830D02*
D03*
Y309880D02*
D03*
Y322580D02*
D03*
Y335280D02*
D03*
Y347980D02*
D03*
Y360680D02*
D03*
Y373380D02*
D03*
Y386080D02*
D03*
Y398780D02*
D03*
M02*
