G04 Layer_Color=16711935*
%FSLAX44Y44*%
%MOMM*%
G71*
G01*
G75*
%ADD58R,1.3032X1.2032*%
%ADD59R,1.2032X1.3032*%
%ADD76C,1.7032*%
%ADD77R,1.7032X1.7032*%
%ADD78R,1.7032X1.7032*%
%ADD79R,1.3332X1.3332*%
%ADD80C,1.3332*%
%ADD81C,4.2032*%
%ADD82R,1.8032X1.8032*%
%ADD83C,1.8032*%
%ADD84O,1.5112X2.8192*%
%ADD85O,2.8192X1.5112*%
%ADD86C,1.4032*%
%ADD87C,1.1032*%
%ADD88C,1.7012*%
%ADD89C,2.1532*%
%ADD90C,1.0032*%
%ADD91R,1.6732X0.4832*%
%ADD92R,0.4832X1.6732*%
%ADD93R,1.8132X0.7832*%
%ADD94R,1.4032X1.6032*%
%ADD95R,2.0032X2.2032*%
D58*
X974970Y445770D02*
D03*
X957970D02*
D03*
X374260Y128270D02*
D03*
X357260D02*
D03*
X355990Y144780D02*
D03*
X372990D02*
D03*
Y160020D02*
D03*
X355990D02*
D03*
X374260Y176530D02*
D03*
X357260D02*
D03*
X547760Y419100D02*
D03*
X564760D02*
D03*
X1037980Y398780D02*
D03*
X1054980D02*
D03*
X1037980Y386080D02*
D03*
X1054980D02*
D03*
X1037980Y360680D02*
D03*
X1054980D02*
D03*
X1037980Y347980D02*
D03*
X1054980D02*
D03*
X1037980Y335280D02*
D03*
X1054980D02*
D03*
X1037980Y322580D02*
D03*
X1054980D02*
D03*
X1037980Y309880D02*
D03*
X1054980D02*
D03*
X1037980Y290830D02*
D03*
X1054980D02*
D03*
X1037980Y278130D02*
D03*
X1054980D02*
D03*
X1037980Y373380D02*
D03*
X1054980D02*
D03*
X327270Y425450D02*
D03*
X310270D02*
D03*
X360290Y410210D02*
D03*
X343290D02*
D03*
X327270Y439420D02*
D03*
X310270D02*
D03*
X317890Y312420D02*
D03*
X334890D02*
D03*
X317890Y255270D02*
D03*
X334890D02*
D03*
X433950D02*
D03*
X416950D02*
D03*
Y270510D02*
D03*
X433950D02*
D03*
X400930Y353060D02*
D03*
X383930D02*
D03*
X637930Y612140D02*
D03*
X654930D02*
D03*
X790820Y279400D02*
D03*
X773820D02*
D03*
X332350Y547370D02*
D03*
X315350D02*
D03*
D59*
X593090Y100720D02*
D03*
Y117720D02*
D03*
X576580Y100720D02*
D03*
Y117720D02*
D03*
X892120Y600090D02*
D03*
Y583090D02*
D03*
X874340Y600090D02*
D03*
Y583090D02*
D03*
X932180Y600320D02*
D03*
Y583320D02*
D03*
X913130Y600320D02*
D03*
Y583320D02*
D03*
X1013460Y600320D02*
D03*
Y583320D02*
D03*
X995680Y600320D02*
D03*
Y583320D02*
D03*
X972820Y600320D02*
D03*
Y583320D02*
D03*
X955040Y600320D02*
D03*
Y583320D02*
D03*
X1040130Y486020D02*
D03*
Y469020D02*
D03*
X928370Y505850D02*
D03*
Y522850D02*
D03*
X946150Y505850D02*
D03*
Y522850D02*
D03*
X963930Y505850D02*
D03*
Y522850D02*
D03*
X909320Y178310D02*
D03*
Y195310D02*
D03*
X922020Y178310D02*
D03*
Y195310D02*
D03*
X934720Y178310D02*
D03*
Y195310D02*
D03*
X871220Y178310D02*
D03*
Y195310D02*
D03*
X883920Y178310D02*
D03*
Y195310D02*
D03*
X896620Y178310D02*
D03*
Y195310D02*
D03*
X845820Y178190D02*
D03*
Y195190D02*
D03*
X858520Y178310D02*
D03*
Y195310D02*
D03*
X972820Y178310D02*
D03*
Y195310D02*
D03*
X985520Y178310D02*
D03*
Y195310D02*
D03*
X1036320Y178310D02*
D03*
Y195310D02*
D03*
X998220Y178310D02*
D03*
Y195310D02*
D03*
X1010920Y178310D02*
D03*
Y195310D02*
D03*
X1023620Y178310D02*
D03*
Y195310D02*
D03*
X397510Y560460D02*
D03*
Y577460D02*
D03*
X379730Y560460D02*
D03*
Y577460D02*
D03*
X434340Y560460D02*
D03*
Y577460D02*
D03*
X453390Y560460D02*
D03*
Y577460D02*
D03*
X472440Y560460D02*
D03*
Y577460D02*
D03*
X360680D02*
D03*
Y560460D02*
D03*
X416560Y335670D02*
D03*
Y352670D02*
D03*
X351790Y314080D02*
D03*
Y331080D02*
D03*
X417830Y315840D02*
D03*
Y298840D02*
D03*
X433070D02*
D03*
Y315840D02*
D03*
X431800Y370450D02*
D03*
Y353450D02*
D03*
X447040Y370450D02*
D03*
Y353450D02*
D03*
X1023620Y485630D02*
D03*
Y468630D02*
D03*
X791210Y246770D02*
D03*
Y263770D02*
D03*
Y306460D02*
D03*
Y323460D02*
D03*
X415290Y560460D02*
D03*
Y577460D02*
D03*
D76*
X1056640Y537210D02*
D03*
X857250Y491490D02*
D03*
Y466090D02*
D03*
Y440690D02*
D03*
X975160Y244240D02*
D03*
Y269240D02*
D03*
Y294240D02*
D03*
Y319240D02*
D03*
Y344240D02*
D03*
Y369240D02*
D03*
Y394240D02*
D03*
Y419240D02*
D03*
X899160Y244240D02*
D03*
Y269240D02*
D03*
Y294240D02*
D03*
Y319240D02*
D03*
Y344240D02*
D03*
Y369240D02*
D03*
Y394240D02*
D03*
X635000Y543560D02*
D03*
X609600D02*
D03*
X829310Y271780D02*
D03*
Y297180D02*
D03*
Y322580D02*
D03*
X783590Y561340D02*
D03*
X758190D02*
D03*
D77*
X1056640Y562610D02*
D03*
X857250Y516890D02*
D03*
X829310Y246380D02*
D03*
D78*
X899160Y419240D02*
D03*
X584200Y543560D02*
D03*
X732790Y561340D02*
D03*
D79*
X646100Y171450D02*
D03*
X463220D02*
D03*
D80*
X646100Y146050D02*
D03*
Y120650D02*
D03*
Y95250D02*
D03*
X725500D02*
D03*
Y120650D02*
D03*
Y146050D02*
D03*
Y171450D02*
D03*
X463220Y146050D02*
D03*
Y120650D02*
D03*
Y95250D02*
D03*
X542620D02*
D03*
Y120650D02*
D03*
Y146050D02*
D03*
Y171450D02*
D03*
D81*
X316230Y615950D02*
D03*
X1051560D02*
D03*
X316230Y104140D02*
D03*
X1051560Y105410D02*
D03*
D82*
X502380Y211220D02*
D03*
D83*
X527380D02*
D03*
X552380D02*
D03*
X577380D02*
D03*
X602380D02*
D03*
X627380D02*
D03*
X652380D02*
D03*
X677380D02*
D03*
X702380D02*
D03*
X727380D02*
D03*
X752380D02*
D03*
X777380D02*
D03*
X502380Y363220D02*
D03*
X527380D02*
D03*
X552380D02*
D03*
X577380D02*
D03*
X602380D02*
D03*
X627380D02*
D03*
X652380D02*
D03*
X677380D02*
D03*
X702380D02*
D03*
X727380D02*
D03*
X752380D02*
D03*
X777380D02*
D03*
D84*
X330200Y283210D02*
D03*
D85*
X380200Y233210D02*
D03*
Y258210D02*
D03*
Y308210D02*
D03*
Y333210D02*
D03*
D86*
X305200D02*
D03*
X330200D02*
D03*
X380200Y283210D02*
D03*
X305200Y233210D02*
D03*
X330200D02*
D03*
D87*
X328930Y455070D02*
D03*
Y411070D02*
D03*
X488920Y628280D02*
D03*
X408920D02*
D03*
D88*
X302260Y564790D02*
D03*
Y519790D02*
D03*
D89*
X327160Y577340D02*
D03*
Y507240D02*
D03*
D90*
X1037590Y398780D02*
D03*
Y386080D02*
D03*
Y373380D02*
D03*
Y360680D02*
D03*
Y347980D02*
D03*
Y335280D02*
D03*
Y322580D02*
D03*
Y309880D02*
D03*
Y290830D02*
D03*
Y278130D02*
D03*
X934720Y177800D02*
D03*
X922020D02*
D03*
X909320D02*
D03*
X896620D02*
D03*
X883920D02*
D03*
X871220D02*
D03*
X858520D02*
D03*
X845820D02*
D03*
X972820D02*
D03*
X985520D02*
D03*
X998220D02*
D03*
X1010920D02*
D03*
X1023620D02*
D03*
X1036320D02*
D03*
D91*
X691330Y498510D02*
D03*
Y493510D02*
D03*
Y488510D02*
D03*
Y483510D02*
D03*
Y478510D02*
D03*
Y473510D02*
D03*
Y468510D02*
D03*
Y463510D02*
D03*
Y458510D02*
D03*
Y453510D02*
D03*
Y448510D02*
D03*
Y443510D02*
D03*
Y438510D02*
D03*
Y433510D02*
D03*
Y428510D02*
D03*
Y423510D02*
D03*
X804730D02*
D03*
Y428510D02*
D03*
Y433510D02*
D03*
Y438510D02*
D03*
Y443510D02*
D03*
Y448510D02*
D03*
Y453510D02*
D03*
Y458510D02*
D03*
Y463510D02*
D03*
Y468510D02*
D03*
Y473510D02*
D03*
Y478510D02*
D03*
Y483510D02*
D03*
Y488510D02*
D03*
Y493510D02*
D03*
Y498510D02*
D03*
D92*
X785530Y517710D02*
D03*
X780530D02*
D03*
X775530D02*
D03*
X770530D02*
D03*
X765530D02*
D03*
X760530D02*
D03*
X755530D02*
D03*
X750530D02*
D03*
X745530D02*
D03*
X740530D02*
D03*
X735530D02*
D03*
X730530D02*
D03*
X725530D02*
D03*
X720530D02*
D03*
X715530D02*
D03*
X710530D02*
D03*
Y404310D02*
D03*
X715530D02*
D03*
X720530D02*
D03*
X725530D02*
D03*
X730530D02*
D03*
X735530D02*
D03*
X740530D02*
D03*
X745530D02*
D03*
X750530D02*
D03*
X755530D02*
D03*
X760530D02*
D03*
X765530D02*
D03*
X770530D02*
D03*
X775530D02*
D03*
X780530D02*
D03*
X785530D02*
D03*
D93*
X745490Y589280D02*
D03*
Y601980D02*
D03*
Y614680D02*
D03*
Y627380D02*
D03*
X817590D02*
D03*
Y614680D02*
D03*
Y601980D02*
D03*
Y589280D02*
D03*
D94*
X946990Y344170D02*
D03*
Y369570D02*
D03*
X924990D02*
D03*
Y344170D02*
D03*
D95*
X552450Y312420D02*
D03*
Y270420D02*
D03*
X501650Y312420D02*
D03*
Y270420D02*
D03*
M02*
