M48
;Layer_Color=9474304
;FILE_FORMAT=4:4
METRIC,LZ
;TYPE=PLATED
T1F00S00C0.4000
T2F00S00C0.6000
T3F00S00C0.7800
T5F00S00C0.9000
T6F00S00C0.9900
T7F00S00C1.3000
T8F00S00C3.0000
;TYPE=NON_PLATED
T9F00S00C0.9000
T10F00S00C1.2000
%
T01
X00382524Y00379984
X00439928Y00338074
X00579374Y00320548
X00587756Y00326898
X00570738Y00310134
X0053848Y00253492
X00591312Y00226314
X00644731Y00232489
X00677164Y00293102
X00688594Y00286004
X00692404Y00315772
X00691134Y00345186
X00717296Y00338836
X00732536Y00345186
X0074676Y00341884
X0074041Y00324358
X00723392Y00317754
X00769112Y00327914
X00762762Y00385826
X00753618Y00390906
X00738632Y00386842
X00728726Y00390906
X00707644Y0039243
X00781434Y00384521
X00650494Y00343662
X00722884Y00251714
X00711708Y0010414
X00802132Y00140208
X0084582Y001778
X0085852
X0087122
X0088392
X0089662
X0090932
X0092202
X0093472
X00961644Y00185928
X0097282Y001778
X0098552
X0099822
X0101092
X0102362
X0103632
X0102743Y00139446
X01009904Y0020701
X0100965Y00227838
X00988314Y00215138
X00903732
X00878332Y00211328
X0087122Y00218694
X0085852Y0021844
X00860806Y00249428
X00834644Y0019304
X0081026Y00285242
X00814578Y00364744
X00988568Y00373634
X0100965Y00350266
X0103759Y0034798
Y0033528
Y0032258
Y0030988
Y0029083
Y0027813
X00993394Y0030099
X00991616Y0032131
X0103759Y0036068
Y0037338
Y0038608
X00942086Y00132334
X00935228Y004318
Y00442976
X00948436Y00434848
X00954786Y0045979
X00914146Y00447294
X00876554Y0044831
X00870712Y0046355
X00841248Y00463804
X00813816Y00413766
X00815848Y00399542
X00910336Y00496062
X00918464Y00515112
X00910844Y00526288
X0088177Y00528964
X00863346Y0056261
X0085344Y0058293
X0084328Y00599694
X00942086Y00533908
X0098425Y00537718
X0099568Y00551942
X00973836Y00515112
X01037336Y00457708
X0103759Y0039878
X00791386Y00450772
X00783082Y00461772
X00788416Y00471678
X00765556Y00461772
X0076073Y00439674
X00747268Y0041783
X00708914Y00418592
X00707136Y00443992
X00719328Y00445262
X00712216Y00453898
X00730504Y0045339
X00739394Y004953
X00751598Y0049351
X00776478Y00536956
X00779526Y00609092
X0072898Y0061468
X0072771Y0060452
X0070739Y005842
X00701548Y0054356
X00681816Y00532892
X00669036Y00499228
X0066425Y00467725
X00625602Y00471932
X00632618Y00490996
X00642112Y00518922
X00582422Y00503936
X0056642Y00482346
X00583438Y00465328
X0056261Y0055753
X0057531Y0057023
X0059817Y005969
X0065493Y0058166
X00685038Y00401828
X00466598Y0046101
X0048133Y00510286
X0050927Y0050927
X00453984Y00536702
X00439928Y00545084
X00424942Y00549148
X0041275Y005461
X00452882Y00637286
X00351493Y00594559
X0036068Y0056046
X00368046Y0054483
X0033235Y0054737
X00338582Y0043942
X00373634Y0043307
X00387096Y00441706
T02
X0050238Y0021122
X0052738
X0055238
X0057738
X0060238
X0062738
X0065238
X0067738
X0070238
X0072738
X0075238
X0077738
Y0036322
X0075238
X0072738
X0070238
X0067738
X0065238
X0062738
X0060238
X0057738
X0055238
X0052738
X0050238
X0089916Y0036924
Y0034424
Y0031924
Y0029424
Y0026924
Y0024424
X0097516
Y0026924
Y0029424
Y0031924
Y0034424
Y0036924
Y0039424
X0089916
Y0041924
X0097516
T03
X0046322Y0009525
Y0012065
Y0014605
Y0017145
X0054262
Y0014605
Y0012065
Y0009525
X006461
Y0012065
Y0014605
Y0017145
X007255
Y0014605
Y0012065
Y0009525
T05
X0082931Y0024638
Y0027178
Y0029718
Y0032258
X0085725Y0044069
Y0046609
Y0049149
Y0051689
X0105664Y0053721
Y0056261
X0078359Y0056134
X0075819
X0073279
X00635Y0054356
X006096
X005842
T06
X0030226Y0051979
Y0056479
T07
X0032716Y0050724
Y0057734
T08
X0031623Y0010414
X0105156Y0010541
Y0061595
X0031623
T09
X0040892Y0062828
X0048892
X0032893Y0045507
Y0041107
T10
X003052Y0023321
X003302
X003802Y0028321
X003302Y0033321
X003052
M30
